<svg width="64" height="64" viewBox="0 0 64 64" fill="none" xmlns="http://www.w3.org/2000/svg">
<rect x="0.5" y="0.5" width="63" height="63" rx="9.5" fill="white" stroke="#808080"/>
<path d="M31.1105 35.6353C30.9298 35.7625 30.5595 35.8715 30.1573 35.8715C29.419 35.8715 29.0869 35.3064 29.1006 34.6491C29.1123 34.1043 29.4528 33.4869 30.3749 33.4869L31.1106 33.4865V35.6353H31.1105ZM30.3514 29.5933C29.4753 29.5933 28.6868 29.8403 27.8765 30.2413L27.6697 30.3476L28.163 31.4449L28.4411 31.3139C29.0149 31.0579 29.6262 30.8863 30.1758 30.9092C30.8411 30.9368 31.1133 31.2408 31.1133 31.8753V32.2476H30.0254C28.2768 32.2476 27.1887 33.1716 27.1573 34.6063C27.1573 35.9696 28.2976 37.1432 29.8828 37.1432C31.1621 37.1432 32.2459 36.7295 32.9762 36.0003V32.11C32.9762 30.2156 31.6195 29.5933 30.3514 29.5933ZM56.3221 35.8667V37.0172C56.3221 37.0172 55.9346 37.0909 55.6207 37.0909C54.155 37.0909 53.28 36.4027 53.28 34.7953V28.0165L55.1204 27.704V34.9141C55.1204 35.4712 55.281 35.8045 56.0454 35.8639C56.1497 35.8715 56.3222 35.8665 56.3222 35.8665L56.3221 35.8667ZM48.2495 32.4439C48.2805 31.7379 48.5753 31.0121 49.3003 31.0121C50.1162 31.0121 50.2366 31.8944 50.2366 32.4439H48.2495ZM49.6972 35.8583C49.194 35.8583 48.8544 35.6937 48.6316 35.4543C48.3013 35.0987 48.1548 34.3675 48.1947 33.5901H52.1531V33.4088C52.1177 30.8259 51.2343 29.6492 49.3004 29.6492C47.142 29.6492 46.3013 31.6285 46.2856 33.4883C46.2722 34.6648 46.7173 35.8493 47.5312 36.5241C48.0269 36.9345 48.7143 37.162 49.511 37.162C49.945 37.162 50.3987 37.0976 50.8124 36.97C51.6065 36.7247 52.1925 36.3009 52.1925 36.3009L51.6749 35.2389C51.5816 35.3091 50.7889 35.8583 49.6972 35.8583ZM45.64 35.8733V37.0073C45.64 37.0073 45.3006 37.0745 44.9402 37.0745C43.4411 37.0745 42.5465 36.3529 42.5465 34.8273V28.0153L44.4285 27.714V29.7267H45.6395V31.0719H44.4285V34.9048C44.4285 35.4067 44.5839 35.8403 45.3732 35.8679C45.4799 35.8716 45.6201 35.8715 45.64 35.8733ZM34.3509 30.0213L36.1869 29.7227V37.0112H34.3509V30.0213ZM35.2877 26.8103C35.6071 26.8103 35.9026 26.9343 36.1197 27.1591C36.2253 27.2678 36.308 27.3967 36.3626 27.5379C36.4173 27.6792 36.4429 27.83 36.4379 27.9813C36.4379 28.6296 35.9256 29.1395 35.2714 29.1395C34.6184 29.1395 34.1053 28.6281 34.1053 27.9737C34.1053 27.3327 34.6359 26.8103 35.2877 26.8103ZM42.0518 29.8333L41.5337 30.9912C41.5337 30.9912 41.2379 30.8968 40.7823 30.9152C40.2895 30.9348 39.7712 31.1427 39.5272 31.3799V37.0164H37.6538L37.6552 31.0288C38.7706 29.8469 40.0082 29.6115 40.8145 29.6115C41.3712 29.6115 41.8505 29.7344 42.0518 29.8333ZM18.626 24V24.0203H18.4635V24.0405H18.2805V24.0608H18.118V24.0811H17.9757V24.1012H17.874V24.1215H17.7725V24.1417H17.6709V24.162H17.5693V24.1823H17.4677V24.2025H17.3662V24.2228H17.3053V24.2431H17.224V24.2633H17.1427V24.2836H17.0615V24.3037H17.0005V24.324H16.9193V24.3443H16.838V24.3645H16.7566V24.3848H16.6958V24.4051H16.6348V24.4253H16.5738V24.4456H16.5129V24.4659H16.4519V24.4861H16.391V24.5063H16.33V24.5265H16.2691V24.5468H16.2081V24.5671H16.1471V24.5873H16.0863V24.6076H16.0254V24.6279H15.9644V24.6481H15.9035V24.6684H15.8629V24.6887H15.8019V24.7088H15.7612V24.7291H15.7004V24.7493H15.6597V24.7696H15.5987V24.7899H15.5377V24.8101H15.4972V24.8304H15.4362V24.8507H15.3955V24.8709H15.3345V24.8912H15.294V24.9113H15.233V24.9316H15.1924V24.9519H15.1517V24.9721H15.1112V24.9924H15.0502V25.0127H15.0095V25.0329H14.9689V25.0532H14.9282V25.0735H14.8877V25.0937H14.8267V25.1139H14.786V25.1341H14.7453V25.1544H14.7048V25.1747H14.6642V25.1949H14.6032V25.2152H14.5625V25.2355H14.5218V25.2557H14.4813V25.276H14.4406V25.2963H14.4V25.3164H14.3593V25.3367H14.3188V25.3569H14.2781V25.3772H14.2375V25.3975H14.1968V25.4177H14.1561V25.438H14.1156V25.4583H14.075V25.4785H14.0343V25.4988H13.9936V25.5189H13.953V25.5392H13.9326V25.5595H13.8921V25.5797H13.8515V25.6H13.8108V25.6203H13.7701V25.6405H13.7295V25.6608H13.6889V25.6811H13.6686V25.7012H13.6279V25.7215H13.5873V25.7417H13.5466V25.762H13.5263V25.7823H13.4858V25.8025H13.4451V25.8228H13.4044V25.8431H13.3841V25.8633H13.3434V25.8836H13.3029V25.9037H13.2623V25.924H13.2216V25.9443H13.2013V25.9645H13.1606V25.9848H13.1199V26.0051H13.0794V26.0253H13.0591V26.0456H13.0184V26.0659H12.9981V26.0861H12.9574V26.1063H12.9371V26.1265H12.8966V26.1468H12.8559V26.1671H12.8356V26.1873H12.7949V26.2076H12.7746V26.2279H12.7339V26.2481H12.6934V26.2684H12.6731V26.2887H12.6324V26.3088H12.6121V26.3291H12.5714V26.3493H12.5511V26.3696H12.5105V26.3899H12.4699V26.4101H12.4495V26.4304H12.4089V26.4507H12.3886V26.4709H12.3479V26.4912H12.3276V26.5113H12.287V26.5316H12.2667V26.5519H12.2464V26.5721H12.2057V26.5924H12.1854V26.6127H12.1447V26.6329H12.1244V26.6532H12.0839V26.6735H12.0635V26.6937H12.0432V26.7139H12.0025V26.7341H11.9822V26.7544H11.9415V26.7747H11.9212V26.7949H11.8807V26.8152H11.8603V26.8355H11.84V26.8557H11.7994V26.876H11.779V26.8963H11.7384V26.9164H11.718V26.9367H11.6978V26.9569H11.6572V26.9772H11.6368V26.9975H11.6165V27.0177H11.5758V27.038H11.5555V27.0583H11.5352V27.0785H11.5149V27.0988H11.4743V27.1189H11.454V27.1392H11.4337V27.1595H11.393V27.1797H11.3727V27.2H11.3523V27.2203H11.332V27.2405H11.2915V27.2608H11.2712V27.2811H11.2508V27.3012H11.2102V27.3215H11.1898V27.3417H11.1695V27.362H11.1288V27.3823H11.1086V27.4025H11.0883V27.4228H11.068V27.4431H11.0476V27.4633H11.0273V27.4836H10.9867V27.5037H10.9663V27.524H10.946V27.5443H10.9257V27.5645H10.9055V27.5848H10.8851V27.6051H10.8445V27.6253H10.8241V27.6456H10.8038V27.6659H10.7835V27.6861H10.7631V27.7063H10.7428V27.7265H10.7023V27.7468H10.682V27.7671H10.6616V27.7873H10.6413V27.8076H10.621V27.8279H10.6006V27.8481H10.56V27.8684H10.5396V27.8887H10.5193V27.9088H10.4991V27.9291H10.4788V27.9493H10.4584V27.9696H10.4381V27.9899H10.4178V28.0101H10.3975V28.0304H10.3771V28.0507H10.3568V28.0709H10.3365V28.0912H10.3161V28.1113H10.2959V28.1316H10.2756V28.1519H10.2553V28.1721H10.2349V28.1924H10.2146V28.2127H10.1943V28.2329H10.1739V28.2532H10.1536V28.2735H10.113V28.2937H10.0928V28.3139H10.0724V28.3341H10.0521V28.3544H10.0318V28.3747H10.0114V28.3949H9.9911V28.4152H9.97077V28.4355H9.95044V28.4557H9.93011V28.476H9.90978V28.5164H9.88958V28.5367H9.86925V28.5569H9.84892V28.5772H9.82859V28.5975H9.80826V28.6177H9.78792V28.638H9.76759V28.6583H9.74726V28.6785H9.72693V28.6988H9.7066V28.7392H9.6864V28.7595H9.66607V28.7797H9.64574V28.8H9.62541V28.8203H9.60508V28.8405H9.58475V28.8608H9.56442V28.8811H9.54409V28.9012H9.52376V28.9417H9.50356V28.962H9.48323V28.9823H9.4629V29.0025H9.44256V29.0228H9.42223V29.0431H9.4019V29.0836H9.38157V29.1037H9.36124V29.124H9.34091V29.1645H9.32058V29.1848H9.30038V29.2051H9.28005V29.2253H9.25972V29.2659H9.23939V29.2861H9.21906V29.3063H9.19873V29.3468H9.1784V29.3671H9.15806V29.3873H9.13773V29.4076H9.1174V29.4481H9.09721V29.4684H9.07674V29.4887H9.05641V29.5291H9.03608V29.5493H9.01575V29.5696H8.99542V29.6101H8.97509V29.6304H8.95502V29.6709H8.93469V29.6912H8.91436V29.7113H8.89416V29.7519H8.87383V29.7721H8.85337V29.8127H8.83304V29.8329H8.81271V29.8735H8.79237V29.9139H8.77204V29.9341H8.75171V29.9747H8.73138V29.9949H8.71105V30.0355H8.69085V30.076H8.67052V30.0963H8.65006V30.1367H8.62973V30.1569H8.6094V30.1975H8.58906V30.238H8.56873V30.2785H8.5484V30.3189H8.52834V30.3392H8.50801V30.3797H8.48781V30.4203H8.46748V30.4608H8.44715V30.5012H8.42668V30.5417H8.40635V30.5823H8.38602V30.6228H8.36569V30.6633H8.34536V30.7037H8.32503V30.7645H8.3047V30.8051H8.2845V30.8456H8.26417V30.9063H8.24384V30.9468H8.22337V31.0076H8.20304V31.0684H8.18271V31.1088H8.16238V31.1899H8.14205V31.2507H8.12185V31.3113H8.10166V31.3924H8.08132V31.4937H8.06099V31.5747H8.04066V31.7164H8.02033V31.9595H8V32.1823H8.02033V32.3849H8.04066V32.4861H8.06099V32.5671H8.08132V32.6481H8.10152V32.7088H8.12185V32.7696H8.14218V32.8304H8.16251V32.8709H8.18285V32.9113H8.20318V32.9519H8.22351V32.9924H8.24384V33.0329H8.26417V33.0735H8.2845V33.1139H8.3047V33.1341H8.32503V33.1747H8.34536V33.1949H8.36569V33.2355H8.38602V33.2557H8.40635V33.2963H8.42668V33.3164H8.44701V33.3367H8.46735V33.3569H8.48768V33.3772H8.50787V33.3975H8.5282V33.4177H8.54854V33.438H8.56887V33.4583H8.5892V33.4785H8.60953V33.4988H8.62986V33.5189H8.65019V33.5392H8.67052V33.5595H8.69085V33.5797H8.71105V33.6H8.73138V33.6203H8.75171V33.6405H8.77204V33.6608H8.79237V33.6811H8.83304V33.7012H8.85337V33.7215H8.89403V33.7417H8.91423V33.762H8.95489V33.7823H8.97522V33.8025H9.01588V33.8228H9.03621V33.8431H9.07687V33.8633H9.09721V33.8836H9.13773V33.9037H9.15806V33.924H9.19873V33.9443H9.23939V33.9645H9.30038V33.9848H9.34091V34.0051H9.38157V34.0253H9.44256V34.0456H9.48323V34.0659H9.52376V34.0861H9.60508V34.1063H9.70673V34.1265H9.80826V34.1468H9.90991V34.1671H10.4178V34.1468H10.56V34.1265H10.682V34.1063H10.7631V34.0861H10.8445V34.0659H10.9055V34.0456H10.9663V34.0253H11.0476V34.0051H11.1086V33.9848H11.1492V33.9645H11.2102V33.9443H11.2508V33.924H11.2915V33.9037H11.3523V33.8836H11.393V33.8633H11.4337V33.8431H11.4743V33.8228H11.5149V33.8025H11.5555V33.7823H11.5962V33.762H11.6368V33.7417H11.6775V33.7215H11.718V33.7012H11.7587V33.6811H11.7994V33.6608H11.84V33.6405H11.8603V33.6203H11.901V33.6H11.9212V33.5797H11.9619V33.5595H12.0025V33.5392H12.0229V33.5189H12.0635V33.4988H12.1042V33.4785H12.1244V33.4583H12.165V33.438H12.1854V33.4177H12.226V33.3975H12.2464V33.3772H12.287V33.3569H12.3074V33.3367H12.3479V33.3164H12.3682V33.2963H12.4089V33.276H12.4292V33.2557H12.4699V33.2355H12.4902V33.2152H12.5307V33.1949H12.5511V33.1747H12.5714V33.1544H12.6121V33.1341H12.6324V33.1139H12.6527V33.0937H12.6934V33.0735H12.7137V33.0532H12.7542V33.0329H12.7746V33.0127H12.7949V32.9924H12.8356V32.9721H12.8559V32.9519H12.8762V32.9316H12.9168V32.9113H12.9371V32.8912H12.9574V32.8709H12.9981V32.8507H13.0184V32.8304H13.0387V32.8101H13.0794V32.7899H13.0997V32.7696H13.1199V32.7493H13.1606V32.7291H13.1809V32.7088H13.2013V32.6887H13.2216V32.6684H13.2623V32.6481H13.2826V32.6279H13.3029V32.6076H13.3434V32.5873H13.3638V32.5671H13.3841V32.5468H13.4248V32.5265H13.4451V32.5063H13.4654V32.4861H13.4858V32.4659H13.5263V32.4456H13.5466V32.4253H13.5669V32.4051H13.6076V32.3848H13.6279V32.3645H13.6483V32.3443H13.6889V32.324H13.7093V32.3037H13.7295V32.2836H13.7701V32.2633H13.7905V32.2431H13.8108V32.2228H13.8515V32.2025H13.8718V32.1823H13.8921V32.162H13.9326V32.1417H13.953V32.1215H13.9936V32.1012H14.014V32.0811H14.0343V32.0608H14.075V32.0405H14.0953V32.0203H14.1358V32H14.1561V31.9797H14.1968V31.9595H14.2171V31.9392H14.2578V31.9189H14.2781V31.8988H14.3188V31.8785H14.339V31.8583H14.3593V31.838H14.4V31.8177H14.4203V31.7975H14.461V31.7772H14.4813V31.7569H14.5218V31.7367H14.5422V31.7164H14.5828V31.6963H14.6032V31.676H14.6438V31.6557H14.6642V31.6355H14.7048V31.6152H14.725V31.5949H14.7657V31.5747H14.786V31.5544H14.8267V31.5341H14.847V31.5139H14.8877V31.4937H14.908V31.4735H14.9282V31.4532H14.9689V31.4329H14.9892V31.4127H15.0298V31.3924H15.0502V31.3721H15.0908V31.3519H15.1112V31.3316H15.1517V31.3113H15.172V31.2912H15.2127V31.2709H15.233V31.2507H15.2737V31.2304H15.294V31.2101H15.3345V31.1899H15.3549V31.1696H15.3955V31.1493H15.4159V31.1291H15.4565V31.1088H15.4769V31.0887H15.5175V31.0684H15.5377V31.0481H15.5784V31.0279H15.5987V31.0076H15.6394V30.9873H15.6597V30.9671H15.7004V30.9468H15.7207V30.9265H15.7612V30.9063H15.7816V30.8861H15.8222V30.8659H15.8426V30.8456H15.8832V30.8253H15.9035V30.8051H15.9441V30.7848H15.9644V30.7645H16.0051V30.7443H16.0254V30.724H16.0661V30.7037H16.1067V30.6836H16.1269V30.6633H16.1676V30.6431H16.1879V30.6228H16.2286V30.6025H16.2489V30.5823H16.2896V30.562H16.3099V30.5417H16.3504V30.5215H16.3708V30.5012H16.4114V30.4811H16.4521V30.4608H16.4724V30.4405H16.5131V30.4203H16.5333V30.4H16.5739V30.3797H16.6146V30.3595H16.6349V30.3392H16.6756V30.3189H16.6959V30.2988H16.7364V30.2785H16.7568V30.2583H16.7974V30.238H16.8381V30.2177H16.8584V30.1975H16.8991V30.1772H16.9396V30.1569H16.96V30.1367H17.0006V30.1164H17.0413V30.0963H17.0616V30.076H17.1023V30.0557H17.1428V30.0355H17.1631V30.0152H17.2038V29.9949H17.2445V29.9747H17.2648V29.9544H17.3054V29.9341H17.346V29.9139H17.3663V29.8937H17.407V29.8735H17.4476V29.8532H17.4883V29.8329H17.5086V29.8127H17.5492V29.7924H17.5898V29.7721H17.6305V29.7519H17.6508V29.7316H17.6915V29.7113H17.732V29.6912H17.7727V29.6709H17.8133V29.6507H17.8337V29.6304H17.8743V29.6101H17.915V29.5899H17.9555V29.5696H17.9962V29.5493H18.0368V29.5291H18.0775V29.5088H18.1182V29.4887H18.1587V29.4684H18.1993V29.4481H18.24V29.4279H18.2807V29.4076H18.3213V29.3873H18.3415V29.3671H18.4025V29.3468H18.4432V29.3265H18.4838V29.3063H18.5245V29.2861H18.565V29.2659H18.626V29.2456H18.6667V29.2253H18.7074V29.2051H18.7479V29.1848H18.7885V29.1645H18.8495V29.1443H18.8902V29.124H18.9511V29.1037H18.9917V29.0836H19.0527V29.0633H19.1137V29.0431H19.1542V29.0228H19.2152V29.0025H19.2559V28.9823H19.3169V28.962H19.3981V28.9417H19.4591V28.9215H19.5403V28.9012H19.6012V28.8811H19.6826V28.8608H19.7638V28.8405H19.8654V28.8203H19.9873V28.8H20.0889V28.7797H20.4343V28.7595H20.4749V28.7797H20.6578V28.8H20.8203V28.8203H20.8813V28.8405H20.9422V28.8608H21.0031V28.8811H21.0438V28.9012H21.1048V28.9215H21.1453V28.9417H21.186V28.962H21.2063V28.9823H21.247V29.0025H21.2876V29.0228H21.308V29.0431H21.3485V29.0633H21.3688V29.0836H21.4095V29.1037H21.4298V29.124H21.4502V29.1443H21.4705V29.1645H21.4908V29.1848H21.5112V29.2051H21.5315V29.2253H21.5517V29.2456H21.572V29.2659H21.5923V29.2861H21.6127V29.3063H21.633V29.3468H21.6533V29.3671H21.6737V29.3873H21.694V29.4279H21.7143V29.4481H21.7347V29.4887H21.7549V29.5088H21.7752V29.5493H21.7955V29.5899H21.8159V29.6101H21.8362V29.6507H21.8565V29.6912H21.8768V29.7316H21.8972V29.7721H21.9175V29.8329H21.9378V29.8735H21.958V29.9341H21.9784V29.9747H21.9987V30.0355H22.019V30.0963H22.0394V30.1772H22.0597V30.238H22.08V30.3189H22.1004V30.4405H22.1207V30.5419H22.141V30.7645H22.1612V31.2709H22.141V31.4329H22.1207V31.6152H22.1004V31.7165H22.08V31.8177H22.0597V31.8988H22.0394V32H22.019V32.0811H21.9987V32.162H21.9784V32.2228H21.958V32.2836H21.9378V32.3443H21.9175V32.4253H21.8972V32.4861H21.8768V32.5468H21.8565V32.6076H21.8362V32.6481H21.8159V32.7088H21.7955V32.7493H21.7752V32.8101H21.7549V32.8507H21.7347V32.9113H21.7143V32.9519H21.694V33.0127H21.6737V33.0532H21.6533V33.0937H21.633V33.1341H21.6127V33.1747H21.5923V33.2355H21.572V33.276H21.5517V33.3164H21.5315V33.3569H21.5112V33.3975H21.4908V33.4177H21.4705V33.4583H21.4502V33.4988H21.4298V33.5392H21.4095V33.5797H21.3892V33.6H21.3688V33.6405H21.3485V33.6811H21.3283V33.7012H21.308V33.7417H21.2876V33.7823H21.2673V33.8025H21.247V33.8431H21.2267V33.8836H21.2063V33.9037H21.186V33.9443H21.1657V33.9645H21.1453V34.0051H21.1251V34.0253H21.1048V34.0659H21.0845V34.0861H21.0641V34.1265H21.0438V34.1468H21.0235V34.1873H21.0031V34.2076H20.9828V34.2481H20.9625V34.2684H20.9422V34.2887H20.922V34.3291H20.9016V34.3493H20.8813V34.3696H20.861V34.4101H20.8406V34.4304H20.8203V34.4507H20.8V34.4912H20.7796V34.5113H20.7593V34.5519H20.7391V34.5721H20.7188V34.5924H20.6985V34.6127H20.6781V34.6532H20.6578V34.6735H20.6375V34.6937H20.6171V34.7139H20.5968V34.7544H20.5765V34.7747H20.5561V34.7949H20.5359V34.8152H20.5156V34.8557H20.4953V34.876H20.4749V34.8963H20.4546V34.9164H20.4343V34.9367H20.4139V34.9772H20.3936V34.9975H20.3733V35.0177H20.353V35.038H20.3328V35.0583H20.3124V35.0988H20.2921V35.1189H20.2718V35.1392H20.2514V35.1595H20.2311V35.1797H20.2108V35.2H20.1904V35.2203H20.1701V35.2405H20.1498V35.2811H20.1296V35.3012H20.1093V35.3215H20.0889V35.3417H20.0686V35.362H20.0483V35.3823H20.0279V35.4025H20.0076V35.4228H19.9873V35.4431H19.9669V35.4836H19.9466V35.5037H19.9264V35.524H19.9061V35.5443H19.8857V35.5645H19.8654V35.5848H19.8451V35.6051H19.8248V35.6253H19.8044V35.6456H19.7841V35.6659H19.7638V35.6861H19.7434V35.7063H19.7232V35.7265H19.7029V35.7468H19.6826V35.7671H19.6622V35.7873H19.6419V35.8076H19.6216V35.8279H19.6012V35.8481H19.5809V35.8684H19.5606V35.8887H19.5403V35.9088H19.5201V35.9291H19.4997V35.9493H19.4794V35.9696H19.4591V35.9899H19.4387V36.0101H19.4184V36.0304H19.3981V36.0507H19.3777V36.0709H19.3574V36.0912H19.3371V36.1113H19.3169V36.1316H19.2965V36.1519H19.2762V36.1721H19.2559V36.1924H19.2356V36.2127H19.2152V36.2329H19.1949V36.2532H19.1746V36.2735H19.1542V36.2937H19.134V36.3139H19.1137V36.3341H19.073V36.3544H19.0527V36.3747H19.0324V36.3949H19.012V36.4152H18.9917V36.4355H18.9714V36.4557H18.9511V36.476H18.9309V36.4963H18.9105V36.5164H18.8902V36.5367H18.8495V36.5569H18.8292V36.5772H18.8089V36.5975H18.7885V36.6177H18.7682V36.638H18.7479V36.6583H18.7277V36.6785H18.7074V36.6988H18.6667V36.7189H18.6464V36.7392H18.626V36.7595H18.6057V36.7797H18.5854V36.8H18.565V36.8203H18.5447V36.8405H18.5042V36.8608H18.4838V36.8811H18.4635V36.9012H18.4432V36.9215H18.4229V36.9417H18.3822V36.962H18.3619V36.9823H18.3415V37.0025H18.3213V37.0228H18.301V37.0431H18.2603V37.0633H18.24V37.0836H18.2197V37.1037H18.1993V37.124H18.179V37.1443H18.1383V37.1645H18.1182V37.1848H18.0978V37.2051H18.0775V37.2253H18.0368V37.2456H18.0165V37.2659H17.9962V37.2861H17.9758V37.3063H17.9352V37.3265H17.915V37.3468H17.8946V37.3671H17.8743V37.3873H17.8337V37.4076H17.8133V37.4279H17.793V37.4481H17.7727V37.4684H17.732V37.4887H17.7118V37.5088H17.6915V37.5291H17.6508V37.5493H17.6305V37.5696H17.6101V37.5899H17.5695V37.6101H17.5492V37.6304H17.529V37.6507H17.4883V37.6709H17.468V37.6912H17.4476V37.7113H17.407V37.7316H17.3866V37.7519H17.3663V37.7721H17.3258V37.7924H17.3054V37.8127H17.2851V37.8329H17.2445V37.8532H17.2241V37.8735H17.1835V37.8937H17.1631V37.9139H17.1428V37.9341H17.1023V37.9544H17.0819V37.9747H17.0413V37.9949H17.0209V38.0152H16.9803V38.0355H16.96V38.0557H16.9396V38.076H16.8991V38.0963H16.8788V38.1164H16.8381V38.1367H16.8178V38.1569H16.7771V38.1772H16.7568V38.1975H16.7162V38.2177H16.6959V38.238H16.6553V38.2583H16.6349V38.2785H16.5943V38.2988H16.5739V38.3189H16.5333V38.3392H16.5131V38.3595H16.4724V38.3797H16.4317V38.4H16.4114V38.4203H16.3708V38.4405H16.3504V38.4608H16.3099V38.4811H16.2692V38.5012H16.2489V38.5215H16.2082V38.5417H16.1879V38.562H16.1472V38.5823H16.1067V38.6025H16.0661V38.6228H16.0457V38.6431H16.0051V38.6633H15.9644V38.6836H15.9441V38.7037H15.9035V38.724H15.8629V38.7443H15.8222V38.7645H15.8019V38.7848H15.7612V38.8051H15.7207V38.8253H15.68V38.8456H15.6394V38.8659H15.5987V38.8861H15.5784V38.9063H15.5377V38.9265H15.4972V38.9468H15.4565V38.9671H15.4159V38.9873H15.3752V39.0076H15.3345V39.0279H15.294V39.0481H15.2534V39.0684H15.1924V39.0887H15.1517V39.1088H15.1112V39.1291H15.0705V39.1493H15.0298V39.1696H14.9689V39.1899H14.9282V39.2101H14.8673V39.2304H14.8267V39.2507H14.7657V39.2709H14.7048V39.2912H14.6642V39.3113H14.5828V39.3316H14.5218V39.3519H14.461V39.3721H14.3797V39.3924H14.278V39.4127H14.1358V39.4329H13.9326V39.4127H13.8515V39.3924H13.7905V39.3721H13.7498V39.3519H13.7093V39.3316H13.6889V39.3113H13.6686V39.2912H13.6483V39.2709H13.6279V39.2304H13.6076V39.1899H13.5873V39.1493H13.5669V39.0887H13.5466V38.886H13.5669V38.7848H13.5873V38.724H13.6076V38.6633H13.6279V38.6228H13.6483V38.5823H13.6686V38.5417H13.6889V38.5012H13.7093V38.4608H13.7295V38.4203H13.7498V38.4H13.7701V38.3595H13.7905V38.3189H13.8108V38.2988H13.8311V38.2583H13.8515V38.238H13.8718V38.1975H13.8921V38.1772H13.9124V38.1367H13.9326V38.1164H13.953V38.0963H13.9733V38.0557H13.9936V38.0355H14.014V38.0152H14.0343V37.9747H14.0546V37.9544H14.075V37.9341H14.0953V37.8937H14.1156V37.8735H14.1358V37.8532H14.1561V37.8329H14.1765V37.8127H14.1968V37.7721H14.2171V37.7519H14.2375V37.7316H14.2578V37.7113H14.2781V37.6912H14.2985V37.6709H14.3188V37.6304H14.339V37.6101H14.3593V37.5899H14.3797V37.5696H14.4V37.5493H14.4203V37.5291H14.4406V37.5088H14.461V37.4887H14.4813V37.4684H14.5016V37.4481H14.5218V37.4076H14.5422V37.3873H14.5625V37.3671H14.5828V37.3468H14.6032V37.3265H14.6235V37.3063H14.6438V37.2861H14.6642V37.2659H14.6845V37.2456H14.7048V37.2253H14.725V37.2051H14.7453V37.1848H14.7657V37.1645H14.786V37.1443H14.8063V37.124H14.8267V37.1037H14.847V37.0836H14.8673V37.0633H14.8877V37.0431H14.908V37.0228H14.9282V37.0025H14.9485V36.9823H14.9689V36.962H14.9892V36.9417H15.0095V36.9215H15.0298V36.9012H15.0502V36.8811H15.0705V36.8608H15.0908V36.8405H15.1112V36.8203H15.1314V36.8H15.1517V36.7797H15.172V36.7595H15.1924V36.7392H15.2127V36.7189H15.233V36.6988H15.2534V36.6785H15.2737V36.6583H15.294V36.638H15.3143V36.6177H15.3345V36.5975H15.3549V36.5772H15.3752V36.5569H15.3955V36.5367H15.4159V36.5164H15.4362V36.4963H15.4565V36.476H15.4769V36.4557H15.4972V36.4355H15.5175V36.4152H15.5377V36.3949H15.5581V36.3747H15.5784V36.3544H15.5987V36.3341H15.6394V36.3139H15.6597V36.2735H15.68V36.2532H15.7004V36.2329H15.7207V36.2127H15.7409V36.1924H15.7612V36.1721H15.7816V36.1519H15.8019V36.1316H15.8222V36.1113H15.8426V36.0912H15.8629V36.0709H15.8832V36.0304H15.9035V36.0101H15.9239V35.9899H15.9441V35.9696H15.9644V35.9493H15.9847V35.9291H16.0051V35.8887H16.0254V35.8684H16.0457V35.8481H16.0661V35.8076H16.0864V35.7873H16.1067V35.7671H16.1269V35.7468H16.1472V35.7063H16.1676V35.6861H16.1879V35.6456H16.2082V35.6253H16.2286V35.5848H16.2489V35.5443H16.2692V35.524H16.2896V35.4836H16.3099V35.4431H16.3301V35.4228H16.3504V35.362H16.3708V35.3012H16.3911V35.2405H16.4114V35.2H16.4317V34.8963H16.4114V34.8152H16.3911V34.7544H16.3708V34.7341H16.3504V34.6937H16.3301V34.6735H16.3099V34.6329H16.2896V34.6127H16.2692V34.5924H16.2489V34.5721H16.2286V34.5519H16.2082V34.5316H16.1879V34.5113H16.1676V34.4912H16.1472V34.4709H16.1067V34.4507H16.0864V34.4304H16.0457V34.4101H16.0254V34.3899H15.9847V34.3696H15.9441V34.3493H15.9035V34.3291H15.8629V34.3088H15.8019V34.2887H15.7409V34.2684H15.7004V34.2481H15.6394V34.2279H15.5377V34.2076H15.4565V34.1873H15.3345V34.1671H15.1517V34.1468H15.1314V34.1671H14.7657V34.1873H14.6438V34.2076H14.5422V34.2279H14.4813V34.2481H14.4203V34.2684H14.339V34.2887H14.2781V34.3088H14.2375V34.3291H14.1968V34.3493H14.1561V34.3696H14.0953V34.3899H14.0546V34.4101H14.014V34.4304H13.9733V34.4507H13.9326V34.4709H13.9124V34.4912H13.8718V34.5113H13.8515V34.5316H13.8108V34.5519H13.7905V34.5721H13.7498V34.5924H13.7295V34.6127H13.7093V34.6329H13.6686V34.6532H13.6483V34.6735H13.6076V34.6937H13.5873V34.7139H13.5669V34.7341H13.5466V34.7544H13.5263V34.7747H13.5061V34.7949H13.4654V34.8152H13.4451V34.8355H13.4248V34.8557H13.4044V34.876H13.3841V34.8963H13.3638V34.9164H13.3434V34.9367H13.3231V34.9569H13.3029V34.9772H13.2826V34.9975H13.2623V35.0177H13.2419V35.038H13.2216V35.0583H13.2013V35.0785H13.1809V35.0988H13.1606V35.1392H13.1403V35.1595H13.1199V35.1797H13.0997V35.2H13.0794V35.2203H13.0591V35.2608H13.0387V35.2811H13.0184V35.3012H12.9981V35.3215H12.9778V35.3417H12.9574V35.362H12.9371V35.4025H12.9168V35.4228H12.8966V35.4633H12.8762V35.4836H12.8559V35.524H12.8356V35.5443H12.8152V35.5848H12.7949V35.6051H12.7746V35.6456H12.7542V35.6659H12.7339V35.7063H12.7137V35.7265H12.6934V35.7671H12.6731V35.7873H12.6527V35.8279H12.6324V35.8481H12.6121V35.8887H12.5917V35.9291H12.5714V35.9696H12.5511V36.0101H12.5307V36.0507H12.5105V36.0912H12.4902V36.1316H12.4699V36.1519H12.4495V36.1924H12.4292V36.2329H12.4089V36.2735H12.3886V36.3139H12.3682V36.3544H12.3479V36.3949H12.3276V36.4355H12.3074V36.476H12.287V36.5164H12.2667V36.5772H12.2464V36.6177H12.226V36.6583H12.2057V36.7189H12.1854V36.7595H12.165V36.8H12.1447V36.8608H12.1244V36.9012H12.1042V36.9417H12.0839V37.0025H12.0635V37.0431H12.0432V37.1037H12.0229V37.1645H12.0025V37.2253H11.9822V37.2861H11.9619V37.3671H11.9415V37.4279H11.9212V37.4887H11.901V37.5696H11.8807V37.7113H11.8603V37.8532H11.84V38.0152H11.8197V38.0355H11.84V38.4405H11.8603V38.5215H11.8807V38.6025H11.901V38.7039H11.9212V38.7848H11.9415V38.8253H11.9619V38.8659H11.9822V38.9265H12.0025V38.9671H12.0229V39.0076H12.0432V39.0481H12.0635V39.0887H12.0839V39.1291H12.1042V39.1493H12.1244V39.1899H12.1447V39.2101H12.165V39.2507H12.1854V39.2709H12.2057V39.2912H12.226V39.3316H12.2464V39.3519H12.2667V39.3721H12.287V39.4127H12.3276V39.4329H12.3479V39.4532H12.3682V39.4735H12.3886V39.4937H12.4089V39.5139H12.4292V39.5341H12.4495V39.5544H12.4699V39.5747H12.4902V39.5949H12.5105V39.6152H12.5307V39.6355H12.5714V39.6557H12.5917V39.676H12.6324V39.6963H12.6527V39.7164H12.6934V39.7367H12.7137V39.7569H12.7542V39.7772H12.7746V39.7975H12.8152V39.8177H12.8559V39.838H12.8966V39.8583H12.9371V39.8785H12.9981V39.8988H13.0591V39.9189H13.1199V39.9392H13.2216V39.9595H13.3434V39.9797H13.5468V40H13.8718V39.9797H14.1156V39.9595H14.2578V39.9392H14.3797V39.9189H14.4813V39.8988H14.583V39.8785H14.6642V39.8583H14.7453V39.838H14.8267V39.8177H14.8877V39.7975H14.9485V39.7772H15.0298V39.7569H15.0908V39.7367H15.1517V39.7164H15.2127V39.6963H15.2737V39.676H15.3143V39.6557H15.3752V39.6355H15.4362V39.6152H15.4769V39.5949H15.5377V39.5747H15.5784V39.5544H15.6394V39.5341H15.68V39.5139H15.7409V39.4937H15.7816V39.4735H15.8222V39.4532H15.8629V39.4329H15.9239V39.4127H15.9644V39.3924H16.0051V39.3721H16.0457V39.3519H16.0864V39.3316H16.1269V39.3113H16.1676V39.2912H16.2286V39.2709H16.2692V39.2507H16.3099V39.2304H16.3504V39.2101H16.3911V39.1899H16.4114V39.1696H16.4521V39.1493H16.4927V39.1291H16.5333V39.1088H16.5739V39.0887H16.6146V39.0684H16.6553V39.0481H16.6959V39.0279H16.7162V39.0076H16.7568V38.9873H16.7974V38.9671H16.8381V38.9468H16.8788V38.9265H16.8991V38.9063H16.9396V38.8861H16.9803V38.8659H17.0209V38.8456H17.0413V38.8253H17.0819V38.8051H17.1226V38.7848H17.1428V38.7645H17.1835V38.7443H17.2241V38.724H17.2445V38.7037H17.2851V38.6836H17.3258V38.6633H17.346V38.6431H17.3866V38.6228H17.407V38.6025H17.4476V38.5823H17.4883V38.562H17.5086V38.5417H17.5492V38.5215H17.5695V38.5012H17.6101V38.4811H17.6508V38.4608H17.6711V38.4405H17.7118V38.4203H17.732V38.4H17.7727V38.3797H17.793V38.3595H17.8337V38.3392H17.854V38.3189H17.8946V38.2988H17.915V38.2785H17.9555V38.2583H17.9758V38.238H18.0165V38.2177H18.0368V38.1975H18.0775V38.1772H18.0978V38.1569H18.1182V38.1367H18.1587V38.1164H18.179V38.0963H18.2197V38.076H18.24V38.0557H18.2807V38.0355H18.301V38.0152H18.3415V37.9949H18.3619V37.9747H18.3822V37.9544H18.4229V37.9341H18.4432V37.9139H18.4635V37.8937H18.5042V37.8735H18.5245V37.8532H18.565V37.8329H18.5854V37.8127H18.6057V37.7924H18.6464V37.7721H18.6667V37.7519H18.687V37.7316H18.7277V37.7113H18.7479V37.6912H18.7885V37.6709H18.8089V37.6507H18.8292V37.6304H18.8699V37.6101H18.8902V37.5899H18.9105V37.5696H18.9511V37.5493H18.9714V37.5291H18.9917V37.5088H19.012V37.4887H19.0527V37.4684H19.073V37.4481H19.0934V37.4279H19.134V37.4076H19.1542V37.3873H19.1746V37.3671H19.2152V37.3468H19.2356V37.3265H19.2559V37.3063H19.2762V37.2861H19.3169V37.2659H19.3371V37.2456H19.3574V37.2253H19.3981V37.2051H19.4184V37.1848H19.4387V37.1645H19.4591V37.1443H19.4997V37.124H19.5201V37.1037H19.5403V37.0836H19.5606V37.0633H19.6012V37.0431H19.6216V37.0228H19.6419V37.0025H19.6622V36.9823H19.7029V36.962H19.7232V36.9417H19.7434V36.9215H19.7638V36.9012H19.7841V36.8811H19.8248V36.8608H19.8451V36.8405H19.8654V36.8203H19.8857V36.8H19.9264V36.7797H19.9466V36.7595H19.9669V36.7392H19.9873V36.7189H20.0076V36.6988H20.0483V36.6785H20.0686V36.6583H20.0889V36.638H20.1093V36.6177H20.1296V36.5975H20.1701V36.5772H20.1904V36.5569H20.2108V36.5367H20.2311V36.5164H20.2514V36.4963H20.2718V36.476H20.3124V36.4557H20.3328V36.4355H20.353V36.4152H20.3733V36.3949H20.3936V36.3747H20.4139V36.3544H20.4546V36.3341H20.4749V36.3139H20.4953V36.2937H20.5156V36.2735H20.5359V36.2532H20.5561V36.2329H20.5765V36.2127H20.6171V36.1924H20.6375V36.1721H20.6578V36.1519H20.6781V36.1316H20.6985V36.1113H20.7188V36.0912H20.7391V36.0709H20.7593V36.0507H20.7796V36.0304H20.8203V36.0101H20.8406V35.9899H20.861V35.9696H20.8813V35.9493H20.9016V35.9291H20.922V35.9088H20.9422V35.8887H20.9625V35.8684H20.9828V35.8481H21.0031V35.8279H21.0235V35.8076H21.0438V35.7873H21.0641V35.7671H21.0845V35.7468H21.1048V35.7265H21.1251V35.7063H21.1453V35.6861H21.1657V35.6659H21.186V35.6456H21.2063V35.6253H21.2267V35.6051H21.247V35.5848H21.2673V35.5645H21.2876V35.5443H21.308V35.524H21.3283V35.5037H21.3485V35.4836H21.3688V35.4633H21.3892V35.4431H21.4095V35.4228H21.4298V35.4025H21.4502V35.3823H21.4705V35.362H21.4908V35.3417H21.5112V35.3215H21.5315V35.3012H21.5517V35.2608H21.572V35.2405H21.5923V35.2203H21.6127V35.2H21.633V35.1797H21.6533V35.1595H21.6737V35.1392H21.694V35.1189H21.7143V35.0988H21.7347V35.0785H21.7549V35.038H21.7752V35.0177H21.7955V34.9975H21.8159V34.9772H21.8362V34.9569H21.8565V34.9367H21.8768V34.8963H21.8972V34.876H21.9175V34.8557H21.9378V34.8355H21.958V34.8152H21.9784V34.7949H21.9987V34.7544H22.019V34.7341H22.0394V34.7139H22.0597V34.6937H22.08V34.6735H22.1004V34.6329H22.1207V34.6127H22.141V34.5924H22.1612V34.5519H22.1815V34.5316H22.2019V34.5113H22.2222V34.4912H22.2425V34.4507H22.2629V34.4304H22.2832V34.4101H22.3035V34.3899H22.3239V34.3493H22.3442V34.3291H22.3644V34.3088H22.3847V34.2684H22.4051V34.2481H22.4254V34.2279H22.4457V34.1873H22.466V34.1671H22.4864V34.1468H22.5067V34.1063H22.527V34.0861H22.5472V34.0456H22.5676V34.0253H22.5879V34.0051H22.6082V33.9645H22.6286V33.9443H22.6489V33.9037H22.6692V33.8836H22.6896V33.8633H22.7099V33.8228H22.7302V33.8025H22.7504V33.762H22.7707V33.7417H22.7911V33.7012H22.8114V33.6811H22.8317V33.6405H22.8521V33.6203H22.8724V33.5797H22.8927V33.5595H22.9131V33.5189H22.9334V33.4988H22.9536V33.4583H22.9739V33.4177H22.9942V33.3975H23.0146V33.3569H23.0349V33.3367H23.0552V33.2963H23.0756V33.2557H23.0959V33.2355H23.1162V33.1949H23.1366V33.1544H23.1568V33.1341H23.1771V33.0937H23.1974V33.0532H23.2178V33.0329H23.2381V32.9924H23.2584V32.9519H23.2787V32.9113H23.2991V32.8912H23.3194V32.8507H23.3397V32.8101H23.3599V32.7696H23.3803V32.7291H23.4006V32.6887H23.4209V32.6481H23.4413V32.6279H23.4616V32.5873H23.4819V32.5468H23.5023V32.5063H23.5226V32.4659H23.5429V32.4253H23.5631V32.3848H23.5834V32.3443H23.6038V32.3037H23.6241V32.2633H23.6444V32.2025H23.6648V32.162H23.6851V32.1215H23.7054V32.0811H23.7258V32.0405H23.7461V32H23.7663V31.9595H23.7866V31.8988H23.807V31.8583H23.8273V31.7975H23.8476V31.7569H23.8679V31.6963H23.8883V31.6557H23.9086V31.5949H23.9289V31.5544H23.9493V31.4937H23.9695V31.4532H23.9898V31.3924H24.0101V31.3316H24.0305V31.2709H24.0508V31.2101H24.0711V31.1493H24.0915V31.0887H24.1118V31.0279H24.1321V30.9671H24.1523V30.9063H24.1726V30.8253H24.193V30.7443H24.2133V30.6836H24.2336V30.6025H24.254V30.5215H24.2743V30.4405H24.2946V30.3392H24.315V30.2379H24.3353V30.1367H24.3555V30.0353H24.3758V29.914H24.3962V29.7519H24.4165V29.5899H24.4368V29.3265H24.4571V28.6988H24.4368V28.3139H24.4165V28.152H24.3962V28.0305H24.3758V27.9089H24.3555V27.7876H24.3353V27.666H24.315V27.5647H24.2946V27.5039H24.2743V27.4432H24.254V27.3621H24.2336V27.3013H24.2133V27.2407H24.193V27.1596H24.1726V27.0989H24.1523V27.0381H24.1321V26.9773H24.1118V26.9368H24.0915V26.8964H24.0711V26.8356H24.0508V26.7951H24.0305V26.7545H24.0101V26.714H23.9898V26.6533H23.9695V26.6128H23.9493V26.5723H23.9289V26.5317H23.9086V26.4913H23.8883V26.4508H23.8679V26.4103H23.8476V26.39H23.8273V26.3495H23.807V26.3292H23.7866V26.2888H23.7663V26.2483H23.7461V26.228H23.7258V26.1875H23.7054V26.1469H23.6851V26.1267H23.6648V26.0863H23.6444V26.066H23.6241V26.0255H23.6038V26.0052H23.5834V25.9849H23.5631V25.9444H23.5429V25.9241H23.5226V25.9039H23.5023V25.8837H23.4819V25.8432H23.4616V25.8229H23.4413V25.8027H23.4209V25.7824H23.4006V25.7419H23.3803V25.7216H23.3599V25.7013H23.3397V25.6812H23.3194V25.6609H23.2991V25.6204H23.2787V25.6H23.2584V25.5797H23.2381V25.5595H23.2178V25.5392H23.1974V25.5189H23.1771V25.4988H23.1366V25.4785H23.1162V25.4583H23.0959V25.438H23.0756V25.4177H23.0552V25.3975H23.0349V25.3772H23.0146V25.3569H22.9942V25.3367H22.9739V25.3164H22.9536V25.2963H22.9334V25.276H22.9131V25.2557H22.8927V25.2355H22.8521V25.2152H22.8317V25.1949H22.8114V25.1747H22.7707V25.1544H22.7504V25.1341H22.7302V25.1139H22.6896V25.0937H22.6692V25.0733H22.6489V25.0531H22.6082V25.0328H22.5879V25.0125H22.5676V24.9923H22.5472V24.972H22.5067V24.952H22.466V24.9317H22.4457V24.9115H22.4051V24.8913H22.3644V24.8711H22.3442V24.8507H22.3035V24.8304H22.2832V24.8101H22.2425V24.7899H22.2019V24.7696H22.1815V24.7493H22.141V24.7291H22.1004V24.7088H22.0597V24.6887H22.019V24.6684H21.9784V24.648H21.9378V24.6277H21.8972V24.6075H21.8565V24.5872H21.8159V24.5669H21.7752V24.5467H21.7347V24.5267H21.694V24.5064H21.633V24.4863H21.5923V24.466H21.5315V24.4457H21.4908V24.4253H21.4298V24.4051H21.3688V24.3848H21.3283V24.3645H21.2673V24.3443H21.2063V24.324H21.1453V24.3037H21.0845V24.2836H21.0031V24.2633H20.9422V24.2431H20.8813V24.2227H20.8V24.2024H20.7188V24.1821H20.6375V24.1619H20.5358V24.1416H20.4546V24.1215H20.353V24.1013H20.2311V24.0811H20.1093V24.0608H19.9873V24.0405H19.8044V24.0203H19.6216V24H18.626Z" fill="#E20010"/>
</svg>
