<svg width="278" height="331" viewBox="0 0 278 331" fill="none" xmlns="http://www.w3.org/2000/svg">
<g opacity="0.15">
<path d="M186.797 48.9286C183.506 51.2131 174.659 52.7477 174.652 52.7477C174.645 52.7477 175.409 46.6094 175.506 46.2275C176.645 41.8043 181.436 33.9232 186.547 33.6107C190.22 33.3885 192.921 36.5826 192.796 40.117C192.671 43.6514 189.602 46.9636 186.797 48.9286Z" fill="black"/>
<path d="M162.432 160.244C162.432 160.452 162.432 160.647 162.432 160.855L159.377 162.806C159.377 161.973 159.377 161.133 159.377 160.258C159.377 157.8 159.425 155.168 159.495 152.467C156.96 151.994 154.456 151.37 151.996 150.599C149.975 153.884 144.038 158.439 143.267 159.022C144.594 161.05 145.913 163.001 147.177 164.834C148.052 166.091 148.899 167.292 149.718 168.452L146.392 169.104C145.823 168.271 145.253 167.417 144.67 166.528C143.281 164.48 141.892 162.258 140.469 159.966C139.566 160.348 132.136 163.438 128.387 163.334C124.977 163.244 120.658 162.174 118.561 159.237C116.464 156.3 117.02 152.21 120.221 150.384C124.665 147.843 132.991 151.814 136.358 154.897C136.56 155.078 138.497 157.293 139.698 158.71C139.122 157.772 138.546 156.862 137.962 155.89C136.796 153.967 135.692 152.016 134.49 149.926L132.838 146.801C132.268 145.766 131.796 144.607 131.262 143.496C130.074 140.906 129.005 138.225 127.984 135.504C126.304 136.524 120.27 140.052 116.874 140.475C113.479 140.899 109.062 140.475 106.542 137.913C104.021 135.351 103.952 131.198 106.84 128.886C110.847 125.706 119.679 128.372 123.505 130.907C123.748 131.06 126.283 133.191 127.63 134.379C127.026 132.733 126.422 131.094 125.866 129.414C124.269 124.553 122.804 119.595 121.318 114.651C120.855 113.138 120.392 111.629 119.929 110.124C119.339 110.492 112.291 114.846 108.451 115.318C105.063 115.749 100.633 115.318 98.1191 112.756C95.6054 110.194 95.5291 106.041 98.4177 103.729C102.424 100.549 111.257 103.215 115.083 105.75C115.367 105.944 118.992 109.006 119.874 109.832C118.846 106.506 117.791 103.208 116.624 100C115.041 95.678 113.179 91.4635 111.048 87.3833C110.771 87.55 103.41 92.1259 99.5078 92.612C96.1193 93.0356 91.6892 92.612 89.1686 90.0497C86.648 87.4875 86.5786 83.3351 89.4672 81.0229C93.4737 77.8426 102.306 80.509 106.132 83.0435C106.424 83.2449 110.298 86.5154 110.993 87.2097C110.875 86.9737 110.771 86.7167 110.646 86.5154C108.414 82.4595 105.828 78.6092 102.917 75.0096C101.341 72.9959 99.7161 71.1697 98.0566 69.4546C96.772 70.4475 90.8559 74.9193 87.391 75.7456C84.0719 76.5372 79.6209 76.6275 76.8365 74.3569C74.052 72.0863 73.5243 67.9686 76.1421 65.3786C79.7806 61.7748 88.8492 63.4552 92.9043 65.5591C93.1265 65.6702 95.2374 67.0798 96.765 68.1283C96.0221 67.3506 95.2652 66.5382 94.543 65.8091C91.8142 63.0316 89.1547 60.7124 86.7799 58.6501C85.3912 57.4905 84.1691 56.4698 82.9817 55.5254C81.218 55.8379 74.0729 57.0253 70.6774 56.1781C67.2819 55.331 63.3795 53.4006 61.963 50.0607C60.5465 46.7207 61.963 42.867 65.4904 41.7699C70.351 40.2492 77.6489 45.9361 80.2806 49.651C80.5097 49.9774 83.4817 55.4282 83.3914 55.449H83.2872C84.4399 56.3309 85.6689 57.2961 86.9952 58.3793C89.4186 60.393 92.1405 62.6844 94.9319 65.3855C97.9747 68.2597 100.845 71.311 103.528 74.5235C106.559 78.0998 109.261 81.9413 111.604 86.0015L111.68 86.1543C111.361 84.6892 110.618 80.5646 110.597 80.2382C110.298 75.6831 112.395 66.6979 117.152 64.8092C120.575 63.4205 124.137 65.6425 125.102 69.0449C126.068 72.4473 124.241 76.4817 122.158 79.2036C119.839 82.2797 112.507 86.2515 111.923 86.5709C114.205 90.7587 116.205 95.0943 117.909 99.5488C118.916 102.139 119.853 104.784 120.756 107.444C120.527 106.166 120.325 105.02 120.318 104.861C120.02 100.306 122.117 91.3204 126.873 89.4317C130.296 88.043 133.859 90.265 134.824 93.6674C135.789 97.0699 133.963 101.181 131.88 103.903C129.796 106.624 123.61 110.152 121.957 111.089C122.297 112.117 122.651 113.131 122.978 114.158C124.568 119.075 126.137 123.991 127.838 128.74C128.429 130.421 129.074 132.052 129.72 133.691C129.512 132.559 129.352 131.608 129.338 131.455C129.04 126.9 131.137 117.915 135.893 116.026C139.316 114.672 142.878 116.86 143.844 120.262C144.809 123.664 142.99 127.803 140.906 130.525C138.823 133.247 133.268 136.462 131.282 137.545C131.977 139.205 132.671 140.864 133.456 142.406C133.997 143.468 134.449 144.53 135.053 145.572C135.657 146.613 136.206 147.655 136.768 148.662C137.935 150.585 139.122 152.578 140.302 154.425C141.115 155.717 141.913 156.932 142.712 158.161C142.101 156.488 140.969 153.203 140.906 152.911C140.191 148.966 140.495 144.903 141.788 141.107C141.689 140.669 141.631 140.223 141.615 139.774C141.49 136.246 144.205 133.066 147.864 133.309C152.968 133.643 157.717 141.552 158.828 145.982C158.898 146.239 159.293 149.155 159.523 150.995C159.564 149.898 159.585 148.822 159.634 147.69C159.724 145.447 159.87 143.204 160.023 140.795C160.141 139.635 160.259 138.462 160.377 137.281C160.495 136.101 160.717 134.872 160.877 133.656C161.321 130.879 161.904 128.018 162.557 125.178C160.592 125.102 153.614 124.72 150.544 123.199C147.475 121.679 144.01 118.901 143.337 115.36C142.663 111.818 144.885 108.326 148.552 108.013C153.648 107.569 159.55 114.665 161.321 118.873C161.432 119.137 162.363 122.303 162.842 124.046C163.244 122.345 163.64 120.644 164.106 118.943C165.453 114.006 166.966 109.062 168.452 104.118C168.911 102.604 169.348 101.09 169.792 99.5696C169.098 99.5696 160.766 99.278 157.349 97.5698C154.294 96.0561 150.815 93.2786 150.142 89.7303C149.468 86.1821 151.69 82.7032 155.363 82.3838C160.453 81.9464 166.355 89.0359 168.126 93.2508C168.258 93.5633 169.591 98.1114 169.876 99.2988C170.848 95.9589 171.792 92.6259 172.584 89.3067C173.681 84.8251 174.483 80.2765 174.986 75.6901C174.66 75.6901 165.959 75.4331 162.488 73.6833C159.425 72.1696 155.954 69.3921 155.28 65.8438C154.606 62.2956 156.822 58.8168 160.495 58.4973C165.591 58.0599 171.487 65.1495 173.257 69.3643C173.403 69.6907 174.834 74.593 175.028 75.5026C175.028 75.2387 175.111 74.961 175.139 74.6971C175.52 70.0743 175.487 65.4267 175.042 60.8096C174.834 58.2613 174.486 55.8379 174.098 53.4909C172.48 53.6089 165.071 54.0742 161.731 52.8521C158.523 51.6855 154.787 49.3038 153.711 45.8528C152.634 42.4017 154.475 38.6938 158.085 37.9786C163.106 36.9787 169.744 43.3808 171.973 47.3735C172.091 47.5887 173.077 49.9288 173.771 51.6508C173.577 50.5884 173.403 49.4913 173.202 48.4845C172.445 44.6932 171.521 41.263 170.674 38.2355C170.181 36.5134 169.702 34.9719 169.237 33.5276C167.584 32.8333 160.974 29.8683 158.613 27.2783C156.252 24.6882 154.065 20.9178 154.718 17.3626C155.37 13.8074 158.682 11.4326 162.224 12.4464C167.14 13.8768 170.077 22.619 170.216 27.188C170.216 27.5768 169.695 33.7707 169.612 33.7359L169.508 33.6943C169.987 35.083 170.48 36.5482 170.987 38.1799C171.896 41.1935 172.896 44.6098 173.764 48.4081C174.717 52.4829 175.431 56.6099 175.903 60.768C176.45 65.4248 176.583 70.121 176.299 74.8013V74.9679C176.847 73.5792 178.5 69.7184 178.66 69.4129C180.923 65.448 187.631 59.1153 192.637 60.1638C196.241 60.9207 198.005 64.712 196.936 68.0867C195.866 71.4613 192.075 73.8639 188.839 75.0304C185.208 76.3081 176.896 75.579 176.236 75.5165C175.83 80.272 175.106 84.995 174.07 89.6539C173.48 92.3689 172.806 95.0909 172.091 97.8059C172.605 96.6116 173.07 95.5492 173.146 95.4103C175.41 91.4454 182.118 85.1058 187.124 86.1612C190.735 86.9181 192.492 90.7094 191.422 94.0771C190.353 97.4448 186.562 99.8613 183.326 101.021C180.09 102.18 172.966 101.715 171.084 101.542C170.806 102.583 170.528 103.625 170.244 104.659C168.855 109.645 167.466 114.61 166.23 119.526C165.8 121.255 165.439 122.998 165.071 124.692C165.522 123.637 165.911 122.748 165.987 122.609C168.251 118.644 174.959 112.311 179.965 113.36C183.569 114.117 185.333 117.908 184.263 121.283C183.194 124.657 179.403 127.06 176.167 128.226C172.931 129.393 166.494 128.921 164.265 128.768C163.939 130.546 163.612 132.323 163.376 134.052C163.244 135.24 163.029 136.371 162.967 137.573C162.904 138.774 162.779 139.934 162.689 141.093C162.599 143.343 162.488 145.655 162.453 147.849C162.453 149.377 162.411 150.828 162.404 152.293C162.814 150.564 163.689 147.197 163.793 146.926C165.432 142.663 171.105 135.385 176.208 135.663C179.889 135.865 182.201 139.35 181.652 142.843C181.104 146.336 177.708 149.294 174.709 150.905C171.396 152.675 163.397 153.231 162.397 153.293C162.335 155.661 162.349 158.022 162.432 160.244Z" fill="black"/>
<path d="M98.0765 68.4128C98.0071 68.4753 95.299 62.8578 95.1879 62.4967C93.695 58.1847 93.3478 48.9634 97.4377 45.8873C100.382 43.6722 104.381 44.8457 106.228 47.8732C108.075 50.9007 107.36 55.3516 106.097 58.5249C104.611 62.2398 98.0834 68.4059 98.0765 68.4128Z" fill="black"/>
</g>
<g opacity="0.15">
<path d="M51.9773 177.576C51.4079 179.562 48.3804 183.069 48.3804 183.076C48.3804 183.083 46.6792 180.375 46.5889 180.194C45.596 178.055 44.9363 173.348 46.8667 171.549C47.1975 171.261 47.5852 171.046 48.0044 170.918C48.4237 170.789 48.8653 170.75 49.3006 170.803C49.7359 170.856 50.1552 171 50.5313 171.226C50.9075 171.451 51.2322 171.753 51.4843 172.112C52.6022 173.598 52.4564 175.882 51.9773 177.576Z" fill="black"/>
<path d="M78.6419 229.96L78.8433 230.196L78.2739 231.973L77.4407 230.96C76.6352 229.981 75.795 228.918 74.9409 227.814C73.7739 228.453 72.5706 229.023 71.3371 229.522C71.6079 231.494 70.7261 235.251 70.608 235.73C71.8024 236.105 72.962 236.459 74.0799 236.771C74.8437 236.994 75.5728 237.195 76.2811 237.383L75.1631 238.771L73.6355 238.306C72.4203 237.931 71.1357 237.508 69.8164 237.056C69.5804 237.508 67.6292 241.167 66.1015 242.354C64.7128 243.431 62.6297 244.437 60.8382 243.931C60.4119 243.83 60.0115 243.64 59.6631 243.375C59.3148 243.109 59.0261 242.773 58.8159 242.389C58.6057 242.005 58.4787 241.58 58.4431 241.144C58.4075 240.707 58.4641 240.268 58.6092 239.855C59.5466 237.389 64.1642 236.251 66.5182 236.383C66.657 236.383 68.1569 236.64 69.0943 236.813C68.5596 236.626 68.0319 236.452 67.4833 236.251C66.3932 235.869 65.31 235.452 64.1503 235.008L62.47 234.313C61.9006 234.091 61.3312 233.786 60.7618 233.515C59.4425 232.869 58.1371 232.126 56.8386 231.397C56.4983 232.355 55.2485 235.73 54.0611 237.015C52.8737 238.299 50.9503 239.577 49.1032 239.368C48.6665 239.334 48.2419 239.208 47.857 238.999C47.4721 238.79 47.1355 238.502 46.869 238.154C46.6025 237.807 46.4121 237.407 46.3101 236.981C46.2082 236.555 46.1969 236.112 46.2771 235.681C46.8326 233.105 51.228 231.279 53.575 231.05C53.7208 231.05 55.422 231.05 56.3525 231.085C55.5748 230.626 54.7971 230.175 54.0264 229.696C51.8044 228.307 49.5962 226.786 47.3881 225.3C46.6938 224.842 45.9994 224.398 45.3536 223.912C45.2356 224.252 43.8329 228.3 42.472 229.738C41.2637 231.015 39.3612 232.3 37.5141 232.091C37.0774 232.057 36.6528 231.931 36.2679 231.722C35.883 231.513 35.5464 231.225 35.2799 230.877C35.0134 230.53 34.823 230.13 34.721 229.704C34.6191 229.278 34.6078 228.835 34.688 228.404C35.2435 225.828 39.6389 224.002 41.9859 223.773C42.1595 223.773 44.6106 223.773 45.2286 223.828C43.7357 222.842 42.2359 221.87 40.7221 220.974C38.6803 219.749 36.5603 218.659 34.3756 217.711C34.3269 217.871 32.8826 222.106 31.4869 223.571C30.2718 224.849 28.3762 226.141 26.5222 225.932C26.0854 225.897 25.6608 225.77 25.2762 225.56C24.8916 225.35 24.5554 225.062 24.2895 224.713C24.0236 224.365 23.834 223.965 23.733 223.538C23.632 223.112 23.6217 222.669 23.703 222.238C24.2585 219.662 28.6539 217.836 30.9939 217.607C31.1814 217.607 33.8131 217.607 34.2922 217.669C34.1672 217.621 34.0353 217.551 33.9103 217.496C31.6982 216.596 29.409 215.898 27.0707 215.413C25.7792 215.128 24.5363 214.926 23.3211 214.76C23.1336 215.572 22.2309 219.294 21.1199 220.752C20.0089 222.21 18.3077 223.648 16.4468 223.641C16.0092 223.655 15.5736 223.576 15.1683 223.411C14.763 223.245 14.3971 222.996 14.0944 222.68C13.7918 222.363 13.5592 221.987 13.4118 221.575C13.2643 221.162 13.2054 220.724 13.2388 220.287C13.5096 217.662 17.6758 215.364 19.9812 214.878C20.1061 214.878 21.4116 214.725 22.3629 214.642C21.8074 214.579 21.2449 214.496 20.7172 214.44C18.7313 214.239 16.8981 214.17 15.2802 214.128C14.3567 214.128 13.5235 214.128 12.7458 214.128C12.1417 214.822 9.67663 217.635 8.0518 218.405C6.42696 219.176 4.22579 219.676 2.57318 218.815C2.17763 218.626 1.82635 218.356 1.54226 218.022C1.25817 217.688 1.04767 217.298 0.92448 216.878C0.801294 216.457 0.768195 216.015 0.827345 215.581C0.886495 215.146 1.03656 214.729 1.26776 214.357C2.719 212.156 7.47547 212.038 9.74607 212.67C9.9405 212.718 12.9124 213.927 12.8846 213.961L12.843 214.003C13.5929 214.003 14.3984 213.961 15.2802 213.961C16.9051 213.961 18.7521 213.996 20.738 214.163C22.8909 214.317 25.0332 214.595 27.1541 214.996C29.521 215.437 31.8445 216.085 34.0978 216.933L34.1811 216.968C33.577 216.489 31.9314 215.086 31.8133 214.968C30.2024 213.246 28.1053 208.976 29.383 206.636C29.6073 206.259 29.9082 205.933 30.2663 205.68C30.6244 205.427 31.0316 205.252 31.4617 205.166C31.8918 205.08 32.335 205.086 32.7628 205.182C33.1906 205.279 33.5934 205.464 33.945 205.726C35.4727 206.788 36.0282 209.01 36.1184 210.767C36.1948 212.753 34.57 216.732 34.438 217.017C36.7194 217.938 38.935 219.014 41.0693 220.238C42.3192 220.933 43.5552 221.69 44.7842 222.453C44.2773 222.023 43.826 221.627 43.7704 221.565C42.1595 219.85 40.0555 215.579 41.3401 213.274C41.563 212.896 41.8629 212.57 42.2203 212.316C42.5777 212.063 42.9846 211.887 43.4145 211.801C43.8443 211.716 44.2874 211.721 44.7149 211.818C45.1423 211.915 45.5445 212.101 45.8952 212.364C47.4229 213.427 47.9784 215.649 48.0686 217.405C48.1589 219.162 46.8257 222.613 46.4646 223.516L47.8534 224.405C50.0962 225.842 52.3321 227.293 54.568 228.647C55.3526 229.12 56.1442 229.564 56.9358 230.036C56.4844 229.647 56.1095 229.342 56.0539 229.265C54.443 227.543 52.346 223.273 53.6236 220.968C53.8472 220.591 54.1475 220.265 54.5049 220.012C54.8624 219.759 55.2691 219.584 55.6986 219.498C56.1281 219.413 56.5709 219.418 56.9981 219.515C57.4254 219.611 57.8276 219.796 58.1787 220.058C59.7063 221.12 60.2618 223.342 60.3591 225.099C60.4563 226.856 59.2342 229.96 58.8106 231.05C59.6369 231.48 60.4632 231.911 61.2756 232.293C61.845 232.536 62.3658 232.814 62.9491 233.029L64.6433 233.723C65.7335 234.112 66.8584 234.515 67.9347 234.869C68.6846 235.119 69.3998 235.341 70.115 235.563C69.3304 235.098 67.8028 234.175 67.6847 234.056C66.1035 232.717 64.8936 230.993 64.1712 229.05C63.986 228.911 63.816 228.753 63.6643 228.578C63.3631 228.26 63.1325 227.882 62.9876 227.468C62.8427 227.055 62.7867 226.615 62.8234 226.179C62.8602 225.742 62.9887 225.318 63.2006 224.935C63.4125 224.551 63.703 224.217 64.0531 223.953C66.1918 222.419 70.6775 224.016 72.5662 225.418C72.6773 225.502 73.7883 226.536 74.4826 227.196C74.1355 226.745 73.7883 226.314 73.4411 225.842C72.7467 224.919 72.0523 223.974 71.3579 222.967L70.3511 221.447C70.0039 220.954 69.6984 220.377 69.3651 219.843C68.6221 218.572 67.9277 217.253 67.282 215.912C66.4765 216.524 63.5671 218.648 61.845 219.044C60.123 219.44 57.8385 219.468 56.4081 218.273C56.0626 218.004 55.7778 217.665 55.5721 217.278C55.3665 216.892 55.2446 216.466 55.2145 216.029C55.1843 215.592 55.2466 215.154 55.3972 214.742C55.5478 214.331 55.7834 213.956 56.0887 213.642C57.9774 211.795 62.6435 212.698 64.7267 213.802C64.8586 213.871 66.2682 214.829 67.0251 215.364C66.6362 214.558 66.2335 213.746 65.8654 212.913C64.7892 210.51 63.7823 208.052 62.7477 205.58C62.4352 204.83 62.1158 204.08 61.7964 203.33C61.5117 203.553 58.1093 206.157 56.1859 206.601C54.4708 206.997 52.1724 207.024 50.7489 205.83C50.4037 205.56 50.1191 205.221 49.9133 204.834C49.7076 204.447 49.5854 204.021 49.5547 203.584C49.5239 203.146 49.5853 202.708 49.7348 202.296C49.8843 201.884 50.1186 201.507 50.4226 201.192C52.3113 199.352 56.9844 200.254 59.0675 201.351C59.2272 201.435 61.2479 202.817 61.7409 203.192C61.0465 201.546 60.3521 199.907 59.5536 198.331C58.5326 196.186 57.3729 194.11 56.0817 192.116C55.9428 192.22 52.4085 194.949 50.4295 195.408C48.7144 195.803 46.423 195.831 44.9925 194.637C44.6469 194.367 44.362 194.027 44.1562 193.64C43.9505 193.253 43.8286 192.826 43.7985 192.389C43.7684 191.951 43.8307 191.512 43.9814 191.101C44.1321 190.689 44.3678 190.313 44.6731 189.998C46.5618 188.158 51.235 189.061 53.3181 190.158C53.4778 190.248 55.6512 191.734 56.0262 192.033C55.9498 191.915 55.8873 191.79 55.8109 191.672C54.4525 189.71 52.9236 187.872 51.2419 186.179C50.3253 185.228 49.3949 184.374 48.4644 183.569C47.8603 184.145 45.055 186.749 43.326 187.353C41.597 187.957 39.3889 188.214 37.8335 187.186C37.4611 186.955 37.1414 186.648 36.895 186.286C36.6487 185.923 36.4811 185.513 36.4032 185.082C36.3253 184.651 36.3388 184.208 36.4429 183.782C36.5469 183.356 36.7392 182.957 37.0072 182.61C38.6807 180.576 43.4232 180.958 45.6175 181.826C45.7355 181.867 46.8951 182.52 47.7006 182.944C47.277 182.582 46.8535 182.201 46.4368 181.867C44.8953 180.604 43.4094 179.534 42.0831 178.604C41.3262 178.076 40.6249 177.618 40 177.215C39.1042 177.465 35.5074 178.451 33.7506 178.194C31.9938 177.937 29.8552 177.146 28.9594 175.514C28.7334 175.137 28.5896 174.717 28.5376 174.281C28.4857 173.845 28.5266 173.403 28.6578 172.983C28.789 172.564 29.0074 172.178 29.2988 171.849C29.5901 171.52 29.9478 171.257 30.3482 171.077C32.7715 170.042 36.8059 172.563 38.3543 174.34C38.4862 174.493 40.2986 177.118 40.25 177.118H40.2014C40.8402 177.514 41.5207 177.944 42.2845 178.43C43.6316 179.333 45.1453 180.367 46.7215 181.603C48.4213 182.921 50.0442 184.336 51.5822 185.839C53.3215 187.517 54.9086 189.346 56.3247 191.304L56.3733 191.38C56.1303 190.644 55.5331 188.603 55.5054 188.401C55.1096 186.075 55.7137 181.36 58.0537 180.145C58.4477 179.953 58.8779 179.845 59.3163 179.83C59.7546 179.815 60.1912 179.893 60.5975 180.058C61.0038 180.223 61.3707 180.472 61.6742 180.788C61.9777 181.105 62.211 181.482 62.3589 181.895C63.0532 183.624 62.3033 185.797 61.3937 187.304C60.3591 188.999 56.8108 191.422 56.5331 191.616C57.924 193.647 59.1789 195.767 60.2896 197.963C60.9423 199.241 61.5603 200.546 62.1644 201.858C61.977 201.22 61.8172 200.643 61.8034 200.56C61.4076 198.234 62.0117 193.519 64.3517 192.304C64.7457 192.111 65.1759 192.004 65.6143 191.989C66.0526 191.973 66.4892 192.051 66.8955 192.216C67.3018 192.381 67.6687 192.63 67.9722 192.947C68.2757 193.264 68.509 193.641 68.6568 194.054C69.3512 195.783 68.6013 197.956 67.6847 199.463C66.7681 200.97 63.7754 203.115 62.9769 203.671C63.1991 204.178 63.4351 204.678 63.6712 205.191C64.7475 207.629 65.8099 210.052 66.9278 212.427C67.3236 213.26 67.7403 214.065 68.1569 214.871C67.9902 214.302 67.8583 213.815 67.8444 213.739C67.4486 211.42 68.0527 206.698 70.3928 205.483C70.7874 205.292 71.2179 205.185 71.6562 205.171C72.0946 205.157 72.531 205.236 72.9371 205.401C73.3432 205.567 73.7099 205.816 74.0132 206.133C74.3166 206.45 74.5499 206.827 74.6979 207.24C75.3923 208.969 74.6423 211.135 73.7258 212.642C72.8092 214.149 70.1081 216.114 69.1637 216.753C69.6081 217.565 70.0595 218.378 70.5525 219.148C70.8858 219.662 71.1774 220.183 71.5385 220.683C71.8996 221.183 72.2329 221.683 72.5801 222.183C73.2744 223.106 73.9688 224.064 74.6979 224.96C75.184 225.578 75.6561 226.161 76.1283 226.745C75.7256 225.925 74.9756 224.294 74.927 224.148C74.191 221.919 74.073 217.162 76.1977 215.6C76.559 215.352 76.9683 215.183 77.3991 215.103C77.8299 215.024 78.2726 215.035 78.6986 215.137C79.1246 215.239 79.5245 215.43 79.8724 215.696C80.2202 215.962 80.5084 216.299 80.7181 216.683C81.6625 218.287 81.2528 220.551 80.5792 222.176C79.8363 223.96 76.8296 226.8 76.4547 227.147C77.1143 228.154 77.892 229.092 78.6419 229.96Z" fill="black"/>
<path d="M22.9674 214.357C22.9674 214.405 20.058 213.051 19.8844 212.968C17.8776 211.739 14.7252 208.17 15.3501 205.608C15.4647 205.183 15.668 204.787 15.9465 204.446C16.2249 204.106 16.5724 203.828 16.9659 203.631C17.3594 203.435 17.7901 203.323 18.2297 203.305C18.6693 203.286 19.1078 203.361 19.5164 203.524C21.2731 204.142 22.4189 206.135 22.9466 207.809C23.5576 209.76 22.9674 214.357 22.9674 214.357Z" fill="black"/>
</g>
<g opacity="0.15">
<path d="M221.392 177.576C221.955 179.562 224.982 183.068 224.989 183.075C224.996 183.082 226.69 180.374 226.78 180.194C227.773 178.055 228.433 173.347 226.496 171.549C226.166 171.261 225.778 171.046 225.36 170.918C224.941 170.789 224.5 170.75 224.065 170.803C223.63 170.856 223.212 171 222.836 171.226C222.461 171.451 222.137 171.753 221.885 172.111C220.76 173.597 220.906 175.882 221.392 177.576Z" fill="black"/>
<path d="M194.727 229.959L194.526 230.195L195.095 231.973L195.929 230.959C196.734 229.98 197.574 228.918 198.428 227.814C199.595 228.454 200.798 229.024 202.032 229.522C201.761 231.494 202.643 235.25 202.761 235.729C201.567 236.104 200.4 236.459 199.289 236.771C198.532 236.993 197.803 237.195 197.095 237.382L198.213 238.771L199.741 238.306C200.949 237.931 202.24 237.507 203.56 237.056C203.796 237.507 205.74 241.166 207.275 242.354C208.663 243.43 210.747 244.437 212.538 243.93C212.964 243.829 213.365 243.64 213.713 243.374C214.061 243.109 214.35 242.773 214.56 242.388C214.77 242.004 214.897 241.58 214.933 241.143C214.969 240.707 214.912 240.267 214.767 239.854C213.823 237.389 209.212 236.25 206.851 236.382C206.712 236.382 205.219 236.639 204.275 236.813C204.817 236.625 205.337 236.452 205.893 236.25C206.983 235.868 208.066 235.452 209.226 235.007L210.906 234.313C211.469 234.091 212.038 233.785 212.614 233.514C213.934 232.869 215.239 232.126 216.531 231.397C216.871 232.355 218.128 235.729 219.343 237.014C220.558 238.299 222.454 239.576 224.301 239.368C224.737 239.334 225.162 239.208 225.547 238.998C225.932 238.789 226.268 238.502 226.535 238.154C226.801 237.806 226.992 237.406 227.094 236.98C227.196 236.554 227.207 236.112 227.127 235.681C226.564 233.105 222.176 231.279 219.829 231.049C219.683 231.049 217.982 231.049 217.051 231.084C217.822 230.626 218.6 230.174 219.371 229.695C221.6 228.307 223.808 226.786 226.016 225.3C226.71 224.842 227.37 224.397 228.05 223.911C228.168 224.251 229.564 228.3 230.932 229.737C232.14 231.015 234.043 232.299 235.89 232.091C236.327 232.056 236.751 231.931 237.136 231.721C237.521 231.512 237.858 231.224 238.124 230.877C238.391 230.529 238.581 230.129 238.683 229.703C238.785 229.277 238.796 228.834 238.716 228.404C238.153 225.828 233.765 224.001 231.418 223.772C231.244 223.772 228.793 223.772 228.175 223.828C229.668 222.842 231.168 221.87 232.682 220.974C234.722 219.75 236.84 218.66 239.021 217.71C239.077 217.87 240.521 222.106 241.917 223.571C243.132 224.849 245.028 226.14 246.875 225.932C247.312 225.898 247.738 225.771 248.123 225.562C248.508 225.352 248.845 225.064 249.112 224.715C249.379 224.367 249.569 223.966 249.67 223.539C249.772 223.112 249.782 222.669 249.701 222.238C249.145 219.662 244.75 217.835 242.403 217.606C242.223 217.606 239.591 217.606 239.112 217.669C239.237 217.62 239.362 217.551 239.494 217.495C241.706 216.595 243.995 215.898 246.333 215.412C247.618 215.127 248.868 214.926 250.083 214.759C250.27 215.572 251.173 219.294 252.284 220.752C253.395 222.21 255.062 223.647 256.957 223.64C257.394 223.653 257.83 223.574 258.234 223.408C258.639 223.242 259.005 222.993 259.307 222.677C259.609 222.361 259.842 221.985 259.99 221.573C260.138 221.161 260.197 220.723 260.165 220.287C259.894 217.662 255.728 215.363 253.423 214.877C253.298 214.877 251.992 214.725 251.041 214.641C251.597 214.579 252.159 214.495 252.687 214.44C254.673 214.239 256.499 214.169 258.124 214.127C259.047 214.127 259.88 214.127 260.658 214.127C261.262 214.822 263.72 217.634 265.352 218.405C266.984 219.176 269.178 219.676 270.831 218.814C271.226 218.625 271.576 218.354 271.86 218.02C272.143 217.686 272.353 217.296 272.475 216.875C272.598 216.455 272.63 216.013 272.571 215.579C272.511 215.145 272.361 214.729 272.129 214.357C270.685 212.155 265.928 212.037 263.658 212.669C263.457 212.718 260.492 213.926 260.519 213.961L260.554 214.002C259.804 214.002 258.999 213.961 258.124 213.961C256.499 213.961 254.652 213.996 252.666 214.162C250.513 214.316 248.371 214.594 246.25 214.995C243.871 215.436 241.536 216.084 239.271 216.933L239.195 216.967C239.799 216.488 241.445 215.086 241.563 214.968C243.167 213.246 245.271 208.975 243.986 206.635C243.763 206.258 243.464 205.931 243.106 205.678C242.749 205.424 242.342 205.248 241.912 205.163C241.482 205.077 241.039 205.083 240.612 205.18C240.184 205.277 239.782 205.463 239.431 205.726C237.904 206.788 237.348 209.01 237.258 210.767C237.181 212.753 238.806 216.731 238.938 217.016C236.655 217.939 234.437 219.015 232.3 220.238C231.057 220.932 229.821 221.689 228.585 222.453C229.099 222.022 229.55 221.627 229.606 221.564C231.217 219.849 233.314 215.579 232.036 213.273C231.813 212.896 231.513 212.57 231.156 212.316C230.798 212.062 230.392 211.887 229.962 211.801C229.532 211.715 229.089 211.721 228.661 211.818C228.234 211.915 227.832 212.101 227.481 212.364C225.953 213.426 225.398 215.648 225.308 217.405C225.217 219.162 226.55 222.613 226.912 223.515L225.523 224.404C223.28 225.842 221.051 227.293 218.815 228.647C218.031 229.119 217.239 229.563 216.447 230.036C216.899 229.647 217.274 229.341 217.329 229.265C218.94 227.543 221.037 223.272 219.76 220.967C219.535 220.59 219.234 220.265 218.876 220.012C218.518 219.758 218.111 219.583 217.681 219.498C217.251 219.412 216.807 219.417 216.38 219.514C215.952 219.61 215.549 219.795 215.197 220.057C213.67 221.12 213.114 223.342 213.024 225.099C212.934 226.855 214.149 229.959 214.573 231.049C213.746 231.48 212.92 231.91 212.101 232.292C211.538 232.535 211.01 232.813 210.434 233.028L208.74 233.723C207.643 234.112 206.525 234.514 205.448 234.868C204.699 235.118 203.983 235.341 203.268 235.563C204.053 235.098 205.58 234.174 205.698 234.056C207.28 232.716 208.49 230.992 209.212 229.05C209.396 228.909 209.565 228.751 209.719 228.577C210.019 228.259 210.249 227.88 210.393 227.467C210.537 227.054 210.593 226.615 210.556 226.178C210.52 225.742 210.391 225.318 210.18 224.935C209.969 224.552 209.679 224.217 209.33 223.953C207.184 222.418 202.706 224.015 200.817 225.418C200.699 225.501 199.595 226.536 198.9 227.196C199.248 226.744 199.595 226.314 199.942 225.842C200.636 224.918 201.331 223.974 202.025 222.967L203.032 221.446C203.379 220.953 203.685 220.377 204.018 219.842C204.761 218.571 205.448 217.252 206.101 215.912C206.914 216.523 209.823 218.648 211.545 219.044C213.267 219.439 215.552 219.467 216.982 218.273C217.327 218.004 217.612 217.665 217.818 217.278C218.024 216.891 218.145 216.465 218.176 216.028C218.206 215.591 218.143 215.153 217.993 214.742C217.842 214.33 217.607 213.956 217.301 213.641C215.413 211.794 210.74 212.697 208.656 213.801C208.531 213.871 207.122 214.829 206.358 215.363C206.754 214.558 207.157 213.746 207.525 212.912C208.601 210.51 209.608 208.052 210.635 205.58C210.948 204.83 211.267 204.08 211.587 203.33C211.878 203.552 215.274 206.156 217.204 206.6C218.919 206.996 221.211 207.024 222.641 205.83C222.987 205.56 223.272 205.22 223.477 204.833C223.683 204.445 223.805 204.019 223.835 203.582C223.865 203.144 223.803 202.705 223.652 202.293C223.502 201.882 223.266 201.506 222.961 201.191C221.072 199.351 216.406 200.254 214.323 201.351C214.163 201.434 212.142 202.816 211.649 203.191C212.344 201.545 213.038 199.907 213.83 198.33C214.853 196.187 216.013 194.111 217.301 192.116C217.433 192.22 220.975 194.949 222.947 195.407C224.662 195.803 226.96 195.831 228.384 194.636C228.729 194.366 229.014 194.027 229.22 193.639C229.426 193.252 229.548 192.826 229.578 192.388C229.608 191.951 229.545 191.512 229.395 191.1C229.244 190.688 229.008 190.313 228.703 189.998C226.821 188.158 222.148 189.061 220.065 190.158C219.898 190.248 217.725 191.734 217.357 192.032C217.426 191.914 217.496 191.789 217.572 191.671C218.931 189.71 220.46 187.872 222.141 186.179C223.058 185.228 223.988 184.373 224.919 183.568C225.523 184.144 228.328 186.748 230.057 187.352C231.786 187.956 233.994 188.213 235.55 187.186C235.922 186.955 236.242 186.648 236.488 186.285C236.734 185.923 236.902 185.513 236.98 185.081C237.058 184.65 237.044 184.207 236.94 183.781C236.836 183.356 236.644 182.957 236.376 182.61C234.702 180.575 229.96 180.957 227.766 181.825C227.648 181.867 226.488 182.52 225.683 182.943C226.099 182.582 226.53 182.2 226.939 181.867C228.481 180.603 229.974 179.534 231.3 178.603C232.057 178.076 232.758 177.617 233.383 177.214C234.272 177.464 237.876 178.45 239.633 178.194C241.389 177.937 243.521 177.145 244.424 175.513C244.648 175.136 244.789 174.716 244.84 174.281C244.891 173.845 244.85 173.404 244.719 172.985C244.588 172.567 244.37 172.18 244.08 171.851C243.79 171.523 243.434 171.258 243.035 171.076C240.605 170.042 236.577 172.562 235.029 174.34C234.897 174.493 233.085 177.117 233.126 177.117H233.182C232.543 177.513 231.862 177.944 231.099 178.43C229.752 179.332 228.231 180.367 226.662 181.603C224.962 182.921 223.339 184.335 221.801 185.839C220.062 187.516 218.475 189.345 217.058 191.303L217.01 191.38C217.246 190.644 217.85 188.602 217.878 188.401C218.267 186.075 217.663 181.36 215.322 180.145C214.929 179.952 214.499 179.845 214.061 179.83C213.624 179.815 213.187 179.892 212.782 180.058C212.376 180.223 212.01 180.472 211.707 180.788C211.404 181.105 211.171 181.482 211.024 181.895C210.33 183.624 211.08 185.797 211.989 187.304C213.017 188.998 216.572 191.421 216.85 191.616C215.457 193.644 214.202 195.765 213.094 197.962C212.441 199.24 211.823 200.545 211.219 201.858C211.406 201.219 211.566 200.643 211.58 200.559C211.976 198.233 211.371 193.518 209.031 192.303C208.637 192.111 208.207 192.003 207.769 191.988C207.331 191.973 206.894 192.051 206.488 192.216C206.081 192.381 205.714 192.63 205.411 192.946C205.107 193.263 204.874 193.64 204.726 194.053C204.032 195.782 204.782 197.955 205.691 199.462C206.601 200.969 209.608 203.115 210.406 203.67C210.177 204.177 209.948 204.677 209.712 205.191C208.636 207.628 207.566 210.051 206.455 212.426C206.059 213.259 205.643 214.065 205.226 214.87C205.393 214.301 205.525 213.815 205.539 213.739C205.934 211.419 205.33 206.698 202.983 205.482C202.589 205.292 202.159 205.187 201.722 205.174C201.284 205.16 200.849 205.239 200.443 205.404C200.038 205.57 199.672 205.819 199.369 206.135C199.066 206.451 198.833 206.827 198.685 207.239C197.991 208.968 198.741 211.135 199.65 212.641C200.56 214.148 203.275 216.113 204.219 216.752C203.768 217.565 203.324 218.377 202.831 219.148C202.49 219.662 202.206 220.182 201.845 220.682L200.796 222.182C200.102 223.106 199.407 224.064 198.713 224.96C198.227 225.578 197.755 226.161 197.283 226.744C197.678 225.925 198.435 224.293 198.477 224.147C199.22 221.918 199.338 217.162 197.213 215.6C196.852 215.352 196.443 215.183 196.012 215.103C195.581 215.023 195.138 215.035 194.712 215.137C194.286 215.239 193.886 215.429 193.539 215.696C193.191 215.962 192.903 216.298 192.693 216.683C191.748 218.287 192.158 220.55 192.832 222.175C193.568 223.96 196.581 226.8 196.956 227.147C196.255 228.154 195.477 229.091 194.727 229.959Z" fill="black"/>
<path d="M250.403 214.357C250.403 214.405 253.312 213.051 253.486 212.968C255.493 211.739 258.645 208.17 258.02 205.608C257.905 205.183 257.702 204.787 257.424 204.446C257.145 204.106 256.798 203.828 256.404 203.631C256.011 203.435 255.58 203.323 255.14 203.305C254.701 203.286 254.262 203.361 253.854 203.524C252.097 204.142 250.951 206.135 250.424 207.809C249.813 209.76 250.403 214.357 250.403 214.357Z" fill="black"/>
</g>
<path d="M190.416 189.901L144.414 170.619L183.223 77.378L229.225 96.6608L190.416 189.901Z" fill="#D1D1D1" stroke="#263238" stroke-linecap="round" stroke-linejoin="round"/>
<path d="M219.99 106.18C219.201 105.853 218.49 105.361 217.906 104.737C217.322 104.113 216.879 103.372 216.605 102.562C216.332 101.752 216.235 100.894 216.32 100.044C216.406 99.1933 216.672 98.3712 217.101 97.6324L190.715 86.5641C190.647 86.8 190.566 87.0318 190.472 87.2585C190.168 87.9919 189.722 88.6579 189.16 89.2181C188.598 89.7783 187.93 90.2216 187.195 90.5224C186.461 90.8232 185.674 90.9756 184.88 90.9708C184.086 90.9659 183.301 90.804 182.57 90.4943C182.452 90.4456 182.341 90.3831 182.23 90.3276L152.955 160.834C153.073 160.876 153.191 160.911 153.302 160.959C154.096 161.281 154.81 161.771 155.397 162.394C155.984 163.018 156.43 163.761 156.703 164.572C156.977 165.384 157.072 166.245 156.983 167.097C156.893 167.948 156.62 168.77 156.184 169.507L182.605 180.575C182.668 180.339 182.747 180.107 182.841 179.881C183.147 179.152 183.593 178.49 184.155 177.934C184.717 177.377 185.382 176.937 186.114 176.638C186.846 176.339 187.63 176.187 188.42 176.19C189.211 176.194 189.993 176.353 190.722 176.659C190.951 176.756 191.173 176.874 191.416 176.993L220.719 106.43C220.47 106.366 220.226 106.282 219.99 106.18ZM182.57 142.802C180.772 142.047 179.238 140.777 178.162 139.151C177.085 137.525 176.515 135.616 176.524 133.666C176.532 131.717 177.118 129.813 178.209 128.196C179.299 126.579 180.844 125.322 182.648 124.584C184.453 123.845 186.436 123.658 188.347 124.046C190.258 124.434 192.011 125.38 193.384 126.765C194.757 128.149 195.689 129.909 196.062 131.823C196.435 133.737 196.232 135.719 195.479 137.517C194.979 138.713 194.249 139.798 193.329 140.711C192.41 141.623 191.319 142.346 190.12 142.837C188.921 143.327 187.637 143.577 186.342 143.571C185.046 143.565 183.765 143.303 182.57 142.802Z" fill="white" stroke="#263238" stroke-linecap="round" stroke-linejoin="round"/>
<path d="M189.812 190.137L146.164 165.994L194.84 77.4956L238.488 101.646L189.812 190.137Z" fill="#D1D1D1" stroke="#263238" stroke-linecap="round" stroke-linejoin="round"/>
<path d="M228.274 110.104C227.582 109.722 226.972 109.207 226.479 108.589C225.986 107.971 225.619 107.262 225.401 106.502C225.182 105.742 225.115 104.947 225.205 104.162C225.294 103.376 225.537 102.616 225.92 101.924C226.046 101.709 226.183 101.501 226.33 101.299L201.263 87.4118C201.172 87.649 201.068 87.8809 200.95 88.1062C200.176 89.5015 198.88 90.5325 197.346 90.9726C195.812 91.4127 194.167 91.2258 192.771 90.4532C192.66 90.395 192.554 90.3301 192.451 90.2587L155.719 157.183C155.832 157.23 155.944 157.283 156.052 157.342C157.449 158.115 158.481 159.411 158.922 160.945C159.364 162.479 159.178 164.125 158.406 165.522C158.283 165.739 158.146 165.948 157.996 166.147L183.056 180.034C183.149 179.797 183.256 179.565 183.376 179.34C183.758 178.648 184.272 178.038 184.89 177.545C185.509 177.052 186.218 176.686 186.977 176.467C187.737 176.248 188.533 176.182 189.318 176.271C190.104 176.36 190.864 176.603 191.555 176.986C191.771 177.111 191.98 177.247 192.18 177.396L228.982 110.416C228.739 110.329 228.502 110.225 228.274 110.104ZM187.125 142.469C185.418 141.524 184.028 140.094 183.133 138.36C182.238 136.625 181.878 134.664 182.097 132.725C182.317 130.786 183.107 128.955 184.367 127.465C185.627 125.974 187.3 124.891 189.176 124.352C191.052 123.813 193.045 123.842 194.905 124.436C196.764 125.03 198.405 126.162 199.621 127.689C200.836 129.215 201.572 131.068 201.735 133.013C201.897 134.958 201.479 136.908 200.534 138.615C199.266 140.904 197.142 142.595 194.627 143.318C192.113 144.041 189.415 143.735 187.125 142.469Z" fill="white" stroke="#263238" stroke-linecap="round" stroke-linejoin="round"/>
<path d="M189.006 190.345L149.121 160.39L209.573 79.4815L249.458 109.437L189.006 190.345Z" fill="#D1D1D1" stroke="#263238" stroke-linecap="round" stroke-linejoin="round"/>
<path d="M238.175 116.402C237.539 115.928 237.003 115.333 236.598 114.65C236.193 113.968 235.927 113.212 235.815 112.427C235.703 111.641 235.748 110.841 235.947 110.073C236.146 109.305 236.495 108.584 236.974 107.951C237.125 107.753 237.29 107.565 237.467 107.389L214.552 90.1824C214.427 90.4003 214.291 90.6112 214.143 90.8143C213.183 92.0885 211.758 92.93 210.178 93.1539C208.599 93.3778 206.996 92.9659 205.72 92.0086C205.616 91.9323 205.526 91.8489 205.428 91.7725L159.787 152.961C159.891 153.03 159.995 153.093 160.093 153.169C161.368 154.129 162.211 155.555 162.437 157.136C162.662 158.716 162.251 160.321 161.294 161.599C161.143 161.797 160.978 161.985 160.801 162.161L183.715 179.361C183.834 179.143 183.969 178.934 184.118 178.736C184.593 178.104 185.188 177.572 185.869 177.17C186.549 176.768 187.303 176.504 188.086 176.393C188.868 176.282 189.665 176.326 190.431 176.524C191.196 176.721 191.916 177.067 192.548 177.542C192.746 177.69 192.934 177.853 193.11 178.028L238.814 116.812C238.593 116.689 238.379 116.552 238.175 116.402ZM192.944 142.788C191.383 141.616 190.206 140.008 189.56 138.166C188.914 136.325 188.828 134.334 189.314 132.444C189.8 130.554 190.835 128.85 192.288 127.549C193.742 126.247 195.549 125.406 197.481 125.131C199.413 124.856 201.383 125.16 203.142 126.005C204.901 126.85 206.37 128.197 207.363 129.877C208.357 131.556 208.83 133.493 208.723 135.441C208.615 137.39 207.933 139.263 206.762 140.823C205.982 141.858 205.006 142.73 203.889 143.387C202.773 144.045 201.537 144.476 200.254 144.656C198.971 144.836 197.665 144.761 196.41 144.436C195.156 144.111 193.978 143.541 192.944 142.76V142.788Z" fill="white" stroke="#263238" stroke-linecap="round" stroke-linejoin="round"/>
<path d="M188.208 190.436L152.684 155.412L223.413 83.3146L258.937 118.339L188.208 190.436Z" fill="#D1D1D1" stroke="#263238" stroke-linecap="round" stroke-linejoin="round"/>
<path d="M246.82 123.734C245.683 122.614 245.038 121.087 245.026 119.491C245.015 117.894 245.637 116.359 246.758 115.221C246.935 115.046 247.123 114.881 247.32 114.728L226.927 94.5915C226.774 94.787 226.612 94.9747 226.441 95.1539C225.32 96.291 223.793 96.9364 222.197 96.9481C220.601 96.9598 219.065 96.3369 217.928 95.2164C217.839 95.1289 217.755 95.0362 217.678 94.9387L164.259 149.482C164.35 149.565 164.447 149.642 164.537 149.732C165.674 150.852 166.32 152.379 166.331 153.975C166.343 155.572 165.72 157.108 164.6 158.245C164.419 158.418 164.232 158.585 164.037 158.738L184.431 178.875C184.582 178.674 184.747 178.484 184.924 178.305C185.478 177.743 186.138 177.294 186.866 176.987C187.593 176.679 188.374 176.518 189.164 176.512C189.954 176.506 190.737 176.656 191.469 176.953C192.201 177.25 192.867 177.688 193.43 178.243C193.605 178.42 193.77 178.608 193.923 178.805L247.39 124.22C247.191 124.07 247.001 123.907 246.82 123.734ZM198.478 143.802C197.09 142.432 196.14 140.682 195.747 138.772C195.354 136.862 195.536 134.879 196.27 133.073C197.004 131.266 198.257 129.718 199.87 128.624C201.484 127.529 203.386 126.938 205.336 126.924C207.286 126.911 209.196 127.476 210.824 128.547C212.453 129.619 213.728 131.15 214.487 132.946C215.246 134.742 215.455 136.722 215.089 138.637C214.723 140.552 213.797 142.316 212.428 143.705C211.519 144.627 210.437 145.362 209.243 145.866C208.05 146.371 206.769 146.635 205.473 146.644C204.178 146.653 202.893 146.407 201.693 145.919C200.493 145.431 199.4 144.712 198.478 143.802Z" fill="white" stroke="#263238" stroke-linecap="round" stroke-linejoin="round"/>
<path d="M143.04 182.624L79.1573 223.217L11.2266 115.923L75.1091 75.3294C76.2262 74.6201 77.5792 74.3833 78.8708 74.6711C80.1623 74.9588 81.2869 75.7476 81.9972 76.864L144.602 175.736C144.952 176.291 145.189 176.909 145.3 177.556C145.411 178.202 145.393 178.864 145.248 179.504C145.103 180.144 144.833 180.748 144.454 181.284C144.076 181.819 143.595 182.275 143.04 182.624Z" fill="#A8A8A8" stroke="#263238" stroke-linecap="round" stroke-linejoin="round"/>
<path d="M141.24 182.694L77.3573 223.287L9.43359 115.992L73.3161 75.3987C74.4332 74.6894 75.7862 74.4527 77.0778 74.7404C78.3694 75.0282 79.4939 75.8169 80.2043 76.9333L142.802 175.805C143.152 176.36 143.389 176.978 143.5 177.625C143.611 178.271 143.593 178.933 143.448 179.573C143.303 180.213 143.034 180.818 142.655 181.353C142.276 181.889 141.795 182.344 141.24 182.694Z" fill="white" stroke="#263238" stroke-linecap="round" stroke-linejoin="round"/>
<path d="M139.157 184.109L75.2744 224.703L7.34375 117.408L71.2262 76.8146C72.3444 76.105 73.6985 75.868 74.9912 76.1557C76.2839 76.4435 77.4097 77.2323 78.1214 78.3492L140.719 177.221C141.069 177.776 141.306 178.394 141.417 179.041C141.528 179.687 141.511 180.349 141.365 180.989C141.22 181.629 140.951 182.234 140.572 182.769C140.193 183.304 139.712 183.76 139.157 184.109Z" fill="#A8A8A8" stroke="#263238" stroke-linecap="round" stroke-linejoin="round"/>
<path d="M41.4795 130.748L36.5703 123.026L38.4868 121.839C38.862 121.577 39.301 121.421 39.7575 121.387C40.1431 121.377 40.5206 121.5 40.8268 121.735C41.199 122.013 41.5128 122.362 41.7503 122.762C41.994 123.119 42.1509 123.528 42.2086 123.957C42.2606 124.334 42.1926 124.717 42.0142 125.054C41.8031 125.43 41.4966 125.744 41.1254 125.963L40.2713 126.498L42.5558 130.095L41.4795 130.748ZM39.7853 125.692L40.2783 125.38C40.5421 125.234 40.7774 125.041 40.9727 124.811C41.0393 124.725 41.0874 124.626 41.1137 124.521C41.14 124.416 41.144 124.306 41.1254 124.2C41.0618 123.907 40.9389 123.63 40.7643 123.387C40.5934 123.096 40.3857 122.827 40.1463 122.589C40.0691 122.512 39.9748 122.454 39.871 122.42C39.7672 122.386 39.657 122.377 39.5492 122.394C39.2349 122.469 38.9378 122.603 38.6743 122.79L38.1674 123.109L39.7853 125.692Z" fill="white"/>
<path d="M45.2783 128.331L42.0078 119.568L43.0494 118.908L49.6043 125.581L48.5835 126.227L46.9934 124.512L45.4241 125.511L46.2852 127.692L45.2783 128.331ZM45.0839 124.616L46.3685 123.803L43.5077 120.734L45.0839 124.616Z" fill="white"/>
<path d="M52.2626 124.012C51.8822 124.275 51.4335 124.422 50.971 124.436C50.5502 124.43 50.14 124.302 49.7906 124.068C49.3947 123.799 49.0511 123.46 48.7768 123.068L49.5684 122.207C49.7592 122.455 49.9706 122.688 50.2003 122.901C50.3964 123.092 50.6341 123.234 50.8946 123.318C51.0309 123.347 51.1717 123.347 51.308 123.318C51.4444 123.289 51.5732 123.232 51.6862 123.151C51.8081 123.085 51.9145 122.994 51.9983 122.884C52.0821 122.774 52.1414 122.647 52.1723 122.512C52.2049 122.226 52.128 121.938 51.957 121.707C51.7813 121.398 51.5111 121.155 51.1863 121.012C50.8575 120.894 50.5179 120.808 50.1725 120.755L48.1519 120.436C47.7868 120.384 47.4367 120.257 47.1242 120.061C46.7997 119.834 46.5274 119.541 46.3257 119.2C46.1582 118.968 46.0403 118.704 45.9794 118.424C45.9185 118.145 45.9158 117.856 45.9715 117.575C46.1281 117.02 46.4974 116.548 46.9992 116.263C47.2697 116.085 47.5677 115.954 47.8811 115.874C48.1479 115.808 48.4267 115.808 48.6935 115.874C48.9732 115.952 49.2349 116.084 49.4642 116.263C49.743 116.487 49.9946 116.744 50.2142 117.027L49.4573 117.86C49.2896 117.632 49.1013 117.421 48.8948 117.228C48.722 117.063 48.5048 116.952 48.2699 116.909C48.0054 116.891 47.7425 116.961 47.5208 117.106C47.2991 117.251 47.1307 117.465 47.0409 117.714C47.0142 117.849 47.0165 117.988 47.0476 118.122C47.0787 118.256 47.138 118.382 47.2214 118.492C47.3406 118.695 47.5074 118.867 47.7075 118.992C47.9221 119.111 48.158 119.186 48.4018 119.214L50.4364 119.533C50.9178 119.6 51.3862 119.741 51.8251 119.95C52.2942 120.182 52.687 120.543 52.9569 120.991C53.18 121.332 53.3137 121.724 53.3458 122.13C53.3622 122.496 53.2756 122.86 53.0958 123.179C52.8899 123.52 52.6039 123.806 52.2626 124.012Z" fill="white"/>
<path d="M56.7689 121.144C56.3885 121.407 55.9398 121.555 55.4773 121.568C55.0585 121.563 54.6503 121.435 54.3038 121.2C53.9049 120.934 53.5607 120.595 53.29 120.2L54.1094 119.339C54.2983 119.589 54.5098 119.821 54.7413 120.033C54.937 120.224 55.1748 120.367 55.4357 120.45C55.5719 120.479 55.7128 120.479 55.8492 120.451C55.9856 120.422 56.1144 120.365 56.2272 120.283C56.3497 120.22 56.4568 120.131 56.5408 120.021C56.6248 119.912 56.6837 119.786 56.7133 119.651C56.7498 119.364 56.6753 119.073 56.505 118.839C56.3248 118.532 56.0528 118.289 55.7273 118.144C55.4009 118.026 55.0637 117.94 54.7205 117.887L52.6929 117.568C52.3278 117.516 51.9777 117.389 51.6652 117.193C51.3407 116.966 51.0684 116.673 50.8667 116.332C50.6992 116.1 50.5814 115.836 50.5204 115.557C50.4595 115.277 50.4568 114.988 50.5125 114.707C50.6724 114.153 51.0441 113.684 51.5472 113.402C51.8157 113.224 52.1111 113.09 52.4221 113.006C52.6908 112.937 52.9727 112.937 53.2414 113.006C53.5208 113.082 53.7827 113.211 54.0122 113.388C54.2903 113.611 54.5398 113.868 54.7552 114.152L53.9983 114.985C53.8306 114.758 53.6424 114.546 53.4359 114.353C53.2647 114.186 53.0468 114.074 52.8109 114.034C52.547 114.02 52.2856 114.091 52.0646 114.235C51.8436 114.38 51.6745 114.592 51.5819 114.839C51.5569 114.974 51.5601 115.113 51.5912 115.247C51.6222 115.381 51.6805 115.507 51.7624 115.617C51.8837 115.821 52.0499 115.994 52.2485 116.124C52.4666 116.235 52.701 116.31 52.9429 116.346L54.9774 116.658C55.444 116.732 55.8976 116.873 56.3245 117.075C56.7923 117.309 57.1846 117.67 57.4563 118.117C57.6824 118.456 57.8164 118.849 57.8451 119.255C57.8615 119.621 57.7749 119.985 57.5952 120.304C57.3942 120.649 57.1101 120.937 56.7689 121.144Z" fill="white"/>
<path d="M59.4014 119.353L54.4922 111.631L56.4087 110.416C56.782 110.149 57.2217 109.991 57.6794 109.958C58.0645 109.951 58.4409 110.073 58.7487 110.305C59.121 110.587 59.4347 110.938 59.6722 111.34C59.9186 111.695 60.0758 112.105 60.1305 112.534C60.1825 112.909 60.1144 113.29 59.9361 113.624C59.7269 114.002 59.4199 114.316 59.0473 114.534L58.1932 115.075L60.4777 118.665L59.4014 119.353ZM57.7071 114.305L58.2001 113.985C58.4656 113.841 58.7013 113.648 58.8945 113.416C58.9604 113.33 59.0074 113.231 59.0325 113.126C59.0576 113.021 59.0603 112.911 59.0403 112.805C58.9766 112.513 58.8563 112.237 58.6862 111.992C58.5173 111.702 58.3094 111.435 58.0682 111.201C57.991 111.124 57.8966 111.066 57.7929 111.032C57.6891 110.998 57.5789 110.99 57.4711 111.006C57.1559 111.075 56.8581 111.207 56.5961 111.395L56.0893 111.722L57.7071 114.305Z" fill="white"/>
<path d="M66.0042 115.277C65.5817 115.574 65.0827 115.742 64.5669 115.763C64.121 115.757 63.6902 115.601 63.3448 115.319C62.9303 114.977 62.5759 114.569 62.2963 114.11L60.4353 111.187C60.1408 110.748 59.929 110.258 59.8104 109.743C59.7088 109.321 59.7553 108.877 59.9423 108.486C60.1851 108.033 60.5509 107.657 60.9978 107.403C61.4179 107.105 61.9142 106.934 62.4282 106.91C62.8617 106.911 63.2822 107.058 63.6225 107.326C64.0354 107.652 64.386 108.049 64.6571 108.5L66.525 111.437C66.8158 111.879 67.0294 112.368 67.1569 112.881C67.2597 113.315 67.2207 113.77 67.0458 114.18C66.8141 114.64 66.4518 115.022 66.0042 115.277ZM65.4696 114.43C65.708 114.297 65.896 114.09 66.0042 113.84C66.0815 113.615 66.0815 113.37 66.0042 113.145C65.9036 112.866 65.7683 112.6 65.6015 112.354L63.4559 108.965C63.2991 108.714 63.1151 108.481 62.9073 108.271C62.7477 108.108 62.5368 108.005 62.3101 107.979C62.0375 107.979 61.772 108.066 61.5533 108.229C61.316 108.361 61.1246 108.562 61.0047 108.805C60.9199 109.029 60.9199 109.276 61.0047 109.5C61.1015 109.776 61.2321 110.04 61.3936 110.284L63.5461 113.666C63.7018 113.92 63.8884 114.153 64.1016 114.36C64.2635 114.53 64.4796 114.638 64.7127 114.666C64.9838 114.67 65.2491 114.588 65.4696 114.43Z" fill="white"/>
<path d="M69.1163 113.18L64.207 105.458L65.7624 104.465C66.1831 104.178 66.6543 103.973 67.1512 103.861C67.5492 103.782 67.9623 103.846 68.3177 104.042C68.7299 104.298 69.0712 104.654 69.3107 105.076C69.4907 105.347 69.6332 105.642 69.7343 105.951C69.8276 106.211 69.8585 106.49 69.8245 106.764C69.7827 107.02 69.6723 107.26 69.5051 107.458L73.0603 110.631L72.0257 111.291L68.7135 108.312L67.8733 108.84L70.1717 112.464L69.1163 113.18ZM67.4012 108.097L67.8108 107.84C68.0776 107.689 68.3133 107.489 68.5052 107.25C68.6422 107.061 68.7019 106.828 68.6719 106.597C68.6174 106.288 68.4966 105.994 68.3177 105.736C68.1267 105.375 67.8215 105.087 67.4498 104.917C67.2422 104.883 67.0299 104.895 66.8273 104.951C66.6248 105.008 66.4368 105.107 66.2763 105.243L65.7972 105.542L67.4012 108.097Z" fill="white"/>
<path d="M74.9408 109.492L70.5384 102.549L69.233 103.382L68.6914 102.604L72.3438 100.278L72.8507 101.084L71.58 101.889L75.9823 108.833L74.9408 109.492Z" fill="white"/>
<path d="M102.595 157.537C105.631 144.521 97.5406 131.509 84.5253 128.473C71.51 125.437 58.4979 133.527 55.4619 146.543C52.426 159.558 60.5158 172.57 73.5312 175.606C86.5465 178.642 99.5586 170.552 102.595 157.537Z" stroke="white" stroke-miterlimit="10"/>
<path d="M92.0017 172.467C96.8371 169.394 94.9452 157.759 87.7762 146.479C80.6071 135.2 70.8756 128.548 66.0403 131.621C61.205 134.695 63.0968 146.33 70.2659 157.609C77.4349 168.888 87.1664 175.54 92.0017 172.467Z" stroke="white" stroke-miterlimit="10"/>
<path d="M57.3867 141.51L78.8082 127.893" stroke="white" stroke-miterlimit="10"/>
<path d="M54.9785 155.315L92.3289 131.567" stroke="white" stroke-miterlimit="10"/>
<path d="M65.8379 172.41L103.195 148.662" stroke="white" stroke-miterlimit="10"/>
<path d="M58.5547 165.043L99.627 138.941" stroke="white" stroke-miterlimit="10"/>
<path d="M79.5586 176.389L100.98 162.772" stroke="white" stroke-miterlimit="10"/>
<path d="M191.799 285.166C222.083 254.881 222.083 205.781 191.799 175.497C161.514 145.212 112.414 145.212 82.1295 175.497C51.8452 205.781 51.8452 254.881 82.1295 285.166C112.414 315.45 161.514 315.45 191.799 285.166Z" fill="#008753" stroke="#263238" stroke-linecap="round" stroke-linejoin="round"/>
<path d="M121.389 302.077C125.546 302.982 129.775 303.521 134.026 303.688" stroke="#263238" stroke-linecap="round" stroke-linejoin="round"/>
<path d="M111.883 299.321C113.989 300.085 116.128 300.756 118.299 301.335" stroke="#263238" stroke-linecap="round" stroke-linejoin="round"/>
<path d="M66.3524 210.246C61.4184 227.627 63.0639 246.216 70.9742 262.459C78.8846 278.703 92.5046 291.46 109.23 298.293" stroke="#263238" stroke-linecap="round" stroke-linejoin="round"/>
<path d="M76.2185 189.131C73.5665 193.04 71.297 197.195 69.4414 201.539" stroke="#263238" stroke-linecap="round" stroke-linejoin="round"/>
<path d="M126.457 195.887L134.359 197.525L137.053 200.324L140.567 200.865L141.685 204.198L140.865 206.455L138.47 207.552L132.602 206.594L132.443 205.872L135.22 203.935L133.304 200.4L128.054 199.685L125.256 197.289L126.457 195.887Z" fill="white"/>
<path d="M190.166 268.838L183.917 267.782L176.32 266.824L170.765 268.06L165.314 268.136L159.85 270.671L156.655 271.574L154.677 272.011L151.385 275.004L148.108 277.24L142.553 275.261L142.692 269.949L139.359 269.372L135.769 270.171L134.866 268.671L134.512 265.359L132.852 263.845L130.415 264.762L130.096 266.72L127.082 267.574L123.666 264.942L121.631 260.866L123.214 255.235L128.499 254.436L130.221 255.381L132.373 254.902L134.713 252.687L137.206 252.881L141.678 257.742L142.893 257.283L141.615 253.228L140.06 251.312L139.664 247.84L145.67 243.493L145.094 236.647L147.448 233.668L148.837 229.015L150.559 228.259L154.086 224.648L153.947 223.169L151.114 223.988L150.26 222.669L148.281 223.106L145.386 224.495L146.302 221.836L152.191 218.641L153.274 216.711L156.662 220.1L158.641 221.363L160.995 220.086L159.398 218.003L155.031 216.142L149.642 212.253L144.469 210.17L139.997 210.413L137.435 208.726L134.38 208.635L134.179 209.434L134.977 214.725L136.095 216.357L135.755 222.467L131.519 220.384V217.746L127.353 216.787L125.27 215.17L125.166 210.483L129.54 205.552L128.943 201.157L127.006 201.775L125.388 200.442L124.242 197.887L122.944 197.984L122.853 200.997L120.958 201.796L118.687 195.727L117.055 195.151L114.278 194.63L111.723 196.713L116.076 199.331L117.465 202.226L109.917 198.81L104.362 194.956L102.925 190.186L97.9322 189.783L94.8631 192.915C94.1076 193.636 93.3149 194.318 92.4883 194.956C91.1416 195.614 89.7492 196.173 88.3221 196.63L88.2804 199.845L84.1836 200.942L84.9821 202.837L91.8703 202.442L96.1199 205.455L97.5086 211.746L96.7657 217.753L98.4391 223.599L95.363 233.522L97.2031 246.875L100.494 254.061L104.105 259.297L106.883 259.054L105.341 256.381L103.432 254.541L101.654 250.791L103.189 250.097L107.14 256.006L110.216 261.359L111.25 266.032L115.583 269.407L122.728 272.518L132.63 272.955L136.102 275.039L138.88 277.434L142.553 278.691L146.719 278.892L150.628 277.83C150.628 277.83 150.851 279.67 151.045 280.566C151.239 281.461 149.406 285.079 149.406 285.079L148.233 289.114L150.545 292.745L154.857 293.481L161.704 297.995L164.481 298.515L165.078 301.21L165.668 302.397C179.146 297.037 190.842 287.988 199.415 276.288L199.221 274.962L202.116 265.081L199.422 263.984L190.166 268.838Z" fill="white"/>
<path d="M193.09 193.72L190.355 190.748L186.959 187.353L185.05 182.124L188.403 181.944L188.181 180.11L185.806 180.451L187.584 179.111L189.459 177.375L189.063 175.576L186.286 173.181L184.966 169.417C171.687 158.96 155.356 153.125 138.457 152.801C121.558 152.476 105.015 157.679 91.3437 167.619L96.1349 169.632L94.3434 173.431L91.0868 174.903L91.7812 179.833L90.4688 180.694L89.0801 183.068L89.9758 186.263L93.1144 185.943L92.5311 189.276L95.5864 188.582L99.3221 180.777L99.2249 177.777L104.176 176.305L104.953 173.868L110.043 172.174L109.904 169L113.633 167.98C113.633 167.98 116.015 165.945 116.55 165.827C117.639 165.818 118.728 165.89 119.806 166.042L122.979 167.605L126.75 166.765L129.527 164.07L133.735 163.515C134.416 163.778 135.149 163.873 135.874 163.793C136.77 163.591 139.186 161.71 139.186 161.71L145.116 163.793L147.63 164.931L148.227 167.626L151.004 167.383L151.546 165.57L154.122 166.126L154.261 167.605L149.185 170.243L153.122 173.514L160.385 175.673L163.857 178.666L167.892 178.145L168.392 176.153L169.746 175.458L164.281 172.903L161.323 173.181L163.496 171.945L160.663 169.368L163.677 168.514L168.114 169.792L169.968 173.903L172.461 175.798L175.238 180.659L179.828 182.652L181.14 188.582L185.876 190.359L186.133 192.373V194.831L187.931 197.824L188.626 199.365L191.799 199.227L192.563 195.852L193.09 193.72Z" fill="white"/>
<path d="M191.403 175.104L191.632 176.138L191.375 179.207L192.472 181.603L194.611 181.888L195.368 185.297L193.014 184.881L194.625 194.699L193.347 199.136L195.902 203.844L198.715 205.483L200.874 215.204L204.881 222.231L208.672 227.425L213.046 227.585L213.685 223.668L214.171 223.085C213.867 219.861 213.363 216.658 212.665 213.496C209.441 198.911 202.055 185.574 191.403 175.104Z" fill="white"/>
<path d="M149.657 183.2L136.637 180.617L131.471 181.957L130.971 185.651L128.291 183.79L124.541 185.568L125.499 191.581L129.249 193.192L130.825 189.262L134.123 191.359L140.769 194.97L143.004 199.942L148.99 204.837L156.26 201.9L155.482 199.247L153.184 196.553L151.226 189.443L152.351 185.992L149.657 183.2Z" fill="white"/>
<path d="M160.232 184.992L157.378 184.874L155.482 187.374L157.899 192.304L160.232 191.783V184.992Z" fill="white"/>
<path d="M177.703 184.701L170.871 182.819L169.135 180.944L167.822 181.805L169.878 185.117L171.989 189.547L174.926 190.027L175.308 189.193L173.086 186.853L178.161 187.617L177.703 184.701Z" fill="white"/>
<path d="M139.644 261.207L139.082 262.089L144.831 262.505L147.546 264.54L151.039 264.144L151.859 261.887L147.567 262.089L139.644 261.207Z" fill="white"/>
<path d="M156.392 261.068L152.857 262.984L153.712 264.303L158.385 263.269L158.961 261.63L157.385 262.172L156.392 261.068Z" fill="white"/>
<path d="M126.457 195.887L134.359 197.525L137.053 200.324L140.567 200.865L141.685 204.198L140.865 206.455L138.47 207.552L132.602 206.594L132.443 205.872L135.22 203.935L133.304 200.4L128.054 199.685L125.256 197.289L126.457 195.887Z" stroke="#263238" stroke-linecap="round" stroke-linejoin="round"/>
<path d="M190.166 268.838L183.917 267.782L176.32 266.824L170.765 268.06L165.314 268.136L159.85 270.671L156.655 271.574L154.677 272.011L151.385 275.004L148.108 277.24L142.553 275.261L142.692 269.949L139.359 269.372L135.769 270.171L134.866 268.671L134.512 265.359L132.852 263.845L130.415 264.762L130.096 266.72L127.082 267.574L123.666 264.942L121.631 260.866L123.214 255.235L128.499 254.436L130.221 255.381L132.373 254.902L134.713 252.687L137.206 252.881L141.678 257.742L142.893 257.283L141.615 253.228L140.06 251.312L139.664 247.84L145.67 243.493L145.094 236.647L147.448 233.668L148.837 229.015L150.559 228.259L154.086 224.648L153.947 223.169L151.114 223.988L150.26 222.669L148.281 223.106L145.386 224.495L146.302 221.836L152.191 218.641L153.274 216.711L156.662 220.1L158.641 221.363L160.995 220.086L159.398 218.003L155.031 216.142L149.642 212.253L144.469 210.17L139.997 210.413L137.435 208.726L134.38 208.635L134.179 209.434L134.977 214.725L136.095 216.357L135.755 222.467L131.519 220.384V217.746L127.353 216.787L125.27 215.17L125.166 210.483L129.54 205.552L128.943 201.157L127.006 201.775L125.388 200.442L124.242 197.887L122.944 197.984L122.853 200.997L120.958 201.796L118.687 195.727L117.055 195.151L114.278 194.63L111.723 196.713L116.076 199.331L117.465 202.226L109.917 198.81L104.362 194.956L102.925 190.186L97.9322 189.783L94.8631 192.915C94.1076 193.636 93.3149 194.318 92.4883 194.956C91.1416 195.614 89.7492 196.173 88.3221 196.63L88.2804 199.845L84.1836 200.942L84.9821 202.837L91.8703 202.442L96.1199 205.455L97.5086 211.746L96.7657 217.753L98.4391 223.599L95.363 233.522L97.2031 246.875L100.494 254.061L104.105 259.297L106.883 259.054L105.341 256.381L103.432 254.541L101.654 250.791L103.189 250.097L107.14 256.006L110.216 261.359L111.25 266.032L115.583 269.407L122.728 272.518L132.63 272.955L136.102 275.039L138.879 277.434L142.553 278.691L146.719 278.892L150.628 277.83C150.628 277.83 150.851 279.67 151.045 280.566C151.239 281.461 149.406 285.079 149.406 285.079L148.233 289.114L150.545 292.745L154.857 293.481L161.704 297.995L164.481 298.515L165.078 301.21L165.668 302.397C179.146 297.037 190.842 287.988 199.415 276.288L199.221 274.962L202.116 265.081L199.422 263.984L190.166 268.838Z" stroke="#263238" stroke-linecap="round" stroke-linejoin="round"/>
<path d="M193.09 193.72L190.355 190.748L186.959 187.353L185.05 182.124L188.403 181.944L188.181 180.11L185.806 180.451L187.584 179.111L189.459 177.375L189.063 175.576L186.286 173.181L184.966 169.417C171.687 158.96 155.356 153.125 138.457 152.801C121.558 152.476 105.015 157.679 91.3437 167.619L96.1349 169.632L94.3434 173.431L91.0868 174.903L91.7812 179.833L90.4688 180.694L89.0801 183.068L89.9758 186.263L93.1144 185.943L92.5311 189.276L95.5864 188.582L99.3221 180.777L99.2249 177.777L104.176 176.305L104.953 173.868L110.043 172.174L109.904 169L113.633 167.98C113.633 167.98 116.015 165.945 116.55 165.827C117.639 165.818 118.728 165.89 119.806 166.042L122.979 167.605L126.75 166.765L129.527 164.07L133.735 163.515C134.416 163.778 135.149 163.873 135.874 163.793C136.77 163.591 139.186 161.71 139.186 161.71L145.116 163.793L147.63 164.931L148.227 167.626L151.004 167.383L151.546 165.57L154.122 166.126L154.261 167.605L149.185 170.243L153.122 173.514L160.385 175.673L163.857 178.666L167.892 178.145L168.392 176.153L169.746 175.458L164.281 172.903L161.323 173.181L163.496 171.945L160.663 169.368L163.677 168.514L168.114 169.792L169.968 173.903L172.461 175.798L175.238 180.659L179.828 182.652L181.14 188.582L185.876 190.359L186.133 192.373V194.831L187.931 197.824L188.626 199.365L191.799 199.227L192.563 195.852L193.09 193.72Z" stroke="#263238" stroke-linecap="round" stroke-linejoin="round"/>
<path d="M191.403 175.104L191.632 176.138L191.375 179.207L192.472 181.603L194.611 181.888L195.368 185.297L193.014 184.881L194.625 194.699L193.347 199.136L195.902 203.844L198.715 205.483L200.874 215.204L204.881 222.231L208.672 227.425L213.046 227.585L213.685 223.668L214.171 223.085C213.867 219.861 213.363 216.658 212.665 213.496C209.441 198.911 202.055 185.574 191.403 175.104Z" stroke="#263238" stroke-linecap="round" stroke-linejoin="round"/>
<path d="M149.657 183.2L136.637 180.617L131.471 181.957L130.971 185.651L128.291 183.79L124.541 185.568L125.499 191.581L129.249 193.192L130.825 189.262L134.123 191.359L140.769 194.97L143.004 199.942L148.99 204.837L156.26 201.9L155.482 199.247L153.184 196.553L151.226 189.443L152.351 185.992L149.657 183.2Z" stroke="#263238" stroke-linecap="round" stroke-linejoin="round"/>
<path d="M160.232 184.992L157.378 184.874L155.482 187.374L157.899 192.304L160.232 191.783V184.992Z" stroke="#263238" stroke-linecap="round" stroke-linejoin="round"/>
<path d="M177.703 184.701L170.871 182.819L169.135 180.944L167.822 181.805L169.878 185.117L171.989 189.547L174.926 190.027L175.308 189.193L173.086 186.853L178.161 187.617L177.703 184.701Z" stroke="#263238" stroke-linecap="round" stroke-linejoin="round"/>
<path d="M139.644 261.207L139.082 262.089L144.831 262.505L147.546 264.54L151.039 264.144L151.859 261.887L147.567 262.089L139.644 261.207Z" stroke="#263238" stroke-linecap="round" stroke-linejoin="round"/>
<path d="M156.392 261.068L152.857 262.984L153.712 264.303L158.385 263.269L158.961 261.63L157.385 262.172L156.392 261.068Z" stroke="#263238" stroke-linecap="round" stroke-linejoin="round"/>
<path d="M209.108 177.742C207.697 177.742 206.299 178.021 204.995 178.561C203.691 179.102 202.507 179.895 201.51 180.894C200.513 181.893 199.722 183.079 199.184 184.384C198.646 185.688 198.37 187.087 198.373 188.498C198.373 194.428 209.108 206.392 209.108 206.392C209.108 206.392 219.85 194.428 219.85 188.498C219.852 187.086 219.575 185.688 219.036 184.383C218.497 183.078 217.706 181.892 216.709 180.893C215.711 179.894 214.526 179.102 213.222 178.561C211.918 178.021 210.52 177.742 209.108 177.742ZM209.108 193.206C208.171 193.21 207.254 192.936 206.473 192.418C205.692 191.9 205.083 191.161 204.723 190.297C204.362 189.432 204.267 188.479 204.448 187.56C204.63 186.641 205.081 185.796 205.744 185.134C206.406 184.471 207.251 184.02 208.17 183.838C209.089 183.657 210.042 183.752 210.907 184.113C211.771 184.473 212.51 185.082 213.028 185.863C213.546 186.644 213.82 187.561 213.816 188.498C213.812 189.746 213.315 190.941 212.433 191.823C211.551 192.705 210.356 193.202 209.108 193.206Z" fill="#263238" stroke="#263238" stroke-miterlimit="10"/>
<path d="M125.805 205.302C123.32 205.302 120.938 206.289 119.181 208.046C117.424 209.803 116.438 212.185 116.438 214.669C116.438 219.843 125.805 230.279 125.805 230.279C125.805 230.279 135.172 219.863 135.172 214.669C135.172 212.185 134.185 209.803 132.428 208.046C130.671 206.289 128.289 205.302 125.805 205.302ZM125.805 218.794C124.989 218.794 124.191 218.552 123.513 218.099C122.835 217.646 122.306 217.002 121.994 216.248C121.682 215.494 121.6 214.665 121.759 213.865C121.918 213.065 122.311 212.33 122.888 211.753C123.465 211.176 124.2 210.783 125 210.624C125.8 210.465 126.629 210.547 127.383 210.859C128.137 211.171 128.781 211.7 129.234 212.378C129.687 213.056 129.929 213.854 129.929 214.669C129.929 215.763 129.495 216.812 128.721 217.586C127.948 218.36 126.899 218.794 125.805 218.794Z" fill="#263238" stroke="#263238" stroke-miterlimit="10"/>
<path d="M161.225 278.351C159.975 278.351 158.777 278.847 157.893 279.73C157.009 280.612 156.512 281.81 156.51 283.059C156.51 285.663 161.225 290.912 161.225 290.912C161.225 290.912 165.932 285.663 165.932 283.059C165.931 281.811 165.434 280.615 164.552 279.732C163.669 278.85 162.473 278.353 161.225 278.351ZM161.225 285.135C160.813 285.135 160.41 285.013 160.067 284.784C159.725 284.555 159.458 284.23 159.3 283.849C159.142 283.469 159.101 283.05 159.181 282.646C159.262 282.242 159.46 281.87 159.752 281.579C160.043 281.288 160.414 281.089 160.818 281.009C161.222 280.929 161.641 280.97 162.022 281.127C162.402 281.285 162.728 281.552 162.957 281.895C163.186 282.237 163.308 282.64 163.308 283.052C163.308 283.326 163.254 283.596 163.149 283.849C163.044 284.102 162.891 284.332 162.698 284.525C162.504 284.718 162.274 284.872 162.022 284.977C161.769 285.081 161.498 285.135 161.225 285.135Z" fill="#263238" stroke="#263238" stroke-miterlimit="10"/>
<path d="M102.634 234.848C101.384 234.85 100.187 235.348 99.3043 236.232C98.4216 237.116 97.9258 238.314 97.9258 239.563C97.9258 242.167 102.634 247.417 102.634 247.417C102.634 247.417 107.348 242.167 107.348 239.563C107.348 238.313 106.852 237.113 105.968 236.229C105.083 235.345 103.884 234.848 102.634 234.848ZM102.634 241.639C102.222 241.639 101.819 241.517 101.476 241.288C101.134 241.059 100.867 240.734 100.709 240.353C100.551 239.973 100.51 239.554 100.591 239.15C100.671 238.746 100.869 238.375 101.161 238.083C101.452 237.792 101.823 237.593 102.227 237.513C102.631 237.433 103.05 237.474 103.431 237.632C103.811 237.789 104.137 238.056 104.366 238.399C104.595 238.741 104.717 239.144 104.717 239.556C104.717 240.109 104.497 240.639 104.107 241.029C103.716 241.42 103.186 241.639 102.634 241.639Z" fill="#263238" stroke="#263238" stroke-miterlimit="10"/>
<path d="M119.298 254.679C118.679 254.679 118.066 254.801 117.494 255.038C116.923 255.275 116.404 255.623 115.966 256.061C115.529 256.499 115.182 257.018 114.946 257.59C114.71 258.162 114.589 258.775 114.59 259.394C114.59 261.998 119.298 267.247 119.298 267.247C119.298 267.247 124.013 261.998 124.013 259.394C124.013 258.144 123.516 256.944 122.632 256.06C121.747 255.176 120.548 254.679 119.298 254.679ZM119.298 261.47C118.886 261.47 118.483 261.348 118.14 261.119C117.798 260.89 117.531 260.565 117.373 260.184C117.215 259.804 117.174 259.385 117.255 258.981C117.335 258.577 117.533 258.205 117.825 257.914C118.116 257.623 118.487 257.424 118.891 257.344C119.295 257.264 119.714 257.305 120.095 257.463C120.476 257.62 120.801 257.887 121.03 258.23C121.259 258.572 121.381 258.975 121.381 259.387C121.381 259.94 121.161 260.469 120.771 260.86C120.38 261.251 119.85 261.47 119.298 261.47Z" fill="#263238" stroke="#263238" stroke-miterlimit="10"/>
<path d="M177.826 263.581C177.092 263.581 176.365 263.726 175.687 264.007C175.009 264.288 174.393 264.699 173.874 265.218C173.354 265.738 172.943 266.354 172.662 267.032C172.381 267.71 172.236 268.437 172.236 269.171C172.236 272.254 177.826 278.476 177.826 278.476C177.826 278.476 183.381 272.226 183.381 269.171C183.386 268.439 183.245 267.712 182.968 267.035C182.691 266.357 182.283 265.74 181.766 265.221C181.25 264.701 180.636 264.289 179.96 264.007C179.284 263.726 178.558 263.581 177.826 263.581ZM177.826 271.629C177.338 271.63 176.86 271.487 176.454 271.217C176.048 270.946 175.73 270.561 175.543 270.111C175.356 269.66 175.306 269.164 175.401 268.685C175.496 268.206 175.731 267.766 176.076 267.421C176.421 267.076 176.861 266.841 177.34 266.746C177.819 266.651 178.315 266.701 178.766 266.888C179.216 267.075 179.601 267.392 179.872 267.799C180.142 268.205 180.286 268.683 180.284 269.171C180.284 269.494 180.221 269.813 180.097 270.112C179.973 270.41 179.792 270.681 179.564 270.909C179.336 271.137 179.065 271.318 178.767 271.442C178.468 271.565 178.149 271.629 177.826 271.629Z" fill="#263238" stroke="#263238" stroke-miterlimit="10"/>
<path d="M177.417 156.78C176.102 156.78 174.841 157.302 173.911 158.232C172.981 159.161 172.459 160.422 172.459 161.737C172.459 164.515 177.417 170.007 177.417 170.007C177.417 170.007 182.382 164.452 182.382 161.737C182.38 160.422 181.856 159.161 180.925 158.231C179.994 157.302 178.732 156.78 177.417 156.78ZM177.417 163.925C176.984 163.925 176.561 163.796 176.202 163.556C175.842 163.316 175.562 162.974 175.396 162.574C175.23 162.175 175.187 161.735 175.272 161.311C175.356 160.886 175.564 160.497 175.87 160.191C176.176 159.885 176.566 159.677 176.99 159.592C177.414 159.508 177.854 159.551 178.254 159.717C178.654 159.882 178.995 160.162 179.235 160.522C179.476 160.882 179.604 161.305 179.604 161.737C179.604 162.317 179.374 162.874 178.963 163.284C178.553 163.694 177.997 163.925 177.417 163.925Z" fill="#263238" stroke="#263238" stroke-miterlimit="10"/>
<path d="M92.5019 187.804C91.8502 187.803 91.2048 187.931 90.6025 188.179C90.0002 188.428 89.4528 188.793 88.9917 189.254C88.5306 189.714 88.1647 190.261 87.9152 190.863C87.6656 191.465 87.5371 192.11 87.5371 192.762C87.5371 195.504 92.5019 201.032 92.5019 201.032C92.5019 201.032 97.4597 195.477 97.4597 192.762C97.4597 191.447 96.9374 190.186 96.0076 189.256C95.0778 188.326 93.8168 187.804 92.5019 187.804ZM92.5019 194.949C92.069 194.95 91.6454 194.823 91.2848 194.584C90.9242 194.344 90.6428 194.003 90.4762 193.604C90.3096 193.204 90.2652 192.764 90.3489 192.339C90.4325 191.915 90.6402 191.524 90.9458 191.218C91.2515 190.911 91.6412 190.702 92.0657 190.617C92.4901 190.532 92.9303 190.575 93.3304 190.74C93.7305 190.906 94.0725 191.186 94.3131 191.546C94.5538 191.906 94.6822 192.329 94.6822 192.762C94.6822 193.341 94.4527 193.896 94.044 194.306C93.6354 194.716 93.0808 194.947 92.5019 194.949Z" fill="#263238" stroke="#263238" stroke-miterlimit="10"/>
<path d="M151.364 80.9611C151.364 80.9611 150.933 120.054 150.933 126.512C150.933 132.97 150.398 139.219 150.398 139.219C150.398 139.219 152.336 140.608 152.009 142.233C151.648 143.61 151.143 144.946 150.503 146.218C149.762 146.051 148.998 146.016 148.246 146.114C147.489 146.33 142.969 148.371 142.212 148.371C141.455 148.371 141.136 149.017 140.92 146.982C140.686 145.161 140.614 143.323 140.705 141.49C140.84 139.853 141.093 138.229 141.462 136.629L136.935 87.2035L135.858 135.338C135.858 135.338 136.074 138.247 136.4 138.809C136.828 139.58 137.119 140.419 137.261 141.288C137.261 141.823 136.289 146.885 135.872 147.1C135.456 147.316 134.15 148.072 134.15 148.072C134.15 148.072 133.289 147.857 132.102 146.35C130.914 144.844 128.123 144.962 127.581 145.163L127.04 145.378C127.04 145.378 125.429 143.441 125.102 142.038C124.776 140.636 126.936 140.531 126.824 136.761C126.713 132.991 123.478 101.008 123.478 101.008L122.721 79.482L151.579 78.621L151.364 80.9611Z" fill="#263238" stroke="#263238" stroke-miterlimit="10"/>
<path d="M140.06 30.9933L128.54 31.7502L128.109 80.9605C128.109 80.9605 128.97 81.7174 136.074 81.8215C143.177 81.9257 144.691 81.0716 144.691 81.0716L140.06 30.9933Z" fill="white" stroke="#263238" stroke-miterlimit="10"/>
<path d="M139.352 6.75974C139.352 6.75974 142.171 10.7385 142.129 11.3426C142.05 11.9371 141.934 12.5261 141.782 13.1063C141.782 13.1063 144.851 16.2727 144.559 16.5296L142.851 17.9878C142.851 17.9878 142.9 20.9528 142.9 21.411C142.9 21.8693 143.553 23.022 143.351 23.4942C143.118 24.0095 142.796 24.4797 142.4 24.8829C142.046 25.1815 139.477 25.1329 139.477 25.1329L139.428 29.2089C139.428 29.2089 139.879 31.7781 139.477 32.6808C139.074 33.5834 137.914 34.2917 134.998 34.4445C132.081 34.5972 130.658 33.6043 129.804 32.896C128.95 32.1877 129.061 25.6884 129.005 24.6816C128.95 23.6747 128.908 21.7582 128.353 20.9042C127.797 20.0501 124.186 13.9604 123.575 12.4467C122.964 10.9329 122.916 9.37753 124.075 8.0235C125.235 6.66947 126.693 6.05842 126.853 5.30155C127.013 4.54469 126.853 3.79476 127.957 3.44063C128.761 3.22932 129.598 3.17742 130.422 3.28787C130.422 3.28787 132.54 0.725625 133.644 1.02421L134.755 1.32279C134.755 1.32279 137.824 0.468706 139.435 1.82968C141.046 3.19066 141.365 5.35016 139.352 6.75974Z" fill="white" stroke="#263238" stroke-miterlimit="10"/>
<path d="M139.928 13.8771C139.928 14.5159 140.122 15.0367 140.372 15.0367C140.622 15.0367 140.817 14.5159 140.817 13.8771C140.817 13.2382 140.615 12.7105 140.372 12.7105C140.129 12.7105 139.928 13.2313 139.928 13.8771Z" fill="#263238" stroke="#263238" stroke-miterlimit="10"/>
<path d="M126.819 5.30155C126.964 4.54469 126.819 3.79476 127.923 3.44063C128.726 3.22932 129.564 3.17742 130.388 3.28787C130.388 3.28787 132.505 0.725625 133.61 1.02421L134.721 1.32279C134.721 1.32279 137.79 0.468706 139.401 1.82968C141.012 3.19066 141.366 5.35016 139.352 6.75974C139.352 6.75974 133.797 7.36385 134.491 8.37069C135.186 9.37753 135.498 10.183 134.95 10.4538C134.401 10.7246 131.881 12.0092 132.13 12.6133C132.38 13.2174 132.63 14.8284 132.283 14.9325C131.936 15.0367 131.978 14.8284 130.895 14.0229C129.811 13.2174 128.575 13.8215 128.429 15.4117C128.374 15.9903 128.511 16.5712 128.82 17.0636C129.129 17.556 129.592 17.9323 130.138 18.1336C130.693 18.2308 130.388 20.2167 129.332 20.9528C129.09 21.114 128.829 21.2446 128.554 21.3416C128.495 21.17 128.418 21.0048 128.325 20.8486C127.77 19.9945 124.159 13.9049 123.548 12.3911C122.937 10.8774 122.888 9.32198 124.048 7.96795C125.208 6.61392 126.666 6.05842 126.819 5.30155Z" fill="#263238" stroke="#263238" stroke-miterlimit="10"/>
<path d="M142.296 19.5429C142.296 19.5429 140.032 19.9456 138.727 18.3416" stroke="#263238" stroke-miterlimit="10"/>
<path d="M139.45 25.1332L134.818 23.675L139.353 28.2509L139.45 25.1332Z" fill="#263238" stroke="#263238" stroke-miterlimit="10"/>
<path d="M141.012 11.3147C141.012 11.3147 139.373 10.419 138.422 11.766" stroke="#263238" stroke-miterlimit="10"/>
<path d="M151.747 49.7418C151.747 49.7418 158.031 60.2685 158.205 62.303C158.379 64.3376 154.893 71.3299 153.872 71.559C152.851 71.7882 149.963 68.5038 149.629 67.1428C149.296 65.7819 148.775 50.4223 149.372 49.0891C149.97 47.7559 151.747 49.7418 151.747 49.7418Z" fill="#263238" stroke="#263238" stroke-miterlimit="10"/>
<path d="M141.324 30.8759L147.351 31.3342C147.351 31.3342 150.671 30.5634 151.67 30.8759C152.67 31.1884 166.884 36.667 168.433 37.7502C169.981 38.8334 169.745 42.7636 169.356 44.3884C169.223 44.9553 168.91 45.4641 168.465 45.8393C168.02 46.2145 167.465 46.4363 166.884 46.4716C166.19 46.5479 151.83 45.6244 151.83 45.6244L155.531 83.2318L147.81 85.7315L142.331 86.4259L139.623 39.5486L141.324 30.8759Z" fill="#008753" stroke="#263238" stroke-miterlimit="10"/>
<path d="M139.352 28.2573L141.324 30.8751C141.324 30.8751 141.554 34.8122 141.019 36.4301C140.641 37.521 140.177 38.5798 139.63 39.5965L137.158 33.8818C138.219 32.1525 138.962 30.2478 139.352 28.2573Z" fill="#008753" stroke="#263238" stroke-miterlimit="10"/>
<path d="M129.797 41.0482L130.491 86.5922C130.491 86.5922 123.7 85.8284 121.464 84.891C120.19 84.3589 118.943 83.7633 117.729 83.1065C117.729 83.1065 119.937 66.4415 120.02 65.1083C120.103 63.7751 120.103 62.6432 120.103 62.6432C120.103 62.6432 115.097 64.4278 113.229 63.8376C111.361 63.2473 111.104 61.2892 111.278 58.8242C111.377 57.4607 111.39 56.0925 111.32 54.7274C111.32 54.3038 111.826 47.2698 113.868 42.0064C115.909 36.743 114.673 36.5764 116.118 35.6459C117.562 34.7155 128.089 30.9728 128.089 30.9728L129.276 33.4378L129.797 41.0482Z" fill="#008753" stroke="#263238" stroke-miterlimit="10"/>
<path d="M121.778 33.5209C121.778 33.5209 123.305 51.5191 121.521 57.463L118.743 57.5532C118.917 59.6364 120.181 55.9353 120.521 44.6448C120.667 39.7842 118.486 34.625 118.486 34.625C119.555 34.1761 120.655 33.807 121.778 33.5209Z" fill="#263238" stroke="#263238" stroke-miterlimit="10"/>
<path d="M129.199 28.5352C129.199 28.5352 130.206 31.0836 130.817 32.3959C131.428 33.7083 131.88 34.5624 131.88 34.5624L129.797 41.0479C128.929 38.6484 128.29 36.1724 127.887 33.6528C127.575 30.7156 127.297 31.1669 127.297 31.1669C127.297 31.1669 128.658 27.9936 129.199 28.5352Z" fill="#008753" stroke="#263238" stroke-miterlimit="10"/>
<path d="M150.129 20.0432C149.505 19.8298 148.908 19.5431 148.351 19.1891C147.886 18.8072 146.963 17.3351 146.65 17.0296C146.338 16.724 144.81 17.2587 144.567 16.5296C144.324 15.8005 144.15 15.0506 145.067 15.2659C145.973 15.4286 146.89 15.526 147.81 15.5575L146.358 10.8149H153.017C153.017 10.8149 154.948 17.3837 154.948 17.9184C154.894 18.5181 154.792 19.1126 154.642 19.696C154.642 19.696 163.753 29.8894 165.683 32.4377C167.613 34.9861 170.009 38.4649 170.245 39.7773C170.481 41.0897 169.78 45.2559 168.162 45.7975C166.544 46.3391 165.072 45.7211 163.378 44.1032C161.683 42.4853 156.58 32.0558 156.35 31.667C156.121 31.2781 152.184 21.5499 151.948 21.2514C151.378 20.7969 150.769 20.3927 150.129 20.0432Z" fill="white" stroke="#263238" stroke-miterlimit="10"/>
<path d="M146.739 31.3964C146.739 31.3964 148.69 44.1382 150.815 50.4223C152.94 56.7064 154.717 60.6921 154.717 60.6921L153.787 66.2471C151.276 61.7048 149.146 56.9622 147.419 52.068C144.531 43.916 142.92 31.1812 142.92 31.1812L146.739 31.3964Z" fill="#263238" stroke="#263238" stroke-miterlimit="10"/>
<path d="M129.741 43.6033L132.032 63.9415L118.964 62.393L115.555 42.1242L129.741 43.6033Z" fill="white" stroke="#263238" stroke-miterlimit="10"/>
<path d="M128.06 43.7077L132.22 63.7473L119.054 63.4071L113.791 43.541L128.06 43.7077Z" fill="white" stroke="#263238" stroke-miterlimit="10"/>
<path d="M115.32 55.2619C116.753 56.0351 118.227 56.7305 119.736 57.345C120.416 57.6161 121.146 57.7413 121.878 57.7126C122.61 57.6839 123.328 57.5019 123.985 57.1784C124.729 56.8373 125.393 56.3455 125.936 55.7341C125.936 55.7341 126.36 53.4426 126.867 53.1024C127.374 52.7621 128.568 52.5052 129.075 51.7136C129.582 50.922 129.839 51.0193 130.012 51.797C130.186 52.5747 130.353 53.4148 129.839 53.7551C129.541 53.9511 129.329 54.2545 129.249 54.6022C129.249 54.6022 129.332 55.1994 130.012 54.9425C130.693 54.6856 131.117 53.8384 131.797 54.0953C131.947 54.1199 132.088 54.1795 132.21 54.2694C132.332 54.3593 132.431 54.4768 132.499 54.6124C132.567 54.7479 132.601 54.8976 132.6 55.0491C132.599 55.2007 132.561 55.3497 132.491 55.4841C132.297 55.9006 132.065 56.2981 131.797 56.6715C131.797 56.6715 132.644 58.6296 132.221 59.9003C131.797 61.171 129.672 61.9418 128.652 62.0251C127.631 62.1084 124.749 62.1917 124.749 62.1917C124.749 62.1917 120.583 63.5805 118.041 64.3165C115.5 65.0526 114.729 64.9137 113.285 63.8096C112.542 63.2356 111.996 62.4447 111.722 61.5465C111.448 60.6482 111.461 59.6871 111.757 58.7963C112.348 56.7895 113.028 55.6855 115.32 55.2619Z" fill="white" stroke="#263238" stroke-miterlimit="10"/>
<path d="M149.858 144.607C149.858 144.607 151.247 147.94 151.58 148.586C152.297 149.745 153.298 150.701 154.489 151.363C156.107 152.328 158.045 152.974 157.614 153.835C157.184 154.696 155.246 154.911 153.628 155.127C152.01 155.342 148.247 154.696 146.733 154.696C145.219 154.696 141.873 154.161 141.567 153.405C141.262 152.648 141.678 147.266 141.678 147.266C141.678 147.266 144.15 144.496 149.858 144.607Z" fill="white" stroke="#263238" stroke-miterlimit="10"/>
<path d="M141.601 153.433C141.481 152.853 141.441 152.259 141.483 151.669L145.364 152.821C147.739 153.416 150.159 153.811 152.6 154.002C154.285 154.088 155.971 153.825 157.551 153.231C157.63 153.314 157.682 153.419 157.699 153.532C157.717 153.645 157.699 153.761 157.648 153.863C157.217 154.724 155.28 154.939 153.662 155.155C152.044 155.37 148.281 154.724 146.767 154.724C145.253 154.724 141.892 154.189 141.601 153.433Z" fill="white" stroke="#263238" stroke-miterlimit="10"/>
<path d="M134.469 147.531C134.469 147.531 134.15 153.086 134.074 153.488C133.997 153.891 133.601 154.183 132.504 154.315C131.407 154.447 130.928 154.391 130.303 154.697C129.678 155.002 128.338 155.676 124.568 155.676C120.797 155.676 119.617 154.981 120.089 153.641C120.561 152.301 124.172 149.642 125.04 148.586C125.762 147.546 126.375 146.434 126.866 145.267C126.866 145.267 127.942 144.364 130.067 144.816C132.192 145.267 132.74 146.1 132.976 146.475C133.419 146.899 133.922 147.255 134.469 147.531Z" fill="white" stroke="#263238" stroke-miterlimit="10"/>
<path d="M120.076 153.669C120.108 153.58 120.148 153.494 120.194 153.412C120.561 153.802 120.999 154.118 121.486 154.342C122.874 155.037 128.485 154.648 129.742 153.967C131.178 153.335 132.659 152.808 134.172 152.391C134.13 152.988 134.096 153.433 134.075 153.53C133.998 153.905 133.603 154.224 132.505 154.356C131.408 154.488 130.929 154.433 130.304 154.738C129.679 155.044 128.339 155.717 124.569 155.717C120.798 155.717 119.618 155.023 120.076 153.669Z" fill="white" stroke="#263238" stroke-miterlimit="10"/>
<path d="M144.587 11.877L149.725 11.5368V15.5572L144.587 15.2169C144.344 15.2169 144.143 14.474 144.143 13.5504C144.143 12.6269 144.379 11.877 144.587 11.877Z" fill="white" stroke="#263238" stroke-miterlimit="10"/>
<path d="M143.179 11.4747H144.796C144.838 11.475 144.88 11.4856 144.917 11.5055C144.954 11.5255 144.985 11.5542 145.008 11.5891C145.032 11.6241 145.046 11.6642 145.05 11.706C145.055 11.7478 145.048 11.79 145.033 11.8289C144.855 12.3852 144.773 12.9673 144.789 13.5509C144.772 14.1323 144.855 14.7123 145.033 15.266C145.048 15.3049 145.055 15.3471 145.05 15.3889C145.046 15.4307 145.032 15.4708 145.008 15.5058C144.985 15.5407 144.954 15.5694 144.917 15.5894C144.88 15.6093 144.838 15.6199 144.796 15.6202H143.179C142.873 15.6202 142.623 14.6897 142.623 13.537C142.623 12.3844 142.873 11.4747 143.179 11.4747Z" fill="white" stroke="#263238" stroke-miterlimit="10"/>
<path d="M148.274 10.815L159.433 10.2595V16.8422L148.274 16.2936C147.872 16.2936 147.58 15.0646 147.58 13.5578C147.58 12.051 147.851 10.815 148.274 10.815Z" fill="white" stroke="#263238" stroke-miterlimit="10"/>
<path d="M158.559 13.5508C158.559 15.3632 158.954 16.8422 159.433 16.8422C159.913 16.8422 160.308 15.3632 160.308 13.5508C160.308 11.7385 159.92 10.2595 159.433 10.2595C158.947 10.2595 158.559 11.7316 158.559 13.5508Z" fill="white" stroke="#263238" stroke-miterlimit="10"/>
<path d="M142.636 11.877L147.774 11.5368V15.5572L142.636 15.2169C142.393 15.2169 142.191 14.474 142.191 13.5504C142.191 12.6269 142.393 11.877 142.636 11.877Z" fill="#263238" stroke="#263238" stroke-miterlimit="10"/>
<path d="M141.225 11.4747H142.843C142.885 11.475 142.927 11.4856 142.964 11.5055C143.001 11.5255 143.032 11.5542 143.055 11.5891C143.079 11.6241 143.093 11.6642 143.097 11.706C143.101 11.7478 143.095 11.79 143.079 11.8289C142.905 12.3857 142.825 12.9678 142.843 13.5509C142.825 14.1319 142.904 14.7118 143.079 15.266C143.095 15.3049 143.101 15.3471 143.097 15.3889C143.093 15.4307 143.079 15.4708 143.055 15.5058C143.032 15.5407 143.001 15.5694 142.964 15.5894C142.927 15.6093 142.885 15.6199 142.843 15.6202H141.225C140.92 15.6202 140.67 14.6897 140.67 13.537C140.67 12.3844 140.906 11.4747 141.225 11.4747Z" fill="white" stroke="#263238" stroke-miterlimit="10"/>
<path d="M146.323 10.815L157.482 10.2595V16.8422L146.323 16.2936C145.927 16.2936 145.629 15.0646 145.629 13.5578C145.629 12.051 145.927 10.815 146.323 10.815Z" fill="#263238" stroke="#263238" stroke-miterlimit="10"/>
<path d="M156.607 13.5508C156.607 15.3632 157.003 16.8422 157.482 16.8422C157.961 16.8422 158.357 15.3632 158.357 13.5508C158.357 11.7385 157.968 10.2595 157.482 10.2595C156.996 10.2595 156.607 11.7316 156.607 13.5508Z" fill="white" stroke="#263238" stroke-miterlimit="10"/>
<path d="M152.795 10.4194C152.795 10.4194 151.357 8.87099 150.823 8.87099C150.288 8.87099 149.434 10.2597 149.281 10.4194C149.128 10.5791 149.226 10.843 149.809 10.8986C150.253 10.8841 150.682 10.7338 151.038 10.468L152.795 10.4194Z" fill="white" stroke="#263238" stroke-miterlimit="10"/>
<path d="M150.822 8.87076C150.091 8.68246 149.341 8.57535 148.586 8.55135C148.156 8.6555 147.357 10.4678 147.517 10.7386C147.677 11.0094 149.281 10.4192 149.281 10.4192C149.281 10.4192 150.343 8.81521 150.822 8.87076Z" fill="white" stroke="#263238" stroke-miterlimit="10"/>
<path d="M148.211 8.71127C148.211 8.71127 147.357 8.1766 146.934 8.55156C146.51 8.92653 145.6 10.2042 145.816 10.6833C146.031 11.1624 147.517 10.7388 147.517 10.7388C147.517 10.7388 147.85 8.87098 148.211 8.71127Z" fill="white" stroke="#263238" stroke-miterlimit="10"/>
<path d="M146.51 8.87046C146.51 8.87046 145.441 8.44689 145.066 8.87046C144.691 9.29403 143.74 10.6272 144.371 10.9536C145.003 11.2799 145.649 10.3148 145.649 10.3148L146.51 8.87046Z" fill="white" stroke="#263238" stroke-miterlimit="10"/>
</svg>
