<svg width="32" height="32" viewBox="0 0 32 32" fill="none" xmlns="http://www.w3.org/2000/svg">
<g id="vuesax/bold/notification">
<g id="notification">
<path id="Vector" d="M25.7866 19.3198L24.4533 17.1065C24.1733 16.6132 23.92 15.6798 23.92 15.1332V11.7598C23.92 8.6265 22.08 5.91984 19.4266 4.65317C18.7333 3.4265 17.4533 2.6665 15.9866 2.6665C14.5333 2.6665 13.2266 3.45317 12.5333 4.69317C9.9333 5.9865 8.1333 8.6665 8.1333 11.7598V15.1332C8.1333 15.6798 7.87996 16.6132 7.59996 17.0932L6.2533 19.3198C5.71996 20.2132 5.59996 21.1998 5.9333 22.1065C6.2533 22.9998 7.0133 23.6932 7.99996 24.0265C10.5866 24.9065 13.3066 25.3332 16.0266 25.3332C18.7466 25.3332 21.4666 24.9065 24.0533 24.0398C24.9866 23.7332 25.7066 23.0265 26.0533 22.1065C26.4 21.1865 26.3066 20.1732 25.7866 19.3198Z" fill="#4B0082"/>
<path id="Vector_2" d="M19.7733 26.6798C19.2133 28.2265 17.7333 29.3332 16 29.3332C14.9467 29.3332 13.9067 28.9065 13.1733 28.1465C12.7467 27.7465 12.4267 27.2132 12.24 26.6665C12.4133 26.6932 12.5867 26.7065 12.7733 26.7332C13.08 26.7732 13.4 26.8132 13.72 26.8398C14.48 26.9065 15.2533 26.9465 16.0267 26.9465C16.7867 26.9465 17.5467 26.9065 18.2933 26.8398C18.5733 26.8132 18.8533 26.7998 19.12 26.7598C19.3333 26.7332 19.5467 26.7065 19.7733 26.6798Z" fill="#4B0082"/>
<path id="Vector_3" d="M24 10.6665C26.2091 10.6665 28 8.87564 28 6.6665C28 4.45736 26.2091 2.6665 24 2.6665C21.7909 2.6665 20 4.45736 20 6.6665C20 8.87564 21.7909 10.6665 24 10.6665Z" fill="#EF476F"/>
</g>
</g>
</svg>
