<svg width="400" height="327" viewBox="0 0 400 327" fill="none" xmlns="http://www.w3.org/2000/svg">
<path d="M117.921 3.92775C102.937 2.49469 87.4193 8.75056 77.6202 20.1756C70.486 28.4939 66.4337 39.0593 59.5722 47.6048C46.5514 63.8215 24.8274 71.1558 11.847 87.4057C-1.54197 104.167 -3.15338 128.503 4.85285 148.405C12.8591 168.307 29.3537 183.96 48.1389 194.317C54.7256 197.949 61.7882 201.122 66.9366 206.605C75.1305 215.333 76.9451 228.377 75.7537 240.289C74.5633 252.202 70.8137 263.739 69.4937 275.637C68.5573 284.076 69.0799 293.302 74.3113 299.988C79.1206 306.135 87.0024 308.975 94.6343 310.611C117.483 315.509 142.034 312.022 162.615 300.955C179.263 292.004 193.218 278.396 210.482 270.7C231.197 261.466 254.875 261.562 277.364 264.498C291.136 266.296 304.852 269.099 318.74 269.044C332.629 268.989 347.051 265.763 357.711 256.863C367.937 248.327 373.638 235.518 377.172 222.676C385.814 191.274 383.17 156.891 369.829 127.181C365.701 117.987 360.469 109.089 352.982 102.344C345.236 95.3652 335.513 91.0567 325.968 86.8613C296.249 73.8 263.319 53.0808 230.622 49.8985C220.962 48.958 211.156 50.418 201.649 48.0631C187.049 44.4483 174.578 34.7125 162.712 25.9617C149.323 16.088 135.027 5.56404 117.921 3.92775Z" fill="url(#paint0_linear_5126_39207)"/>
<path d="M280.083 247.852C279.307 247.852 278.533 247.846 277.758 247.834C277.472 247.829 277.244 247.594 277.248 247.307C277.252 247.021 277.497 246.793 277.775 246.797C279.15 246.819 280.526 246.819 281.907 246.804C282.152 246.784 282.428 247.03 282.431 247.316C282.435 247.603 282.205 247.838 281.919 247.841C281.306 247.848 280.694 247.852 280.083 247.852ZM288.131 247.638C287.857 247.638 287.629 247.423 287.614 247.146C287.599 246.861 287.817 246.616 288.105 246.602C289.481 246.528 290.856 246.436 292.23 246.326C292.513 246.31 292.766 246.516 292.787 246.801C292.81 247.086 292.598 247.337 292.312 247.359C290.929 247.471 289.546 247.562 288.159 247.637C288.149 247.638 288.141 247.638 288.131 247.638ZM271.549 247.61C271.539 247.61 271.529 247.61 271.52 247.609C270.134 247.53 268.75 247.432 267.369 247.314C267.084 247.29 266.872 247.04 266.896 246.754C266.92 246.469 267.178 246.263 267.456 246.282C268.829 246.397 270.204 246.495 271.579 246.574C271.865 246.591 272.083 246.835 272.067 247.12C272.051 247.397 271.821 247.61 271.549 247.61ZM298.457 246.738C298.199 246.738 297.975 246.545 297.944 246.282C297.91 245.998 298.112 245.74 298.396 245.705C299.764 245.539 301.13 245.355 302.493 245.152C302.773 245.11 303.04 245.305 303.081 245.589C303.124 245.872 302.928 246.135 302.645 246.177C301.273 246.381 299.898 246.568 298.519 246.734C298.5 246.737 298.478 246.738 298.457 246.738ZM261.226 246.657C261.204 246.657 261.181 246.656 261.16 246.653C259.784 246.477 258.41 246.282 257.039 246.066C256.757 246.021 256.563 245.756 256.607 245.473C256.652 245.19 256.923 245 257.201 245.041C258.561 245.255 259.925 245.451 261.29 245.625C261.573 245.661 261.776 245.921 261.739 246.206C261.706 246.465 261.483 246.657 261.226 246.657ZM308.702 245.144C308.459 245.144 308.242 244.971 308.194 244.723C308.14 244.442 308.326 244.17 308.606 244.116C309.961 243.859 311.31 243.583 312.657 243.29C312.942 243.228 313.213 243.405 313.274 243.686C313.335 243.966 313.158 244.242 312.878 244.303C311.523 244.599 310.163 244.876 308.8 245.136C308.767 245.141 308.734 245.144 308.702 245.144ZM318.818 242.866C318.586 242.866 318.377 242.712 318.317 242.478C318.244 242.201 318.41 241.918 318.687 241.847C320.02 241.498 321.349 241.132 322.672 240.748C322.951 240.668 323.235 240.826 323.315 241.102C323.394 241.378 323.236 241.665 322.961 241.745C321.629 242.131 320.291 242.499 318.948 242.849C318.905 242.861 318.861 242.866 318.818 242.866ZM328.756 239.915C328.539 239.915 328.337 239.778 328.263 239.56C328.173 239.288 328.319 238.995 328.591 238.904C329.897 238.467 331.199 238.013 332.494 237.542C332.765 237.445 333.06 237.583 333.159 237.852C333.257 238.122 333.118 238.418 332.849 238.517C331.545 238.992 330.237 239.448 328.92 239.889C328.866 239.906 328.811 239.915 328.756 239.915ZM338.472 236.298C338.269 236.298 338.075 236.177 337.992 235.976C337.884 235.711 338.01 235.408 338.274 235.299C339.548 234.776 340.816 234.234 342.075 233.675C342.337 233.561 342.643 233.675 342.76 233.939C342.876 234.201 342.758 234.507 342.496 234.623C341.227 235.186 339.952 235.732 338.669 236.26C338.605 236.286 338.537 236.298 338.472 236.298ZM347.918 232.027C347.728 232.027 347.544 231.92 347.454 231.738C347.327 231.481 347.432 231.17 347.689 231.044C348.924 230.434 350.152 229.807 351.369 229.162C351.623 229.03 351.937 229.124 352.07 229.377C352.205 229.63 352.108 229.945 351.856 230.078C350.628 230.728 349.393 231.36 348.15 231.974C348.074 232.01 347.995 232.027 347.918 232.027ZM357.048 227.113C356.869 227.113 356.696 227.02 356.6 226.855C356.455 226.609 356.539 226.29 356.786 226.146C357.976 225.451 359.155 224.74 360.324 224.01C360.568 223.862 360.888 223.933 361.039 224.176C361.19 224.419 361.116 224.739 360.873 224.89C359.695 225.624 358.507 226.342 357.308 227.04C357.227 227.091 357.137 227.113 357.048 227.113ZM365.808 221.567C365.643 221.567 365.48 221.488 365.379 221.341C365.219 221.104 365.279 220.782 365.515 220.62C366.65 219.845 367.776 219.05 368.886 218.235C369.116 218.065 369.441 218.115 369.611 218.346C369.78 218.578 369.73 218.902 369.5 219.071C368.379 219.892 367.245 220.694 366.101 221.476C366.011 221.538 365.909 221.567 365.808 221.567ZM374.097 215.344C373.949 215.344 373.802 215.281 373.699 215.158C373.515 214.938 373.545 214.612 373.765 214.428C374.842 213.528 375.883 212.612 376.858 211.707C377.067 211.511 377.396 211.522 377.59 211.734C377.785 211.943 377.774 212.271 377.564 212.466C376.575 213.384 375.52 214.311 374.429 215.223C374.333 215.305 374.214 215.344 374.097 215.344ZM381.571 208.171C381.449 208.171 381.326 208.127 381.227 208.04C381.012 207.849 380.994 207.522 381.183 207.308C381.798 206.618 382.398 205.912 382.979 205.192C383.259 204.845 383.535 204.496 383.806 204.143C383.981 203.916 384.307 203.875 384.533 204.048C384.76 204.223 384.802 204.548 384.628 204.775C384.351 205.134 384.071 205.489 383.786 205.842C383.193 206.576 382.583 207.293 381.958 207.996C381.855 208.113 381.714 208.171 381.571 208.171ZM387.737 199.859C387.644 199.859 387.55 199.835 387.465 199.783C387.222 199.633 387.145 199.314 387.294 199.069C387.998 197.923 388.68 196.719 389.321 195.493C389.456 195.24 389.771 195.145 390.022 195.274C390.275 195.408 390.374 195.721 390.241 195.975C389.588 197.221 388.894 198.444 388.18 199.612C388.081 199.771 387.911 199.859 387.737 199.859ZM392.403 190.615C392.337 190.615 392.27 190.603 392.206 190.577C391.942 190.468 391.815 190.165 391.924 189.9C392.435 188.658 392.926 187.362 393.38 186.049C393.474 185.779 393.769 185.636 394.041 185.728C394.311 185.823 394.454 186.118 394.361 186.389C393.899 187.719 393.403 189.033 392.884 190.295C392.8 190.495 392.607 190.615 392.403 190.615ZM395.68 180.782C395.636 180.782 395.592 180.777 395.547 180.764C395.27 180.692 395.105 180.407 395.178 180.131C395.522 178.83 395.847 177.479 396.141 176.122C396.203 175.842 396.483 175.667 396.757 175.725C397.038 175.786 397.216 176.061 397.154 176.341C396.857 177.715 396.529 179.081 396.182 180.396C396.119 180.629 395.909 180.782 395.68 180.782ZM397.785 170.63C397.758 170.63 397.731 170.628 397.704 170.624C397.422 170.58 397.228 170.315 397.272 170.032C397.481 168.691 397.672 167.314 397.839 165.94C397.873 165.657 398.139 165.454 398.416 165.488C398.7 165.522 398.903 165.781 398.869 166.066C398.701 167.451 398.508 168.84 398.297 170.192C398.257 170.449 398.036 170.63 397.785 170.63ZM398.963 160.327C398.948 160.327 398.936 160.327 398.922 160.326C398.637 160.305 398.424 160.056 398.445 159.77C398.55 158.396 398.636 157.02 398.708 155.643C398.722 155.357 398.935 155.138 399.251 155.151C399.537 155.166 399.757 155.41 399.743 155.695C399.672 157.081 399.585 158.466 399.479 159.848C399.458 160.121 399.23 160.327 398.963 160.327ZM304.303 151.386C304.035 151.386 303.808 151.18 303.787 150.909C303.764 150.624 303.978 150.374 304.262 150.351C305.539 150.249 306.86 150.054 308.299 149.755C308.574 149.695 308.854 149.876 308.912 150.156C308.971 150.436 308.79 150.711 308.509 150.769C307.028 151.078 305.665 151.279 304.344 151.385C304.331 151.386 304.316 151.386 304.303 151.386ZM298.116 151.029C298.08 151.029 298.042 151.025 298.004 151.017C297.792 150.97 297.579 150.918 297.366 150.863C296.202 150.559 295.066 150.124 293.989 149.568C293.735 149.437 293.635 149.124 293.766 148.87C293.898 148.615 294.211 148.516 294.465 148.647C295.474 149.168 296.538 149.576 297.628 149.861C297.828 149.912 298.029 149.961 298.229 150.006C298.509 150.068 298.684 150.345 298.623 150.625C298.568 150.864 298.354 151.029 298.116 151.029ZM399.44 149.969C399.437 149.969 399.434 149.969 399.43 149.969C399.144 149.964 398.916 149.728 398.921 149.442C398.947 148.059 398.961 146.679 398.962 145.303C398.962 145.017 399.194 144.785 399.48 144.785C399.767 144.785 399.999 145.017 399.999 145.304C399.998 146.686 399.984 148.073 399.958 149.461C399.953 149.743 399.721 149.969 399.44 149.969ZM314.403 149.143C314.186 149.143 313.983 149.005 313.911 148.787C313.821 148.516 313.969 148.222 314.24 148.132C315.49 147.718 316.792 147.243 318.107 146.722C318.373 146.616 318.675 146.747 318.78 147.012C318.886 147.279 318.757 147.579 318.49 147.685C317.155 148.215 315.835 148.696 314.566 149.116C314.511 149.135 314.457 149.143 314.403 149.143ZM289.33 145.843C289.19 145.843 289.05 145.786 288.949 145.675C288.013 144.655 287.159 143.511 286.412 142.275C286.264 142.031 286.343 141.711 286.588 141.564C286.832 141.417 287.152 141.494 287.3 141.739C288.011 142.916 288.824 144.005 289.713 144.976C289.906 145.187 289.892 145.515 289.682 145.709C289.581 145.799 289.456 145.843 289.33 145.843ZM324.001 145.235C323.806 145.235 323.621 145.125 323.533 144.937C323.41 144.679 323.521 144.369 323.779 144.248C325.025 143.66 326.263 143.052 327.493 142.431C327.747 142.3 328.06 142.404 328.19 142.66C328.318 142.916 328.215 143.227 327.96 143.356C326.722 143.98 325.476 144.593 324.223 145.185C324.151 145.219 324.076 145.235 324.001 145.235ZM333.25 140.549C333.064 140.549 332.885 140.448 332.792 140.273C332.658 140.02 332.755 139.706 333.008 139.572C334.227 138.928 335.445 138.276 336.659 137.615C336.91 137.48 337.225 137.571 337.363 137.824C337.5 138.076 337.407 138.39 337.156 138.527C335.938 139.189 334.716 139.843 333.494 140.489C333.416 140.529 333.333 140.549 333.25 140.549ZM399.414 139.6C399.133 139.6 398.902 139.375 398.895 139.092C398.869 137.714 398.832 136.334 398.784 134.953C398.773 134.667 398.997 134.427 399.283 134.417C399.566 134.396 399.81 134.631 399.82 134.917C399.869 136.303 399.905 137.688 399.932 139.071C399.938 139.357 399.711 139.594 399.424 139.6C399.421 139.6 399.417 139.6 399.414 139.6ZM284.375 136.839C284.15 136.839 283.943 136.691 283.877 136.465C283.483 135.114 283.2 133.72 283.033 132.321C282.999 132.037 283.202 131.778 283.487 131.744C283.766 131.708 284.029 131.914 284.063 132.198C284.222 133.541 284.495 134.879 284.873 136.175C284.953 136.45 284.796 136.738 284.52 136.818C284.471 136.832 284.422 136.839 284.375 136.839ZM342.339 135.555C342.159 135.555 341.985 135.462 341.889 135.295C341.746 135.046 341.832 134.729 342.08 134.586C343.276 133.899 344.465 133.199 345.646 132.488C345.887 132.34 346.21 132.418 346.358 132.664C346.505 132.909 346.427 133.228 346.182 133.376C344.994 134.092 343.8 134.795 342.598 135.486C342.516 135.532 342.427 135.555 342.339 135.555ZM351.182 130.141C351.014 130.141 350.848 130.058 350.748 129.907C350.592 129.667 350.658 129.346 350.898 129.189C352.052 128.433 353.193 127.662 354.319 126.874C354.555 126.711 354.877 126.766 355.042 127.001C355.206 127.236 355.149 127.559 354.915 127.723C353.778 128.517 352.629 129.295 351.467 130.057C351.379 130.114 351.28 130.141 351.182 130.141ZM398.985 129.241C398.714 129.241 398.487 129.032 398.467 128.759C398.372 127.384 398.257 126.011 398.119 124.642C398.09 124.357 398.297 124.103 398.582 124.074C398.845 124.05 399.122 124.252 399.15 124.537C399.29 125.918 399.405 127.301 399.502 128.686C399.522 128.971 399.306 129.219 399.021 129.24C399.009 129.24 398.996 129.241 398.985 129.241ZM283.616 126.574C283.591 126.574 283.566 126.573 283.541 126.569C283.258 126.528 283.061 126.265 283.101 125.982C283.299 124.608 283.6 123.222 283.994 121.862C284.074 121.587 284.357 121.426 284.637 121.508C284.912 121.588 285.07 121.876 284.991 122.15C284.609 123.464 284.32 124.803 284.128 126.129C284.091 126.387 283.869 126.574 283.616 126.574ZM359.621 124.123C359.468 124.123 359.314 124.054 359.212 123.924C359.035 123.697 359.076 123.372 359.302 123.196C360.395 122.343 361.473 121.468 362.505 120.595C362.724 120.411 363.052 120.437 363.236 120.656C363.421 120.875 363.394 121.202 363.175 121.387C362.132 122.27 361.043 123.154 359.94 124.015C359.845 124.087 359.733 124.123 359.621 124.123ZM397.836 118.939C397.586 118.939 397.366 118.757 397.325 118.502C397.105 117.128 396.853 115.764 396.576 114.449C396.517 114.168 396.696 113.893 396.977 113.835C397.253 113.778 397.531 113.955 397.591 114.235C397.872 115.567 398.127 116.947 398.349 118.338C398.394 118.621 398.201 118.886 397.919 118.932C397.891 118.937 397.863 118.939 397.836 118.939ZM367.452 117.335C367.316 117.335 367.182 117.282 367.08 117.177C366.882 116.972 366.887 116.643 367.092 116.444C368.089 115.477 369.06 114.487 369.977 113.502C370.173 113.293 370.501 113.282 370.71 113.476C370.92 113.671 370.931 113.999 370.736 114.209C369.806 115.207 368.822 116.21 367.813 117.189C367.713 117.286 367.582 117.335 367.452 117.335ZM286.772 116.746C286.694 116.746 286.616 116.728 286.54 116.691C286.284 116.562 286.18 116.251 286.308 115.995C286.914 114.782 287.61 113.553 288.375 112.343C288.53 112.101 288.851 112.03 289.091 112.182C289.332 112.336 289.405 112.655 289.251 112.897C288.504 114.079 287.826 115.276 287.235 116.46C287.145 116.641 286.962 116.746 286.772 116.746ZM374.41 109.658C374.298 109.658 374.185 109.622 374.09 109.548C373.865 109.372 373.825 109.046 374.002 108.82L374.417 108.287C375.109 107.397 375.791 106.461 376.445 105.51C376.606 105.272 376.929 105.213 377.165 105.376C377.402 105.538 377.461 105.86 377.299 106.096C376.634 107.066 375.94 108.017 375.237 108.924L374.818 109.461C374.716 109.59 374.564 109.658 374.41 109.658ZM395.554 108.832C395.332 108.832 395.125 108.687 395.059 108.462C394.845 107.751 394.62 107.044 394.383 106.34C394.183 105.745 393.971 105.153 393.751 104.563C393.65 104.294 393.786 103.996 394.054 103.895C394.326 103.794 394.621 103.93 394.722 104.199C394.947 104.799 395.161 105.403 395.366 106.007C395.607 106.723 395.837 107.441 396.052 108.163C396.135 108.438 395.98 108.726 395.705 108.809C395.654 108.825 395.603 108.832 395.554 108.832ZM292.464 108.104C292.349 108.104 292.232 108.066 292.136 107.987C291.914 107.805 291.882 107.479 292.064 107.257C292.917 106.214 293.844 105.155 294.818 104.111C295.013 103.901 295.342 103.89 295.55 104.085C295.759 104.281 295.771 104.608 295.575 104.818C294.617 105.845 293.704 106.887 292.865 107.912C292.764 108.039 292.614 108.104 292.464 108.104ZM380.127 101.02C380.043 101.02 379.958 100.999 379.879 100.956C379.627 100.819 379.535 100.504 379.673 100.252C380.326 99.0546 380.948 97.8185 381.519 96.5784C381.639 96.317 381.951 96.205 382.207 96.3243C382.467 96.4446 382.58 96.7526 382.461 97.0128C381.879 98.2737 381.247 99.5316 380.581 100.749C380.488 100.921 380.31 101.02 380.127 101.02ZM299.623 100.613C299.483 100.613 299.344 100.556 299.241 100.445C299.047 100.235 299.061 99.9059 299.272 99.713C300.292 98.7767 301.345 97.8496 302.402 96.9579C302.62 96.7733 302.948 96.8003 303.132 97.019C303.318 97.2378 303.288 97.5655 303.07 97.7501C302.024 98.6336 300.982 99.5502 299.973 100.476C299.874 100.567 299.748 100.613 299.623 100.613ZM391.74 99.2039C391.551 99.2039 391.369 99.1002 391.277 98.9198C390.654 97.69 389.982 96.4829 389.28 95.3319C389.132 95.0872 389.208 94.7689 389.452 94.6196C389.697 94.4692 390.016 94.547 390.165 94.7927C390.882 95.9666 391.567 97.1984 392.203 98.4521C392.333 98.7072 392.23 99.0193 391.975 99.1489C391.898 99.1863 391.818 99.2039 391.74 99.2039ZM307.611 94.0098C307.454 94.0098 307.296 93.9373 307.196 93.8004C307.025 93.5702 307.073 93.2456 307.302 93.0745C308.407 92.2533 309.551 91.4403 310.698 90.6585C310.934 90.4988 311.257 90.5579 311.418 90.7943C311.579 91.0318 311.519 91.3542 311.281 91.515C310.145 92.2896 309.013 93.0942 307.919 93.9072C307.828 93.9767 307.718 94.0098 307.611 94.0098ZM384.296 91.5388C384.241 91.5388 384.185 91.5305 384.13 91.5119C383.859 91.4196 383.714 91.1261 383.806 90.8544C384.04 90.1659 384.26 89.4691 384.467 88.7712C383.999 88.2403 383.521 87.7249 383.037 87.2293C382.837 87.024 382.842 86.6963 383.047 86.4962C383.251 86.2971 383.58 86.3002 383.78 86.5055C384.124 86.8591 384.465 87.222 384.802 87.5922C384.864 87.3672 384.923 87.1432 384.981 86.9192C385.052 86.6424 385.332 86.4713 385.612 86.547C385.89 86.6185 386.057 86.9016 385.985 87.1785C385.869 87.6244 385.747 88.0713 385.62 88.5182C385.939 88.8884 386.251 89.2648 386.559 89.6474C386.738 89.8704 386.703 90.197 386.48 90.3764C386.256 90.5548 385.931 90.5205 385.751 90.2976C385.592 90.0995 385.43 89.9015 385.267 89.7065C385.114 90.2032 384.953 90.6979 384.787 91.1894C384.714 91.403 384.512 91.5388 384.296 91.5388ZM316.239 88.2642C316.063 88.2642 315.89 88.1739 315.793 88.0101C315.646 87.7644 315.728 87.446 315.973 87.2998C317.161 86.5947 318.38 85.903 319.601 85.2446C319.848 85.1087 320.167 85.2021 320.304 85.454C320.439 85.706 320.345 86.0202 320.093 86.1571C318.885 86.8093 317.678 87.4937 316.504 88.1905C316.421 88.2413 316.329 88.2642 316.239 88.2642ZM325.411 83.4362C325.215 83.4362 325.028 83.3252 324.94 83.1354C324.821 82.8752 324.933 82.5672 325.193 82.4469C326.449 81.8662 327.733 81.3042 329.014 80.7764C329.279 80.6686 329.582 80.793 329.69 81.0584C329.799 81.3229 329.673 81.6257 329.408 81.7356C328.142 82.2572 326.871 82.814 325.627 83.3885C325.558 83.4216 325.483 83.4362 325.411 83.4362ZM378.732 83.2879C378.624 83.2879 378.516 83.2547 378.423 83.1852C377.323 82.3692 376.175 81.6143 375.01 80.9434C374.761 80.8003 374.676 80.484 374.818 80.2351C374.961 79.9852 375.278 79.9012 375.526 80.0443C376.727 80.736 377.91 81.5116 379.041 82.3526C379.271 82.5236 379.319 82.8472 379.148 83.0774C379.047 83.2153 378.89 83.2879 378.732 83.2879ZM386.685 81.4649C386.663 81.4649 386.639 81.4639 386.615 81.4608C386.332 81.4224 386.133 81.1611 386.171 80.877C386.356 79.5134 386.483 78.1395 386.55 76.7935C386.563 76.5084 386.816 76.2844 387.092 76.301C387.378 76.3155 387.598 76.5592 387.585 76.8443C387.517 78.2203 387.388 79.6233 387.198 81.017C387.164 81.2762 386.941 81.4649 386.685 81.4649ZM256.488 80.9402C256.378 80.9402 256.267 80.905 256.173 80.8334C255.945 80.6603 255.901 80.3347 256.075 80.1065C256.898 79.0302 257.793 77.9445 258.735 76.8775C258.926 76.6618 259.255 76.6432 259.467 76.8329C259.682 77.0227 259.703 77.3503 259.513 77.565C258.587 78.6133 257.707 79.6814 256.899 80.738C256.798 80.8697 256.645 80.9402 256.488 80.9402ZM335.035 79.5953C334.818 79.5953 334.617 79.4585 334.543 79.2407C334.453 78.969 334.6 78.6756 334.871 78.5854C336.203 78.1426 337.547 77.734 338.865 77.3721C339.146 77.2975 339.426 77.4582 339.503 77.7351C339.578 78.0109 339.415 78.2971 339.14 78.3717C337.837 78.7295 336.512 79.1318 335.197 79.5694C335.145 79.587 335.09 79.5953 335.035 79.5953ZM369.63 78.4018C369.571 78.4018 369.513 78.3925 369.454 78.3707C368.195 77.9155 366.878 77.5225 365.538 77.2C365.26 77.1326 365.088 76.8526 365.155 76.5737C365.222 76.2958 365.49 76.1236 365.781 76.191C367.157 76.5218 368.511 76.9273 369.806 77.3949C370.076 77.4924 370.216 77.789 370.118 78.0586C370.041 78.2712 369.842 78.4018 369.63 78.4018ZM345.067 77.004C344.822 77.004 344.603 76.8288 344.558 76.5778C344.507 76.2958 344.694 76.0262 344.976 75.9743C346.364 75.7223 347.757 75.517 349.112 75.3636C349.39 75.3242 349.653 75.5347 349.686 75.8198C349.719 76.1039 349.514 76.3611 349.23 76.3933C347.897 76.5447 346.528 76.7469 345.16 76.9947C345.129 77.0009 345.098 77.004 345.067 77.004ZM359.522 76.2232C359.505 76.2232 359.491 76.2232 359.475 76.2211C358.147 76.1029 356.769 76.0428 355.378 76.0417C355.093 76.0407 354.861 75.8084 354.861 75.5222C354.861 75.236 355.093 75.0048 355.379 75.0048C356.799 75.0058 358.209 75.068 359.566 75.1883C359.852 75.2143 360.062 75.4652 360.037 75.7503C360.013 76.0199 359.787 76.2232 359.522 76.2232ZM263.454 73.2741C263.316 73.2741 263.18 73.2202 263.078 73.1124C262.881 72.905 262.89 72.5763 263.099 72.3793C264.067 71.4616 265.108 70.5211 266.194 69.5837C266.41 69.3981 266.736 69.4188 266.926 69.6376C267.113 69.8543 267.089 70.182 266.872 70.3686C265.798 71.2957 264.768 72.2258 263.811 73.1321C263.711 73.2275 263.582 73.2741 263.454 73.2741ZM386.947 71.1204C386.681 71.1204 386.455 70.9182 386.431 70.6486C386.308 69.2819 386.116 67.9173 385.861 66.5952C385.807 66.3142 385.992 66.0415 386.272 65.9875C386.55 65.9367 386.824 66.1161 386.879 66.3982C387.141 67.7555 387.337 69.1533 387.463 70.5553C387.488 70.8404 387.279 71.0924 386.993 71.1183C386.978 71.1204 386.962 71.1204 386.947 71.1204ZM271.35 66.5599C271.196 66.5599 271.043 66.4915 270.94 66.3598C270.764 66.1337 270.804 65.8082 271.031 65.6319C272.124 64.7805 273.23 63.9437 274.342 63.1152C274.57 62.9441 274.895 62.9908 275.068 63.222C275.239 63.4512 275.19 63.7768 274.961 63.9479C273.855 64.7712 272.755 65.6039 271.666 66.45C271.574 66.5236 271.462 66.5599 271.35 66.5599ZM384.713 61.0258C384.502 61.0258 384.304 60.8951 384.226 60.6846C383.869 59.7078 383.467 58.7352 383.03 57.7947C382.894 57.5054 382.755 57.2161 382.613 56.9288C382.486 56.6727 382.591 56.3616 382.847 56.233C383.102 56.1055 383.415 56.2092 383.542 56.4663C383.689 56.7608 383.831 57.0574 383.971 57.355C384.422 58.3235 384.835 59.3231 385.202 60.3279C385.3 60.5975 385.161 60.8941 384.892 60.9926C384.832 61.0154 384.772 61.0258 384.713 61.0258ZM279.677 60.3818C279.517 60.3818 279.358 60.3072 279.257 60.1662C279.089 59.9339 279.142 59.6093 279.375 59.4424L282.743 57.019C282.974 56.8531 283.298 56.905 283.465 57.1393C283.632 57.3726 283.578 57.6962 283.346 57.8631L279.98 60.2844C279.89 60.3507 279.783 60.3818 279.677 60.3818ZM288.141 54.3904C287.976 54.3904 287.813 54.3106 287.713 54.1633C287.552 53.9258 287.612 53.6034 287.849 53.4426C288.998 52.6629 290.155 51.8955 291.324 51.15C291.563 50.9965 291.886 51.066 292.04 51.3076C292.193 51.5492 292.123 51.8696 291.881 52.0231C290.722 52.7634 289.573 53.5246 288.433 54.3002C288.343 54.3614 288.241 54.3904 288.141 54.3904ZM379.742 51.9806C379.592 51.9806 379.444 51.9152 379.341 51.7908C378.454 50.7103 377.494 49.7501 376.487 48.9382C376.264 48.7577 376.23 48.4321 376.41 48.2092C376.591 47.9862 376.916 47.952 377.139 48.1314C378.2 48.989 379.211 49.9979 380.142 51.1334C380.324 51.3542 380.291 51.6819 380.071 51.8634C379.975 51.9411 379.859 51.9806 379.742 51.9806ZM296.944 48.9174C296.762 48.9174 296.585 48.821 296.49 48.6489C296.351 48.3979 296.443 48.0827 296.694 47.9448C297.944 47.2552 299.192 46.6102 300.403 46.0275C300.662 45.9041 300.971 46.0119 301.094 46.2701C301.219 46.5283 301.111 46.8384 300.853 46.9618C299.659 47.5352 298.428 48.1719 297.194 48.8521C297.116 48.8967 297.03 48.9174 296.944 48.9174ZM371.452 45.9373C371.385 45.9373 371.317 45.9248 371.252 45.8968C370.109 45.4177 368.848 44.9719 367.393 44.5332C367.119 44.4513 366.964 44.162 367.047 43.8883C367.13 43.6135 367.415 43.4579 367.693 43.5409C369.182 43.9899 370.477 44.4472 371.652 44.9408C371.916 45.0517 372.041 45.3555 371.93 45.6189C371.847 45.818 371.655 45.9373 371.452 45.9373ZM306.352 44.5789C306.141 44.5789 305.943 44.4503 305.865 44.2419C305.765 43.9733 305.902 43.6746 306.17 43.5741C307.459 43.094 308.789 42.6419 310.125 42.2302C310.403 42.1462 310.69 42.2997 310.773 42.5734C310.858 42.8472 310.705 43.1365 310.431 43.2215C309.113 43.6269 307.802 44.0728 306.532 44.5457C306.473 44.5685 306.412 44.5789 306.352 44.5789ZM361.527 42.9768C361.489 42.9768 361.448 42.9726 361.409 42.9633C360.069 42.6481 358.723 42.3536 357.371 42.0798C357.09 42.0228 356.91 41.749 356.966 41.4691C357.023 41.1881 357.292 41.0128 357.578 41.0636C358.939 41.3405 360.295 41.6371 361.645 41.9544C361.924 42.0197 362.098 42.2997 362.031 42.5776C361.976 42.8161 361.764 42.9768 361.527 42.9768ZM316.294 41.6671C316.055 41.6671 315.841 41.5023 315.789 41.2596C315.727 40.9796 315.904 40.7028 316.185 40.6426C317.534 40.3471 318.913 40.0827 320.285 39.8577C320.563 39.8058 320.834 40.0018 320.88 40.2849C320.927 40.5669 320.735 40.8345 320.453 40.8801C319.099 41.103 317.737 41.3633 316.406 41.6547C316.368 41.663 316.331 41.6671 316.294 41.6671ZM351.35 41.0056C351.324 41.0056 351.297 41.0035 351.272 41.0004C349.905 40.794 348.527 40.6105 347.178 40.4539C346.894 40.4207 346.69 40.1636 346.723 39.8794C346.755 39.5953 347.021 39.3869 347.298 39.4242C348.66 39.5808 350.048 39.7664 351.427 39.9748C351.711 40.0184 351.905 40.2818 351.863 40.5649C351.822 40.821 351.602 41.0056 351.35 41.0056ZM326.537 40.1034C326.271 40.1034 326.045 39.9012 326.021 39.6316C325.996 39.3465 326.206 39.0945 326.491 39.0685C327.855 38.9452 329.256 38.8508 330.652 38.7886C330.961 38.7596 331.181 38.998 331.193 39.2832C331.206 39.5694 330.984 39.812 330.698 39.8245C329.317 39.8867 327.932 39.979 326.583 40.1013C326.568 40.1034 326.552 40.1034 326.537 40.1034ZM341.04 39.9126C341.03 39.9126 341.02 39.9126 341.01 39.9116C339.633 39.8307 338.246 39.7758 336.885 39.7498C336.599 39.7446 336.372 39.5082 336.377 39.221C336.383 38.9348 336.588 38.7181 336.906 38.7129C338.279 38.7399 339.681 38.7948 341.072 38.8767C341.357 38.8933 341.575 39.1391 341.559 39.4242C341.542 39.7 341.313 39.9126 341.04 39.9126Z" fill="#50448C"/>
<path d="M258.818 317.613H124.968C120.023 317.613 116.016 313.605 116.016 308.661V45.7278C116.016 40.7837 120.023 36.7759 124.968 36.7759H258.818C263.762 36.7759 267.77 40.7837 267.77 45.7278V308.66C267.77 313.605 263.762 317.613 258.818 317.613Z" fill="url(#paint1_linear_5126_39207)"/>
<path d="M124.97 311.39C123.464 311.39 122.238 310.166 122.238 308.66V45.729C122.238 44.2234 123.464 42.9988 124.97 42.9988H258.819C260.325 42.9988 261.549 44.2234 261.549 45.729V308.661C261.549 310.167 260.325 311.391 258.819 311.391L124.97 311.39Z" fill="url(#paint2_linear_5126_39207)"/>
<path d="M88.7156 262.006C88.6389 262.006 88.5601 261.988 88.4854 261.952C87.2463 261.337 86.0082 260.666 84.8084 259.956C84.5616 259.81 84.4808 259.492 84.6259 259.246C84.7721 259.001 85.0905 258.919 85.3362 259.063C86.5152 259.761 87.7295 260.42 88.9469 261.023C89.203 261.15 89.3088 261.462 89.1812 261.718C89.091 261.9 88.9064 262.006 88.7156 262.006ZM79.8975 256.578C79.7896 256.578 79.6808 256.544 79.5874 256.474C78.4758 255.643 77.3798 254.762 76.3273 253.855C76.1106 253.667 76.0867 253.34 76.2734 253.122C76.46 252.906 76.7877 252.882 77.0044 253.069C78.0382 253.96 79.1156 254.827 80.2075 255.643C80.4367 255.814 80.4844 256.14 80.3123 256.369C80.2117 256.506 80.0551 256.578 79.8975 256.578ZM72.1785 249.676C72.0406 249.676 71.9027 249.621 71.8 249.512C70.8491 248.498 69.9221 247.439 69.0459 246.365C68.8655 246.142 68.8986 245.816 69.1206 245.635C69.3425 245.454 69.6691 245.488 69.8506 245.708C70.7123 246.766 71.6227 247.806 72.557 248.803C72.753 249.011 72.7426 249.34 72.5342 249.535C72.4336 249.629 72.306 249.676 72.1785 249.676ZM65.7774 241.535C65.6084 241.535 65.4425 241.452 65.343 241.299C64.5798 240.131 63.8518 238.926 63.1809 237.719C63.042 237.469 63.1322 237.153 63.3821 237.014C63.6341 236.873 63.9483 236.965 64.0872 237.214C64.7467 238.4 65.4612 239.583 66.2109 240.732C66.3675 240.973 66.3001 241.293 66.0605 241.45C65.9724 241.508 65.8739 241.535 65.7774 241.535ZM60.9111 232.394C60.7089 232.394 60.517 232.275 60.4331 232.076C60.1655 231.44 59.9094 230.798 59.6636 230.15C59.4148 229.492 59.1773 228.829 58.9513 228.162C58.86 227.892 59.0052 227.597 59.2758 227.505C59.5475 227.417 59.842 227.559 59.9333 227.829C60.1552 228.484 60.3874 229.135 60.6332 229.783C60.8738 230.418 61.1257 231.048 61.3881 231.673C61.499 231.937 61.3746 232.241 61.1112 232.351C61.0459 232.381 60.9785 232.394 60.9111 232.394ZM57.7339 222.537C57.4995 222.537 57.287 222.377 57.2299 222.138C56.9189 220.828 56.6306 219.454 56.3755 218.053C56.3237 217.772 56.5103 217.501 56.7924 217.45C57.0744 217.407 57.344 217.585 57.3959 217.866C57.6478 219.25 57.932 220.606 58.2389 221.899C58.3053 222.178 58.1331 222.457 57.8542 222.523C57.8137 222.533 57.7733 222.537 57.7339 222.537ZM55.9763 212.323C55.717 212.323 55.4931 212.128 55.462 211.865C55.3075 210.544 55.1695 209.149 55.0524 207.72C55.0285 207.435 55.2411 207.184 55.5263 207.161C55.8197 207.14 56.0623 207.35 56.0862 207.635C56.2023 209.051 56.3392 210.435 56.4916 211.745C56.5248 212.03 56.3205 212.287 56.0375 212.321C56.0167 212.322 55.997 212.323 55.9763 212.323ZM55.181 201.987C54.9051 201.987 54.676 201.77 54.6635 201.491C54.6003 200.106 54.5515 198.72 54.51 197.337C54.5018 197.052 54.7268 196.812 55.013 196.803C55.2857 196.801 55.5377 197.019 55.547 197.306C55.5874 198.683 55.6372 200.062 55.6994 201.443C55.7129 201.729 55.491 201.972 55.2048 201.984C55.1975 201.987 55.1892 201.987 55.181 201.987ZM54.8999 191.621C54.6158 191.621 54.3846 191.392 54.3815 191.108C54.3742 190.415 54.3711 189.722 54.3711 189.028C54.3711 188.334 54.3742 187.642 54.3825 186.949C54.3846 186.664 54.6231 186.382 54.9062 186.437C55.1924 186.44 55.4226 186.674 55.4194 186.961C55.4122 187.65 55.408 188.339 55.408 189.028C55.408 189.718 55.4111 190.408 55.4184 191.098C55.4215 191.384 55.1913 191.618 54.9051 191.621C54.9051 191.621 54.902 191.621 54.8999 191.621ZM55.1011 181.255C55.0918 181.255 55.0814 181.255 55.0721 181.254C54.7859 181.238 54.5671 180.994 54.5837 180.709C54.6635 179.281 54.7662 177.882 54.8906 176.552C54.9176 176.267 55.1737 176.062 55.4547 176.084C55.7399 176.111 55.9493 176.364 55.9234 176.649C55.8 177.967 55.6973 179.352 55.6185 180.766C55.603 181.042 55.3738 181.255 55.1011 181.255ZM56.1971 170.949C56.1692 170.949 56.1412 170.947 56.1121 170.942C55.8301 170.895 55.6382 170.628 55.6849 170.346C55.9151 168.953 56.1816 167.574 56.4782 166.246C56.5404 165.969 56.8193 165.796 57.0972 165.853C57.3772 165.917 57.5524 166.194 57.4902 166.474C57.1988 167.781 56.9355 169.141 56.7084 170.515C56.6659 170.769 56.446 170.949 56.1971 170.949ZM58.6246 160.878C58.5707 160.878 58.5168 160.87 58.4618 160.852C58.1901 160.762 58.0419 160.469 58.1321 160.197C58.5697 158.872 59.0601 157.552 59.5911 156.273C59.701 156.009 60.0038 155.883 60.2692 155.993C60.5336 156.103 60.6591 156.407 60.5492 156.671C60.0276 157.926 59.5465 159.221 59.1172 160.523C59.0446 160.74 58.8424 160.878 58.6246 160.878ZM112.914 158.382C112.899 158.382 112.886 158.381 112.871 158.381C111.492 158.268 110.089 158.032 108.7 157.678C108.422 157.608 108.255 157.326 108.325 157.048C108.396 156.77 108.677 156.6 108.956 156.673C110.288 157.013 111.634 157.24 112.955 157.347C113.24 157.37 113.453 157.621 113.43 157.906C113.407 158.178 113.18 158.382 112.914 158.382ZM119.098 158.005C118.866 158.005 118.655 157.848 118.596 157.613C118.527 157.335 118.695 157.053 118.973 156.983C119.727 156.794 120.338 156.531 120.843 156.183C121.305 155.864 121.705 155.451 122.032 154.957C122.189 154.719 122.511 154.652 122.75 154.811C122.989 154.97 123.054 155.291 122.896 155.53C122.496 156.133 122.005 156.639 121.433 157.034C120.825 157.455 120.102 157.768 119.226 157.988C119.183 158 119.141 158.005 119.098 158.005ZM103.018 155.502C102.94 155.502 102.861 155.484 102.786 155.447C101.554 154.828 100.331 154.112 99.1524 153.319C98.9139 153.159 98.8517 152.837 99.0114 152.599C99.1711 152.362 99.4936 152.299 99.731 152.458C100.875 153.227 102.06 153.92 103.253 154.52C103.509 154.648 103.611 154.959 103.483 155.215C103.39 155.398 103.208 155.502 103.018 155.502ZM62.79 151.4C62.7029 151.4 62.6158 151.378 62.5349 151.333C62.2861 151.192 62.1979 150.876 62.339 150.626C63.0327 149.397 63.7793 148.201 64.5559 147.068C64.7177 146.831 65.0412 146.772 65.2766 146.934C65.513 147.096 65.5732 147.419 65.4104 147.655C64.6503 148.763 63.9213 149.934 63.2421 151.137C63.1467 151.305 62.9715 151.4 62.79 151.4ZM123.514 149.759C123.258 149.759 123.035 149.569 123.001 149.308C122.827 147.986 122.481 146.686 121.971 145.443C121.862 145.178 121.989 144.875 122.254 144.767C122.518 144.658 122.822 144.785 122.931 145.049C123.474 146.373 123.843 147.761 124.03 149.172C124.067 149.456 123.867 149.717 123.584 149.754C123.56 149.757 123.537 149.759 123.514 149.759ZM94.6065 149.501C94.4769 149.501 94.3473 149.453 94.2467 149.356C93.9252 149.047 93.61 148.733 93.301 148.413C92.6487 147.739 92.0027 147.025 91.3785 146.291C91.1929 146.072 91.2198 145.745 91.4386 145.559C91.6585 145.374 91.9841 145.402 92.1697 145.62C92.7784 146.337 93.4099 147.034 94.0465 147.692C94.3462 148.003 94.6531 148.307 94.9653 148.608C95.1716 148.806 95.1778 149.135 94.9798 149.341C94.8782 149.448 94.7423 149.501 94.6065 149.501ZM68.852 143.015C68.7255 143.015 68.6 142.969 68.5005 142.877C68.29 142.682 68.2775 142.354 68.4714 142.144C69.4327 141.104 70.4447 140.118 71.4817 139.213C71.6953 139.024 72.025 139.046 72.2127 139.263C72.4014 139.479 72.3786 139.807 72.1629 139.994C71.155 140.875 70.1689 141.835 69.2325 142.848C69.1309 142.959 68.9909 143.015 68.852 143.015ZM88.053 141.494C87.885 141.494 87.7202 141.412 87.6206 141.261C86.8854 140.151 86.1482 138.953 85.4275 137.704C85.2844 137.456 85.3694 137.138 85.6183 136.995C85.8672 136.852 86.1834 136.938 86.3265 137.186C87.0358 138.418 87.7627 139.596 88.4865 140.689C88.6441 140.927 88.5788 141.25 88.3403 141.408C88.25 141.466 88.1515 141.494 88.053 141.494ZM119.125 140.547C118.983 140.547 118.842 140.489 118.739 140.375C117.868 139.405 116.867 138.482 115.762 137.632C115.535 137.457 115.494 137.132 115.668 136.905C115.842 136.678 116.167 136.635 116.395 136.811C117.548 137.698 118.596 138.665 119.51 139.682C119.701 139.895 119.683 140.222 119.47 140.414C119.373 140.503 119.248 140.547 119.125 140.547ZM76.8395 136.459C76.6633 136.459 76.4911 136.37 76.3947 136.207C76.2474 135.963 76.3262 135.644 76.572 135.496C77.1071 135.175 77.6515 134.868 78.2062 134.575C78.8865 134.216 79.5937 133.874 80.3102 133.558C80.5746 133.443 80.8795 133.561 80.9946 133.822C81.1097 134.084 80.9915 134.391 80.7301 134.507C80.0364 134.813 79.35 135.146 78.6905 135.493C78.1523 135.776 77.6255 136.074 77.1071 136.385C77.022 136.435 76.9298 136.459 76.8395 136.459ZM110.758 134.538C110.685 134.538 110.611 134.522 110.54 134.489C109.324 133.924 108.044 133.426 106.738 133.011C106.465 132.924 106.314 132.633 106.401 132.36C106.487 132.088 106.777 131.935 107.052 132.023C108.4 132.452 109.721 132.965 110.978 133.55C111.238 133.67 111.35 133.978 111.229 134.238C111.141 134.427 110.953 134.538 110.758 134.538ZM86.4032 132.554C86.1699 132.554 85.9584 132.396 85.9003 132.159C85.8319 131.881 86.0019 131.6 86.2798 131.533C87.6227 131.203 89.0122 130.942 90.4079 130.754C90.691 130.715 90.9523 130.916 90.9907 131.199C91.029 131.483 90.8289 131.743 90.5458 131.782C89.1864 131.963 87.8332 132.218 86.5266 132.539C86.4852 132.55 86.4437 132.554 86.4032 132.554ZM82.9658 132.465C82.7739 132.465 82.5904 132.358 82.5002 132.176C81.8884 130.93 81.2973 129.674 80.7198 128.414C80.6005 128.153 80.7146 127.845 80.9759 127.726C81.2362 127.605 81.5431 127.722 81.6634 127.981C82.2368 129.233 82.8237 130.481 83.4314 131.717C83.5579 131.975 83.4521 132.285 83.195 132.411C83.1203 132.447 83.0425 132.465 82.9658 132.465ZM100.82 131.72C100.8 131.72 100.78 131.719 100.761 131.717L100.588 131.698C99.2862 131.55 97.9693 131.464 96.6741 131.441C96.3879 131.435 96.1598 131.199 96.165 130.913C96.1702 130.627 96.3786 130.373 96.6928 130.404C98.0201 130.428 99.3702 130.518 100.705 130.668L100.878 130.689C101.162 130.721 101.366 130.978 101.334 131.262C101.304 131.526 101.08 131.72 100.82 131.72ZM78.6677 123.029C78.4665 123.029 78.2757 122.912 78.1917 122.715C77.6452 121.441 77.1102 120.16 76.5979 118.87C76.4922 118.603 76.6228 118.302 76.8883 118.197C77.1527 118.092 77.4555 118.221 77.5613 118.487C78.0694 119.768 78.6013 121.041 79.1436 122.306C79.2567 122.569 79.1353 122.874 78.8719 122.987C78.8056 123.014 78.7361 123.029 78.6677 123.029ZM74.9658 113.346C74.746 113.346 74.5427 113.206 74.4722 112.985C74.0325 111.612 73.6458 110.26 73.3222 108.967C73.2528 108.689 73.4218 108.408 73.6986 108.338C73.9797 108.269 74.2586 108.437 74.327 108.715C74.6454 109.987 75.0259 111.318 75.4594 112.669C75.5465 112.941 75.3961 113.234 75.1234 113.321C75.0716 113.338 75.0176 113.346 74.9658 113.346ZM72.6804 103.248C72.4211 103.248 72.1972 103.055 72.166 102.791C71.9981 101.376 71.9016 99.9673 71.8798 98.6016C71.8757 98.3154 72.1038 98.08 72.39 98.0749C72.6814 98.0282 72.9116 98.2988 72.9168 98.585C72.9375 99.9144 73.0308 101.288 73.1957 102.667C73.2299 102.952 73.0267 103.21 72.7426 103.244C72.7218 103.247 72.7011 103.248 72.6804 103.248Z" fill="#50448C"/>
<mask id="mask0_5126_39207" style="mask-type:luminance" maskUnits="userSpaceOnUse" x="59" y="16" width="203" height="311">
<path d="M73.4577 306.279L59.207 20.4287C114.39 5.0094 258.812 42.9977 258.812 42.9977C260.318 42.9977 261.542 44.2224 261.542 45.728V308.66C261.542 310.166 260.318 311.39 258.812 311.39C258.813 311.39 152.26 349.501 73.4577 306.279Z" fill="white"/>
</mask>
<g mask="url(#mask0_5126_39207)">
<path d="M238.821 201.358L219.62 250.569C216.804 257.783 220.976 265.828 228.495 267.684C234.653 269.204 240.998 265.994 243.421 260.131L265.435 206.876C265.435 206.876 245.793 193.131 238.821 201.358Z" fill="url(#paint3_linear_5126_39207)"/>
<path d="M146.414 77.1577L187.031 115.172C210.112 136.774 238.348 152.095 269.04 159.671L276.626 161.544C279.641 177.563 275.559 194.102 265.435 206.878L257.85 205.005C227.157 197.429 195.036 197.851 164.553 206.232L110.912 220.979L146.414 77.1577Z" fill="url(#paint4_linear_5126_39207)"/>
<path d="M114.874 145.664C105.071 185.379 103.298 219.098 110.914 220.978C118.529 222.858 132.65 192.187 142.454 152.472C152.257 112.757 154.03 79.0377 146.415 77.1577C138.798 75.2777 124.677 105.948 114.874 145.664Z" fill="url(#paint5_linear_5126_39207)"/>
<mask id="mask1_5126_39207" style="mask-type:luminance" maskUnits="userSpaceOnUse" x="106" y="77" width="46" height="145">
<path d="M142.453 152.452C152.255 112.735 154.026 79.0151 146.409 77.1355C138.793 75.2559 124.673 105.929 114.872 145.646C105.071 185.362 103.299 219.083 110.916 220.962C118.532 222.842 132.652 192.169 142.453 152.452Z" fill="white"/>
</mask>
<g mask="url(#mask1_5126_39207)">
<path d="M131.467 166.626L139.074 168.504C147.854 170.671 156.727 165.311 158.894 156.531C161.062 147.752 155.702 138.878 146.922 136.711L139.315 134.833C130.535 132.666 121.662 138.026 119.495 146.806C117.327 155.585 122.687 164.459 131.467 166.626Z" fill="url(#paint6_radial_5126_39207)"/>
</g>
</g>
<path d="M203.44 81.2712C203.165 81.2712 202.936 81.0555 202.922 80.7786C202.854 79.4078 202.754 78.0224 202.628 76.663C202.602 76.3778 202.811 76.1248 203.097 76.0989C203.376 76.0709 203.634 76.2814 203.661 76.5676C203.788 77.9415 203.889 79.3414 203.957 80.7278C203.973 81.014 203.752 81.2566 203.466 81.2712C203.458 81.2712 203.448 81.2712 203.44 81.2712ZM202.368 70.9609C202.118 70.9609 201.897 70.7794 201.856 70.5243C201.64 69.1545 201.391 67.7899 201.118 66.4668C201.06 66.1868 201.242 65.912 201.522 65.8539C201.788 65.8 202.076 65.9763 202.133 66.2573C202.41 67.596 202.661 68.9761 202.882 70.3615C202.927 70.6446 202.735 70.91 202.451 70.9546C202.423 70.9588 202.395 70.9609 202.368 70.9609ZM75.4201 61.673C75.3807 61.673 75.3413 61.6688 75.3019 61.6595C75.023 61.5942 74.8488 61.3163 74.9141 61.0373C74.9846 60.7335 75.0593 60.4307 75.136 60.129C75.2065 59.8511 75.4875 59.682 75.7665 59.7546C76.0444 59.8251 76.2113 60.1072 76.1408 60.3851C76.0662 60.6796 75.9936 60.9751 75.9241 61.2717C75.8691 61.5112 75.6555 61.673 75.4201 61.673ZM200.161 60.832C199.935 60.832 199.727 60.6816 199.662 60.4535C199.291 59.1273 198.884 57.801 198.452 56.5132C198.361 56.2415 198.507 55.948 198.779 55.8568C199.05 55.7665 199.344 55.9117 199.435 56.1834C199.872 57.4879 200.284 58.8307 200.661 60.1736C200.739 60.4494 200.578 60.7356 200.301 60.8123C200.254 60.8258 200.208 60.832 200.161 60.832ZM77.5376 54.8551C77.4743 54.8551 77.4111 54.8437 77.3499 54.8198C77.0834 54.7161 76.9507 54.4154 77.0544 54.1489C77.5542 52.8621 78.1152 51.57 78.7218 50.3081C78.8462 50.0499 79.1552 49.941 79.4134 50.0655C79.6716 50.1899 79.7805 50.4989 79.656 50.7571C79.0619 51.9942 78.5113 53.2613 78.0208 54.5233C77.941 54.7286 77.745 54.8551 77.5376 54.8551ZM196.733 51.0495C196.532 51.0495 196.341 50.9313 196.256 50.7353C195.715 49.4682 195.133 48.2104 194.529 46.9982C194.401 46.742 194.506 46.431 194.762 46.3034C195.02 46.1748 195.33 46.2806 195.456 46.5357C196.07 47.7665 196.66 49.042 197.21 50.3278C197.322 50.5912 197.201 50.896 196.937 51.0091C196.87 51.036 196.801 51.0495 196.733 51.0495ZM82.1945 45.6076C82.1001 45.6076 82.0047 45.5828 81.9197 45.5288C81.677 45.3764 81.6034 45.056 81.7558 44.8144C82.49 43.6437 83.2812 42.4782 84.1056 41.352C84.2746 41.1208 84.5992 41.071 84.8304 41.24C85.0616 41.4091 85.1114 41.7336 84.9424 41.9649C84.1325 43.0713 83.3559 44.215 82.6352 45.366C82.5356 45.5226 82.3676 45.6076 82.1945 45.6076ZM191.956 41.8529C191.783 41.8529 191.614 41.7668 191.516 41.6092C190.786 40.4416 190.014 39.2947 189.219 38.2008C189.051 37.9685 189.103 37.6439 189.334 37.4759C189.567 37.3069 189.89 37.3598 190.059 37.5911C190.867 38.7047 191.654 39.8723 192.395 41.0606C192.547 41.3033 192.473 41.6237 192.231 41.7751C192.144 41.828 192.05 41.8529 191.956 41.8529ZM88.4545 37.3577C88.3301 37.3577 88.2056 37.3142 88.1071 37.224C87.8945 37.0311 87.878 36.7045 88.0708 36.4919C88.9989 35.4674 89.9778 34.4574 90.9826 33.4889C91.1889 33.2909 91.5176 33.2971 91.7157 33.5024C91.9148 33.7087 91.9086 34.0364 91.7022 34.2355C90.715 35.1874 89.7517 36.1808 88.8392 37.1887C88.7365 37.3007 88.5966 37.3577 88.4545 37.3577ZM185.711 33.5936C185.571 33.5936 185.431 33.5366 185.329 33.4257C184.4 32.4105 183.427 31.4316 182.438 30.5139C182.227 30.319 182.216 29.9913 182.41 29.7818C182.604 29.5713 182.932 29.5579 183.143 29.7538C184.153 30.6902 185.145 31.6909 186.093 32.7257C186.287 32.9373 186.272 33.2649 186.061 33.4578C185.961 33.548 185.836 33.5936 185.711 33.5936ZM96.0304 30.2931C95.8769 30.2931 95.7255 30.2257 95.6229 30.096C95.4455 29.871 95.4839 29.5444 95.7089 29.3681C96.7977 28.5105 97.9321 27.6779 99.079 26.8908C99.3165 26.7301 99.6379 26.7892 99.7997 27.0257C99.9614 27.2621 99.9013 27.5846 99.6649 27.7463C98.5367 28.5199 97.4209 29.3391 96.3508 30.1821C96.2554 30.2568 96.1424 30.2931 96.0304 30.2931ZM177.978 26.728C177.874 26.728 177.768 26.6969 177.677 26.6316C176.565 25.8394 175.408 25.0907 174.238 24.4053C173.991 24.2601 173.908 23.9428 174.052 23.696C174.197 23.4482 174.513 23.3663 174.762 23.5104C175.959 24.2114 177.143 24.9787 178.28 25.7875C178.513 25.9535 178.567 26.277 178.401 26.5103C178.299 26.6524 178.141 26.728 177.978 26.728ZM104.673 24.5847C104.49 24.5847 104.311 24.4872 104.217 24.3151C104.08 24.0642 104.172 23.7489 104.423 23.611C104.854 23.3756 105.285 23.1465 105.721 22.9225C106.524 22.5077 107.337 22.1095 108.157 21.729C108.419 21.6087 108.726 21.7217 108.846 21.9809C108.966 22.2402 108.853 22.5481 108.594 22.6695C107.787 23.0438 106.988 23.4358 106.196 23.8433C105.768 24.0631 105.344 24.2902 104.921 24.5204C104.842 24.564 104.757 24.5847 104.673 24.5847ZM168.942 21.6875C168.873 21.6875 168.805 21.674 168.739 21.646C167.509 21.1213 166.218 20.6267 164.902 20.1756C164.631 20.0823 164.487 19.7878 164.579 19.5172C164.673 19.2465 164.967 19.1045 165.238 19.1947C166.578 19.654 167.892 20.158 169.146 20.692C169.41 20.804 169.532 21.1089 169.42 21.3722C169.335 21.5693 169.143 21.6875 168.942 21.6875ZM114.131 20.3654C113.918 20.3654 113.719 20.2337 113.643 20.0211C113.547 19.7515 113.687 19.4549 113.957 19.3585C115.256 18.896 116.594 18.4647 117.934 18.0758C118.21 17.9949 118.497 18.1546 118.576 18.4294C118.655 18.7042 118.497 18.9925 118.222 19.0713C116.903 19.4539 115.585 19.8791 114.305 20.3353C114.248 20.355 114.189 20.3654 114.131 20.3654ZM159.097 18.4709C159.057 18.4709 159.015 18.4667 158.975 18.4564C157.677 18.1422 156.321 17.8518 154.945 17.5926C154.664 17.5397 154.479 17.268 154.533 16.987C154.585 16.706 154.853 16.5214 155.138 16.5743C156.53 16.8367 157.903 17.1312 159.22 17.4495C159.498 17.5169 159.669 17.7969 159.601 18.0758C159.543 18.3112 159.331 18.4709 159.097 18.4709ZM124.121 17.6175C123.878 17.6175 123.663 17.4474 123.613 17.2006C123.557 16.9196 123.74 16.6469 124.021 16.5909C125.374 16.3213 126.758 16.0849 128.136 15.8879C128.419 15.8443 128.683 16.0444 128.723 16.3275C128.764 16.6106 128.566 16.874 128.283 16.9144C126.923 17.1083 125.557 17.3417 124.224 17.6071C124.189 17.6144 124.154 17.6175 124.121 17.6175ZM148.892 16.6728C148.872 16.6728 148.852 16.6718 148.832 16.6697C147.469 16.5142 146.087 16.3908 144.726 16.3037C144.441 16.285 144.224 16.0393 144.242 15.7531C144.261 15.4669 144.5 15.2574 144.793 15.2688C146.17 15.3569 147.567 15.4824 148.949 15.639C149.233 15.6711 149.437 15.9283 149.405 16.2124C149.376 16.4768 149.152 16.6728 148.892 16.6728ZM134.396 16.2881C134.124 16.2881 133.896 16.0766 133.879 15.8018C133.861 15.5166 134.078 15.2698 134.364 15.2522C135.742 15.1662 137.145 15.1153 138.536 15.1008C138.804 15.1143 139.056 15.3269 139.059 15.6141C139.062 15.9003 138.833 16.1347 138.546 16.1378C137.174 16.1533 135.789 16.2031 134.427 16.2881C134.418 16.2881 134.408 16.2881 134.396 16.2881Z" fill="#50448C"/>
<path d="M257.37 120.084C271.712 120.084 283.339 108.457 283.339 94.1156C283.339 79.7738 271.712 68.1475 257.37 68.1475C243.029 68.1475 231.402 79.7738 231.402 94.1156C231.402 108.457 243.029 120.084 257.37 120.084Z" fill="url(#paint7_linear_5126_39207)"/>
<path d="M257.371 115.215C269.024 115.215 278.471 105.769 278.471 94.1156C278.471 82.4625 269.024 73.0159 257.371 73.0159C245.718 73.0159 236.271 82.4625 236.271 94.1156C236.271 105.769 245.718 115.215 257.371 115.215Z" fill="url(#paint8_linear_5126_39207)"/>
<path d="M257.37 82.8845L261.019 90.2789L269.18 91.4642L263.275 97.2202L264.668 105.347L257.37 101.51L250.071 105.347L251.466 97.2202L245.561 91.4642L253.721 90.2789L257.37 82.8845Z" fill="url(#paint9_linear_5126_39207)"/>
<path d="M201.914 96.3421C209.347 96.3421 215.372 90.317 215.372 82.8847C215.372 75.4523 209.347 69.4272 201.914 69.4272C194.482 69.4272 188.457 75.4523 188.457 82.8847C188.457 90.317 194.482 96.3421 201.914 96.3421Z" fill="url(#paint10_linear_5126_39207)"/>
<path d="M201.916 85.3451C200.886 85.3451 200.053 84.5103 200.053 83.4817V76.4315C200.053 75.4018 200.887 74.5681 201.916 74.5681C202.946 74.5681 203.779 75.4029 203.779 76.4315V83.4817C203.779 84.5114 202.945 85.3451 201.916 85.3451Z" fill="url(#paint11_linear_5126_39207)"/>
<path d="M203.779 89.3363C203.779 90.366 202.945 91.1997 201.916 91.1997C200.886 91.1997 200.053 90.3649 200.053 89.3363C200.053 88.3076 200.887 87.4729 201.916 87.4729C202.945 87.4729 203.779 88.3066 203.779 89.3363Z" fill="url(#paint12_linear_5126_39207)"/>
<path d="M313.366 256.961C322.558 256.961 330.008 249.51 330.008 240.319C330.008 231.128 322.558 223.677 313.366 223.677C304.175 223.677 296.725 231.128 296.725 240.319C296.725 249.51 304.175 256.961 313.366 256.961Z" fill="url(#paint13_linear_5126_39207)"/>
<path d="M313.369 254.312C321.097 254.312 327.362 248.047 327.362 240.319C327.362 232.59 321.097 226.325 313.369 226.325C305.64 226.325 299.375 232.59 299.375 240.319C299.375 248.047 305.64 254.312 313.369 254.312Z" fill="url(#paint14_linear_5126_39207)"/>
<path d="M314.706 248.063V250.428H312.593V248.125C310.502 247.998 308.495 247.344 307.334 246.436L308.495 243.859C309.552 244.641 311.072 245.211 312.593 245.358V241.831C310.249 241.26 307.63 240.478 307.63 237.458C307.63 235.219 309.255 233.297 312.593 232.917V230.572H314.706V232.875C316.289 233.001 317.832 233.423 318.993 234.162L317.938 236.761C316.861 236.148 315.762 235.79 314.707 235.662V239.254C317.051 239.802 319.628 240.584 319.628 243.562C319.627 245.76 318.022 247.661 314.706 248.063ZM312.593 238.726V235.726C311.475 235.979 311.03 236.592 311.03 237.29C311.03 238.029 311.663 238.43 312.593 238.726ZM316.227 243.816C316.227 243.077 315.614 242.676 314.706 242.359V245.274C315.761 245.042 316.227 244.493 316.227 243.816Z" fill="#FFC431"/>
<path d="M352.73 143.163C365.584 143.163 376.003 132.743 376.003 119.89C376.003 107.036 365.584 96.6167 352.73 96.6167C339.877 96.6167 329.457 107.036 329.457 119.89C329.457 132.743 339.877 143.163 352.73 143.163Z" fill="url(#paint15_linear_5126_39207)"/>
<path d="M352.73 139.458C363.537 139.458 372.298 130.697 372.298 119.89C372.298 109.082 363.537 100.322 352.73 100.322C341.923 100.322 333.162 109.082 333.162 119.89C333.162 130.697 341.923 139.458 352.73 139.458Z" fill="url(#paint16_linear_5126_39207)"/>
<path d="M359.763 123.599L362.805 126.435C360.856 128.828 357.903 130.127 354.298 130.127C349.07 130.127 344.934 127.173 343.575 122.713H340.236V120.232H343.131C343.102 119.966 343.102 119.7 343.102 119.435C343.102 119.169 343.102 118.903 343.131 118.636H340.236V116.155H343.575C344.934 111.694 349.07 108.74 354.298 108.74C357.903 108.74 360.856 110.039 362.805 112.403L359.763 115.239C358.345 113.643 356.601 112.817 354.534 112.817C351.905 112.817 349.778 114.087 348.684 116.155H356.159V118.636H347.946C347.917 118.903 347.917 119.168 347.917 119.435C347.917 119.7 347.917 119.966 347.946 120.232H356.159V122.713H348.684C349.778 124.781 351.904 126.051 354.534 126.051C356.601 126.051 358.345 125.224 359.763 123.599Z" fill="#FFC431"/>
<path d="M53.8962 219.269C66.7495 219.269 77.1693 208.849 77.1693 195.996C77.1693 183.143 66.7495 172.723 53.8962 172.723C41.0428 172.723 30.623 183.143 30.623 195.996C30.623 208.849 41.0428 219.269 53.8962 219.269Z" fill="url(#paint17_linear_5126_39207)"/>
<path d="M53.8962 215.564C64.7034 215.564 73.4644 206.803 73.4644 195.996C73.4644 185.189 64.7034 176.428 53.8962 176.428C43.0891 176.428 34.3281 185.189 34.3281 195.996C34.3281 206.803 43.0891 215.564 53.8962 215.564Z" fill="url(#paint18_linear_5126_39207)"/>
<path d="M41.3125 190.666C41.3125 187.181 43.4393 184.965 46.4526 184.965C49.4649 184.965 51.5627 187.151 51.5627 190.666C51.5627 194.182 49.466 196.367 46.4526 196.367C43.4393 196.367 41.3125 194.152 41.3125 190.666ZM48.6084 190.666C48.6084 188.45 47.7519 187.387 46.4526 187.387C45.1813 187.387 44.2958 188.481 44.2958 190.666C44.2958 192.852 45.1813 193.945 46.4526 193.945C47.7519 193.945 48.6084 192.881 48.6084 190.666ZM58.7704 185.2H62.2867L48.1667 205.879H44.6504L58.7704 185.2ZM55.3734 200.414C55.3734 196.929 57.5012 194.713 60.4845 194.713C63.4979 194.713 65.6246 196.929 65.6246 200.414C65.6246 203.899 63.4979 206.115 60.4845 206.115C57.5002 206.115 55.3734 203.899 55.3734 200.414ZM62.6403 200.414C62.6403 198.228 61.7838 197.135 60.4835 197.135C59.2132 197.135 58.3277 198.198 58.3277 200.414C58.3277 202.63 59.2132 203.693 60.4835 203.693C61.7838 203.693 62.6403 202.6 62.6403 200.414Z" fill="#FFC431"/>
<path d="M310.525 52.7124C311.698 59.0357 316.645 63.9829 322.969 65.1557C316.645 66.3285 311.698 71.2757 310.525 77.599C309.353 71.2757 304.405 66.3285 298.082 65.1557C304.405 63.9829 309.353 59.0357 310.525 52.7124Z" fill="url(#paint19_linear_5126_39207)"/>
<path d="M46.7714 122.931C47.9442 129.254 52.8914 134.202 59.2147 135.374C52.8914 136.547 47.9442 141.494 46.7714 147.818C45.5986 141.494 40.6514 136.547 34.3281 135.374C40.6514 134.203 45.5986 129.255 46.7714 122.931Z" fill="url(#paint20_linear_5126_39207)"/>
<path d="M290.914 285.262C291.711 289.564 295.077 292.93 299.378 293.727C295.077 294.524 291.711 297.89 290.914 302.192C290.116 297.89 286.75 294.524 282.449 293.727C286.75 292.93 290.116 289.565 290.914 285.262Z" fill="url(#paint21_linear_5126_39207)"/>
<path d="M94.1696 0.180176C94.967 4.48141 98.333 7.84731 102.634 8.64472C98.333 9.44213 94.967 12.808 94.1696 17.1093C93.3722 12.808 90.0063 9.44213 85.7051 8.64472C90.0063 7.84835 93.3722 4.48244 94.1696 0.180176Z" fill="url(#paint22_linear_5126_39207)"/>
<path d="M318.988 177.135C319.785 181.436 323.151 184.802 327.453 185.6C323.151 186.397 319.785 189.763 318.988 194.064C318.191 189.763 314.825 186.397 310.523 185.6C314.825 184.802 318.191 181.436 318.988 177.135Z" fill="url(#paint23_linear_5126_39207)"/>
<path d="M129.243 122.932L114.523 105.585H50.9163C43.0781 105.585 36.7227 99.2302 36.7227 91.3909V61.9532C36.7227 54.1149 43.077 47.7595 50.9163 47.7595H115.049C122.888 47.7595 129.243 54.1139 129.243 61.9532V122.932Z" fill="url(#paint24_linear_5126_39207)"/>
<path d="M112.069 60.8799H53.8933C53.0337 60.8799 52.3379 60.1841 52.3379 59.3245C52.3379 58.4648 53.0337 57.769 53.8933 57.769H112.069C112.928 57.769 113.624 58.4648 113.624 59.3245C113.624 60.1841 112.928 60.8799 112.069 60.8799Z" fill="#F0EBFF"/>
<path d="M112.069 72.6203H53.8933C53.0337 72.6203 52.3379 71.9246 52.3379 71.0649C52.3379 70.2053 53.0337 69.5095 53.8933 69.5095H112.069C112.928 69.5095 113.624 70.2053 113.624 71.0649C113.624 71.9246 112.928 72.6203 112.069 72.6203Z" fill="#F0EBFF"/>
<path d="M112.069 84.3606H53.8933C53.0337 84.3606 52.3379 83.6648 52.3379 82.8052C52.3379 81.9455 53.0337 81.2498 53.8933 81.2498H112.069C112.928 81.2498 113.624 81.9455 113.624 82.8052C113.624 83.6648 112.928 84.3606 112.069 84.3606Z" fill="#F0EBFF"/>
<path d="M112.069 96.1008H53.8933C53.0337 96.1008 52.3379 95.405 52.3379 94.5454C52.3379 93.6858 53.0337 92.99 53.8933 92.99H112.069C112.928 92.99 113.624 93.6858 113.624 94.5454C113.624 95.404 112.928 96.1008 112.069 96.1008Z" fill="#F0EBFF"/>
<path d="M119.594 303.591C140.037 303.591 156.61 287.019 156.61 266.575C156.61 246.132 140.037 229.56 119.594 229.56C99.1506 229.56 82.5781 246.132 82.5781 266.575C82.5781 287.019 99.1506 303.591 119.594 303.591Z" fill="url(#paint25_linear_5126_39207)"/>
<path d="M119.595 296.651C136.205 296.651 149.67 283.186 149.67 266.575C149.67 249.965 136.205 236.5 119.595 236.5C102.985 236.5 89.5195 249.965 89.5195 266.575C89.5195 283.186 102.985 296.651 119.595 296.651Z" fill="url(#paint26_linear_5126_39207)"/>
<path d="M128.83 263.064C121.02 261.654 117.899 256.023 117.663 252.27C117.426 248.517 115.98 245.798 113.264 247.15C110.548 248.503 109.906 256.311 111.507 260.416C104.56 259.337 98.0771 260.157 97.4414 263.578C104.23 269.573 101.869 276.427 99.3411 279.79C102.641 282.108 117.245 283.31 120.813 282.771C124.381 282.231 127.349 277.233 130.593 277.37C133.838 277.506 137.083 277.643 137.083 277.643L137.664 263.78C137.664 263.78 132.739 263.769 128.83 263.064Z" fill="url(#paint27_linear_5126_39207)"/>
<path d="M121.804 272.649C118.154 271.534 115.169 267.498 114.535 265.931C114.567 269.246 118.801 272.719 121.804 272.649Z" fill="#F9E6E1"/>
<path d="M103.717 281.254C108.665 281.892 112.001 281.15 113.256 279.38C114.509 277.61 113.478 276.057 112.065 275.063L103.717 281.254Z" fill="#F9E6E1"/>
<path d="M111.37 275.533C113.02 275.927 114.265 278.841 110.93 280.19C107.595 281.539 102.124 281.959 99.0539 279.735C97.6976 278.753 97.3471 276.289 101.287 275.394C105.228 274.499 109.044 274.978 111.37 275.533Z" fill="url(#paint28_linear_5126_39207)"/>
<path d="M100.182 276.796C103.391 277.679 109.83 278.392 112.377 276.141C114.924 273.889 111.437 270.804 111.437 270.804L100.182 276.796Z" fill="#F9E6E1"/>
<path d="M110.584 270.882C112.235 271.276 114.196 274.927 110.862 276.276C107.527 277.625 98.5838 277.255 97.6817 275.844C96.7795 274.433 96.7526 271.888 100.693 270.993C104.632 270.099 108.257 270.327 110.584 270.882Z" fill="url(#paint29_linear_5126_39207)"/>
<path d="M111.406 265.901C113.62 268.085 113.275 270.145 112.675 270.994C112.076 271.842 110.23 273.482 101.766 272.307C102.318 272.237 111.406 265.901 111.406 265.901Z" fill="#F9E6E1"/>
<path d="M110.242 265.944C112.019 266.368 114.259 270.676 110.541 271.749C107.153 272.727 97.5688 272.672 96.5982 271.154C95.6276 269.636 95.5986 266.897 99.8386 265.934C104.079 264.971 107.738 265.346 110.242 265.944Z" fill="url(#paint30_linear_5126_39207)"/>
<path d="M112.052 262.22C113.273 263.983 113.348 265.333 112.674 266.246C111.999 267.158 104.353 267.817 100.6 266.782L112.052 262.22Z" fill="#F9E6E1"/>
<path d="M108.89 260.023C112.096 260.486 114.611 265.509 110.752 266.357C107.268 267.122 98.5105 267.313 97.5399 265.795C96.5693 264.277 96.0498 261.411 100.29 260.447C104.531 259.484 106.745 259.714 108.89 260.023Z" fill="url(#paint31_linear_5126_39207)"/>
<path d="M132.635 263.463C132.386 264.05 131.213 276.638 132.1 277.454C132.985 278.27 138.539 277.605 138.539 277.605C138.539 277.605 139.718 264.672 139.379 263.742C139.04 262.812 133.359 263.14 132.635 263.463Z" fill="url(#paint32_linear_5126_39207)"/>
<path d="M134.818 262.65C134.533 263.321 133.486 277.837 134.585 278.807C135.684 279.776 142.405 279.173 142.405 279.173C142.405 279.173 143.449 264.26 143.01 263.175C142.571 262.09 135.685 262.299 134.818 262.65Z" fill="url(#paint33_linear_5126_39207)"/>
<defs>
<linearGradient id="paint0_linear_5126_39207" x1="264.882" y1="-93.07" x2="158.573" y2="271.302" gradientUnits="userSpaceOnUse">
<stop stop-color="#F5F0FF"/>
<stop offset="0.9959" stop-color="#D2C1F7"/>
</linearGradient>
<linearGradient id="paint1_linear_5126_39207" x1="188.271" y1="34.2646" x2="195.304" y2="311.804" gradientUnits="userSpaceOnUse">
<stop stop-color="#263681"/>
<stop offset="0.9959" stop-color="#1A1248"/>
</linearGradient>
<linearGradient id="paint2_linear_5126_39207" x1="100.168" y1="123.424" x2="241.372" y2="206.199" gradientUnits="userSpaceOnUse">
<stop stop-color="#9571CB"/>
<stop offset="0.2434" stop-color="#8E69CA"/>
<stop offset="0.6169" stop-color="#7B54C5"/>
<stop offset="1" stop-color="#6237C0"/>
</linearGradient>
<linearGradient id="paint3_linear_5126_39207" x1="251.061" y1="238.139" x2="229.962" y2="229.821" gradientUnits="userSpaceOnUse">
<stop stop-color="#F5F0FF"/>
<stop offset="0.6951" stop-color="#D2C1F7"/>
<stop offset="1" stop-color="#DCCEF9"/>
</linearGradient>
<linearGradient id="paint4_linear_5126_39207" x1="212.801" y1="127.696" x2="179.856" y2="213.441" gradientUnits="userSpaceOnUse">
<stop stop-color="#F59513"/>
<stop offset="0.3699" stop-color="#FAAD1E"/>
<stop offset="0.9959" stop-color="#F2830B"/>
</linearGradient>
<linearGradient id="paint5_linear_5126_39207" x1="113.341" y1="145.286" x2="141.687" y2="152.282" gradientUnits="userSpaceOnUse">
<stop stop-color="#E6971C"/>
<stop offset="0.9959" stop-color="#DE6D0A"/>
</linearGradient>
<radialGradient id="paint6_radial_5126_39207" cx="0" cy="0" r="1" gradientUnits="userSpaceOnUse" gradientTransform="translate(125.131 149.956) rotate(-166.137) scale(23.9289 23.9289)">
<stop stop-color="#FFD042"/>
<stop offset="1" stop-color="#F2830B"/>
</radialGradient>
<linearGradient id="paint7_linear_5126_39207" x1="247.889" y1="73.0451" x2="266.858" y2="115.199" gradientUnits="userSpaceOnUse">
<stop stop-color="#9571CB"/>
<stop offset="0.9959" stop-color="#6237C0"/>
</linearGradient>
<linearGradient id="paint8_linear_5126_39207" x1="249.667" y1="76.9958" x2="265.08" y2="111.246" gradientUnits="userSpaceOnUse">
<stop stop-color="#F5F0FF"/>
<stop offset="0.9959" stop-color="#D2C1F7"/>
</linearGradient>
<linearGradient id="paint9_linear_5126_39207" x1="253.969" y1="85.8366" x2="262.543" y2="104.889" gradientUnits="userSpaceOnUse">
<stop stop-color="#FAAD1E"/>
<stop offset="0.9959" stop-color="#F2830B"/>
</linearGradient>
<linearGradient id="paint10_linear_5126_39207" x1="197" y1="71.9651" x2="206.831" y2="93.8103" gradientUnits="userSpaceOnUse">
<stop stop-color="#F5F0FF"/>
<stop offset="0.9959" stop-color="#D2C1F7"/>
</linearGradient>
<linearGradient id="paint11_linear_5126_39207" x1="200.062" y1="75.8372" x2="203.771" y2="84.079" gradientUnits="userSpaceOnUse">
<stop stop-color="#FAAD1E"/>
<stop offset="0.9959" stop-color="#F2830B"/>
</linearGradient>
<linearGradient id="paint12_linear_5126_39207" x1="201.235" y1="87.8241" x2="202.597" y2="90.8494" gradientUnits="userSpaceOnUse">
<stop stop-color="#FAAD1E"/>
<stop offset="0.9959" stop-color="#F2830B"/>
</linearGradient>
<linearGradient id="paint13_linear_5126_39207" x1="322.147" y1="210.223" x2="310.428" y2="250.39" gradientUnits="userSpaceOnUse">
<stop stop-color="#FFE14D"/>
<stop offset="1" stop-color="#F7A523"/>
</linearGradient>
<linearGradient id="paint14_linear_5126_39207" x1="320.752" y1="215.013" x2="310.898" y2="248.787" gradientUnits="userSpaceOnUse">
<stop stop-color="#FAAD1E"/>
<stop offset="0.9959" stop-color="#F2830B"/>
</linearGradient>
<linearGradient id="paint15_linear_5126_39207" x1="365.009" y1="77.8034" x2="348.621" y2="133.974" gradientUnits="userSpaceOnUse">
<stop stop-color="#FFE14D"/>
<stop offset="1" stop-color="#F7A523"/>
</linearGradient>
<linearGradient id="paint16_linear_5126_39207" x1="363.055" y1="84.502" x2="349.275" y2="131.732" gradientUnits="userSpaceOnUse">
<stop stop-color="#FAAD1E"/>
<stop offset="0.9959" stop-color="#F2830B"/>
</linearGradient>
<linearGradient id="paint17_linear_5126_39207" x1="66.1754" y1="153.91" x2="49.7871" y2="210.081" gradientUnits="userSpaceOnUse">
<stop stop-color="#FFE14D"/>
<stop offset="1" stop-color="#F7A523"/>
</linearGradient>
<linearGradient id="paint18_linear_5126_39207" x1="64.2212" y1="160.609" x2="50.4413" y2="207.839" gradientUnits="userSpaceOnUse">
<stop stop-color="#FAAD1E"/>
<stop offset="0.9959" stop-color="#F2830B"/>
</linearGradient>
<linearGradient id="paint19_linear_5126_39207" x1="306.383" y1="55.951" x2="314.67" y2="74.366" gradientUnits="userSpaceOnUse">
<stop stop-color="#9571CB"/>
<stop offset="0.9959" stop-color="#6237C0"/>
</linearGradient>
<linearGradient id="paint20_linear_5126_39207" x1="42.6293" y1="126.17" x2="50.9161" y2="144.585" gradientUnits="userSpaceOnUse">
<stop stop-color="#9571CB"/>
<stop offset="0.9959" stop-color="#6237C0"/>
</linearGradient>
<linearGradient id="paint21_linear_5126_39207" x1="288.096" y1="287.466" x2="293.733" y2="299.993" gradientUnits="userSpaceOnUse">
<stop stop-color="#263681"/>
<stop offset="0.9959" stop-color="#1A1248"/>
</linearGradient>
<linearGradient id="paint22_linear_5126_39207" x1="91.352" y1="2.38378" x2="96.9891" y2="14.9109" gradientUnits="userSpaceOnUse">
<stop stop-color="#263681"/>
<stop offset="0.9959" stop-color="#1A1248"/>
</linearGradient>
<linearGradient id="paint23_linear_5126_39207" x1="316.17" y1="179.338" x2="321.807" y2="191.865" gradientUnits="userSpaceOnUse">
<stop stop-color="#263681"/>
<stop offset="0.9959" stop-color="#1A1248"/>
</linearGradient>
<linearGradient id="paint24_linear_5126_39207" x1="68.5601" y1="44.6204" x2="105.785" y2="127.343" gradientUnits="userSpaceOnUse">
<stop offset="0.0041" stop-color="white"/>
<stop offset="1" stop-color="#F5F0FF"/>
</linearGradient>
<linearGradient id="paint25_linear_5126_39207" x1="106.078" y1="236.542" x2="134.224" y2="299.088" gradientUnits="userSpaceOnUse">
<stop stop-color="#9571CB"/>
<stop offset="0.0962" stop-color="#8A64C9"/>
<stop offset="0.3212" stop-color="#744BC4"/>
<stop offset="0.5271" stop-color="#673CC1"/>
<stop offset="0.6948" stop-color="#6237C0"/>
</linearGradient>
<linearGradient id="paint26_linear_5126_39207" x1="108.614" y1="242.173" x2="130.583" y2="290.993" gradientUnits="userSpaceOnUse">
<stop stop-color="#F5F0FF"/>
<stop offset="0.9959" stop-color="#D2C1F7"/>
</linearGradient>
<linearGradient id="paint27_linear_5126_39207" x1="120.776" y1="249.328" x2="115.33" y2="282.309" gradientUnits="userSpaceOnUse">
<stop stop-color="#FFC085"/>
<stop offset="1" stop-color="#FA976E"/>
</linearGradient>
<linearGradient id="paint28_linear_5126_39207" x1="103.084" y1="282.048" x2="107.248" y2="275.125" gradientUnits="userSpaceOnUse">
<stop stop-color="#FFC085"/>
<stop offset="1" stop-color="#FA976E"/>
</linearGradient>
<linearGradient id="paint29_linear_5126_39207" x1="102.223" y1="278.526" x2="106.805" y2="270.908" gradientUnits="userSpaceOnUse">
<stop stop-color="#FFC085"/>
<stop offset="1" stop-color="#FA976E"/>
</linearGradient>
<linearGradient id="paint30_linear_5126_39207" x1="101.48" y1="274.033" x2="106.309" y2="266.005" gradientUnits="userSpaceOnUse">
<stop stop-color="#FFC085"/>
<stop offset="1" stop-color="#FA976E"/>
</linearGradient>
<linearGradient id="paint31_linear_5126_39207" x1="97.8823" y1="260.68" x2="111.886" y2="266.617" gradientUnits="userSpaceOnUse">
<stop stop-color="#FFC085"/>
<stop offset="1" stop-color="#FA976E"/>
</linearGradient>
<linearGradient id="paint32_linear_5126_39207" x1="136.018" y1="264.025" x2="134.846" y2="279.41" gradientUnits="userSpaceOnUse">
<stop stop-color="#F5F0FF"/>
<stop offset="0.9959" stop-color="#D2C1F7"/>
</linearGradient>
<linearGradient id="paint33_linear_5126_39207" x1="138.931" y1="262.815" x2="138.127" y2="279.304" gradientUnits="userSpaceOnUse">
<stop stop-color="#263681"/>
<stop offset="0.9959" stop-color="#1A1248"/>
</linearGradient>
</defs>
</svg>
