<svg width="24" height="10" viewBox="0 0 24 10" fill="none" xmlns="http://www.w3.org/2000/svg">
<path d="M21.9785 4.7683H20.4766L20.8172 5.38245H21.9785V4.7683ZM22.0176 7.53753C22.0064 7.4147 21.9971 7.29373 21.9897 7.17462C21.9822 7.05552 21.9785 6.94386 21.9785 6.83964V6.06359H21.1969L22.0176 7.53753ZM19.6336 5.38245L19.293 4.7683H18.0982V5.38245H19.6336ZM18.0647 2.56298C18.0759 2.68208 18.0833 2.79933 18.0871 2.91471C18.0945 3.02637 18.0982 3.13059 18.0982 3.22737V4.09275H18.9134L18.0647 2.56298ZM23.0505 4.7683V5.38245H23.9996V5.74535C23.9996 5.82723 23.9661 5.90168 23.8991 5.96867C23.8358 6.03195 23.7558 6.06359 23.659 6.06359H23.0505V9.07288H22.012C21.9115 9.07288 21.8259 9.05613 21.7552 9.02263C21.6845 8.98541 21.6175 8.92586 21.5542 8.84397L20.0077 6.06359H18.0982V9.07288H17.0263V6.06359H16.0771V5.38245H17.0263V4.7683H16.0771V4.41098C16.0771 4.3291 16.1088 4.25652 16.1721 4.19324C16.2391 4.12625 16.3228 4.09275 16.4233 4.09275H17.0263V1.0332H18.0759C18.1317 1.0332 18.1801 1.03693 18.2211 1.04437C18.262 1.04809 18.2974 1.0574 18.3271 1.07228C18.3606 1.08717 18.3923 1.10951 18.4221 1.13928C18.4518 1.16906 18.4835 1.20628 18.517 1.25094L20.097 4.09275H21.9785V1.0332H23.0505V4.09275H23.9996V4.7683H23.0505Z" fill="white"/>
<path fill-rule="evenodd" clip-rule="evenodd" d="M2.05644 2.31765C1.7335 2.31765 1.40509 2.6102 1.40509 3.04346C1.40509 3.37153 1.4755 3.48984 1.5108 3.5348C1.55268 3.58812 1.63645 3.65458 1.86049 3.73453L4.6633 4.71226C4.99122 4.82897 5.36592 5.01217 5.6458 5.37059C5.93189 5.73694 6.04837 6.19388 6.04837 6.719C6.04837 7.86138 5.1642 8.84058 4.00122 8.84058H2.25187C0.981452 8.84058 0 7.77277 0 6.51429C0 6.12885 0.312455 5.8164 0.697889 5.8164C1.08332 5.8164 1.39578 6.12885 1.39578 6.51429C1.39578 7.06101 1.81013 7.4448 2.25187 7.4448H4.00122C4.32706 7.4448 4.65259 7.1585 4.65259 6.719C4.65259 6.39735 4.58297 6.27737 4.54571 6.22964C4.50237 6.17415 4.41686 6.10633 4.19724 6.02794L1.39438 5.0502C1.07087 4.93505 0.694409 4.75514 0.413055 4.39686C0.12501 4.03007 0.00931427 3.57146 0.00931427 3.04346C0.00931427 1.91345 0.890546 0.921875 2.05644 0.921875H3.80582C5.07623 0.921875 6.05768 1.98969 6.05768 3.24817C6.05768 3.6336 5.74523 3.94606 5.35979 3.94606C4.97436 3.94606 4.66191 3.6336 4.66191 3.24817C4.66191 2.70145 4.24756 2.31765 3.80582 2.31765H2.05644Z" fill="white"/>
<path fill-rule="evenodd" clip-rule="evenodd" d="M3.0243 0C3.40974 0 3.72219 0.312455 3.72219 0.697889V9.07255C3.72219 9.45799 3.40974 9.77044 3.0243 9.77044C2.63887 9.77044 2.32642 9.45799 2.32642 9.07255V0.697889C2.32642 0.312455 2.63887 0 3.0243 0Z" fill="white"/>
<path d="M13.9669 3.71578C13.9669 3.65374 13.9421 3.59481 13.8987 3.55138L12.7449 2.39754C12.6549 2.30759 12.506 2.30759 12.4161 2.39754C12.3261 2.48749 12.3261 2.63637 12.4161 2.72632L13.176 3.48625H8.15121C8.02404 3.48625 7.91858 3.59171 7.91858 3.71888C7.91858 3.84605 8.02404 3.9484 8.15121 3.9484H13.1729L12.4161 4.70523C12.3261 4.79518 12.3261 4.94406 12.4161 5.03401C12.4626 5.08053 12.5215 5.10225 12.5805 5.10225C12.6394 5.10225 12.6983 5.08053 12.7449 5.03401L13.8956 3.88327C13.9173 3.86156 13.9359 3.83364 13.9483 3.80262C13.9483 3.79952 13.9483 3.79642 13.9514 3.79332C13.9607 3.7685 13.9669 3.74369 13.9669 3.71578Z" fill="white"/>
<path d="M13.7343 6.75268H8.71262L9.46944 5.99585C9.55939 5.9059 9.55939 5.75702 9.46944 5.66707C9.37949 5.57712 9.23061 5.57712 9.14066 5.66707L7.98992 6.81781C7.96821 6.83952 7.9496 6.86744 7.93719 6.89846C7.93719 6.90156 7.93719 6.90466 7.93409 6.90776C7.92478 6.93258 7.91858 6.96049 7.91858 6.98841C7.91858 7.05044 7.94339 7.10938 7.98682 7.1528L9.14066 8.30664C9.18719 8.35317 9.24612 8.37488 9.30505 8.37488C9.36398 8.37488 9.42292 8.35317 9.46944 8.30664C9.55939 8.21669 9.55939 8.06781 9.46944 7.97786L8.70952 7.21794H13.7343C13.8615 7.21794 13.9669 7.11248 13.9669 6.98531C13.9669 6.85814 13.8615 6.75268 13.7343 6.75268Z" fill="white"/>
</svg>
