<svg width="507" height="51" viewBox="0 0 507 51" fill="none" xmlns="http://www.w3.org/2000/svg">
<path d="M232.417 0.434841C217.596 0.474191 202.776 0.79445 187.982 2.27282C182.404 2.83038 176.942 4.0563 171.352 4.55091C160.184 5.5383 149.217 7.3811 138.01 8.23108C128.985 8.91517 119.922 9.31957 110.924 10.1877C102.487 11.002 93.1472 10.8137 84.7752 9.46909C78.5773 8.47322 72.3517 7.91266 66.2578 6.31321C59.4412 4.52428 52.0357 3.24508 44.9334 3.29109C34.8055 3.35647 24.943 3.36434 15.2506 6.52327C11.8481 7.63235 7.68305 9.4552 5.09973 11.7823C-0.814538 17.1098 -1.61486 30.403 4.28996 35.929C14.2369 45.229 35.4653 48.8777 49.4078 49.0503C64.6855 49.2391 79.5275 48.2203 94.8275 47.6209C109.045 47.0646 123.226 46.2721 137.467 46.2999C166.552 46.3569 195.641 46.2999 224.673 44.5546C251.95 42.9146 279.295 43.4776 306.632 43.4776C334.665 43.4776 362.508 43.6756 390.338 47.0222C402.464 48.4806 414.817 48.9909 427.004 50.0128C437.919 50.9276 448.407 49.9947 459.277 49.1489C468.406 48.4388 477.474 46.3326 485.767 42.7729C492.332 39.9548 504.034 31.1996 506.047 24.4731C511.691 5.61456 426.512 6.06802 413.433 6.11039C398.802 6.15761 384.056 6.59045 369.437 6.08918C363.288 5.87851 357.229 4.79849 351.227 3.61555C345.249 2.43685 339.225 2.73655 333.163 2.24134C307.882 0.175738 282.545 0.477814 257.183 0.477814C248.931 0.477814 240.674 0.413047 232.417 0.434841Z" fill="black"/>
</svg>
