<svg width="299" height="157" viewBox="0 0 299 157" fill="none" xmlns="http://www.w3.org/2000/svg">
<rect width="298.384" height="156.815" rx="10" fill="black"/>
<g filter="url(#filter0_d_493_12022)">
<path d="M20.8114 14.8392C21.9811 13.6977 23.2451 13.1004 24.5215 13.0679V15.6581C23.7789 15.5648 23.0969 15.8625 22.4663 16.4779C21.2705 17.645 21.2463 18.9654 22.8528 20.5333L26.5491 24.1408C27.0827 24.6616 27.0827 25.5061 26.5491 26.027C26.0154 26.5479 25.1501 26.5479 24.6164 26.027L20.8477 22.3488C18.3594 19.9203 18.4077 17.1852 20.8114 14.8392Z" fill="white"/>
<path d="M26.6215 16.8552C26.3911 16.6303 26.1657 16.4384 25.945 16.278V13.2665C26.8159 13.533 27.6783 14.0669 28.5059 14.8746L32.2625 18.541C32.8029 19.0684 32.8029 19.9234 32.2625 20.4508C31.7221 20.9782 30.846 20.9782 30.3057 20.4508L26.6215 16.8552Z" fill="white"/>
<path d="M24.5215 30.4177C23.5229 30.2008 22.5306 29.6352 21.5838 28.7111L17.8271 25.0447C17.2868 24.5173 17.2868 23.6623 17.8271 23.1349C18.3675 22.6075 19.2436 22.6075 19.784 23.1349L23.4681 26.7305C23.8314 27.085 24.1822 27.3576 24.5215 27.5537V30.4177Z" fill="white"/>
<path d="M25.945 30.4918C27.0927 30.3623 28.2238 29.7755 29.2782 28.7464C31.682 26.4004 31.7303 23.6654 29.242 21.2369L25.4733 17.5587C24.9396 17.0378 24.0743 17.0378 23.5406 17.5587C23.0069 18.0796 23.0069 18.9241 23.5406 19.4449L27.2368 23.0524C28.8434 24.6203 28.8192 25.9407 27.6234 27.1078C27.1009 27.6177 26.5432 27.9094 25.945 27.9415V30.4918Z" fill="white"/>
</g>
<path d="M116.535 22.8828C125.558 13.7503 135.309 8.97237 145.155 8.71191V29.4336C139.427 28.6876 134.165 31.0686 129.301 35.9922C120.076 45.3291 119.889 55.8921 132.283 68.4356L160.796 97.295C164.913 101.462 164.913 108.218 160.796 112.385C156.679 116.552 150.004 116.552 145.887 112.385L116.814 82.9596C97.6188 63.5313 97.9916 41.6509 116.535 22.8828Z" fill="url(#paint0_linear_493_12022)"/>
<path d="M161.355 39.0102C159.578 37.2112 157.839 35.676 156.137 34.3932V10.301C162.855 12.4329 169.507 16.7039 175.892 23.1658L204.872 52.4968C209.04 56.7159 209.04 63.5563 204.872 67.7754C200.703 71.9944 193.945 71.9944 189.776 67.7754L161.355 39.0102Z" fill="url(#paint1_linear_493_12022)"/>
<path d="M145.155 147.511C137.452 145.775 129.797 141.25 122.493 133.858L93.5131 104.527C89.3446 100.307 89.3446 93.467 93.5131 89.248C97.6816 85.0289 104.44 85.0289 108.609 89.248L137.029 118.013C139.831 120.849 142.538 123.03 145.155 124.599V147.511Z" fill="url(#paint2_linear_493_12022)"/>
<path d="M156.137 148.103C164.99 147.067 173.716 142.373 181.85 134.141C200.393 115.372 200.766 93.492 181.57 74.0638L152.497 44.6384C148.38 40.4714 141.705 40.4714 137.588 44.6384C133.471 48.8054 133.471 55.5613 137.588 59.7283L166.102 88.5878C178.495 101.131 178.309 111.694 169.084 121.031C165.054 125.11 160.751 127.444 156.137 127.701V148.103Z" fill="url(#paint3_linear_493_12022)"/>
<path d="M260.106 108.268H244.861V135.666H260.106V108.268Z" fill="#FF5F00"/>
<path d="M245.866 121.967C245.864 119.328 246.462 116.724 247.615 114.35C248.769 111.977 250.447 109.897 252.523 108.268C249.952 106.248 246.865 104.992 243.615 104.643C240.364 104.294 237.081 104.867 234.14 106.296C231.2 107.725 228.721 109.952 226.986 112.723C225.252 115.494 224.332 118.698 224.332 121.967C224.332 125.236 225.252 128.44 226.986 131.211C228.721 133.982 231.2 136.209 234.14 137.638C237.081 139.067 240.364 139.64 243.615 139.291C246.865 138.942 249.952 137.686 252.523 135.666C250.447 134.037 248.769 131.957 247.615 129.584C246.462 127.21 245.864 124.606 245.866 121.967Z" fill="#EB001B"/>
<path d="M279.049 132.763V132.202H279.275V132.088H278.699V132.202H278.925V132.763H279.049ZM280.167 132.763V132.087H279.991L279.787 132.552L279.584 132.087H279.408V132.763H279.533V132.253L279.722 132.693H279.852L280.042 132.252V132.763H280.167Z" fill="#F79E1B"/>
<path d="M263.289 104.543C259.383 104.537 255.589 105.85 252.521 108.268C254.596 109.899 256.273 111.979 257.426 114.352C258.579 116.725 259.178 119.329 259.178 121.967C259.178 124.605 258.579 127.209 257.426 129.582C256.273 131.955 254.596 134.035 252.521 135.666C254.705 137.382 257.268 138.552 259.995 139.077C262.722 139.602 265.536 139.468 268.201 138.685C270.866 137.902 273.305 136.493 275.315 134.576C277.325 132.659 278.847 130.289 279.755 127.664C280.664 125.039 280.931 122.236 280.536 119.486C280.14 116.737 279.093 114.122 277.482 111.86C275.871 109.597 273.742 107.753 271.273 106.48C268.804 105.207 266.067 104.543 263.289 104.543Z" fill="#F79E1B"/>
<rect x="204.73" y="13.0679" width="76.2295" height="17.4239" rx="8.71195" fill="white"/>
<path d="M220.597 19.5748L218.261 25.3348H217.417L215.081 19.5748H215.829C215.912 19.5748 215.978 19.5962 216.029 19.6388C216.08 19.6788 216.118 19.7295 216.145 19.7908L217.629 23.5468C217.709 23.7575 217.782 24.0002 217.849 24.2748C217.878 24.1388 217.909 24.0095 217.941 23.8868C217.976 23.7642 218.013 23.6508 218.053 23.5468L219.533 19.7908C219.554 19.7375 219.592 19.6882 219.645 19.6428C219.698 19.5975 219.765 19.5748 219.845 19.5748H220.597ZM222.209 25.3348H221.269V19.5748H222.209V25.3348ZM225.246 22.3348C225.459 22.3348 225.646 22.3095 225.806 22.2588C225.966 22.2055 226.099 22.1322 226.206 22.0388C226.312 21.9455 226.392 21.8348 226.446 21.7068C226.499 21.5762 226.526 21.4322 226.526 21.2748C226.526 20.9602 226.422 20.7202 226.214 20.5548C226.006 20.3895 225.691 20.3068 225.27 20.3068H224.51V22.3348H225.246ZM227.958 25.3348H227.122C226.956 25.3348 226.836 25.2708 226.762 25.1428L225.418 23.2028C225.372 23.1362 225.323 23.0882 225.27 23.0588C225.216 23.0295 225.136 23.0148 225.03 23.0148H224.51V25.3348H223.574V19.5748H225.27C225.648 19.5748 225.974 19.6135 226.246 19.6908C226.52 19.7682 226.746 19.8788 226.922 20.0228C227.098 20.1642 227.227 20.3348 227.31 20.5348C227.395 20.7348 227.438 20.9575 227.438 21.2028C227.438 21.4028 227.407 21.5895 227.346 21.7628C227.287 21.9362 227.2 22.0935 227.086 22.2348C226.974 22.3762 226.835 22.4988 226.67 22.6028C226.504 22.7068 226.316 22.7882 226.106 22.8468C226.22 22.9162 226.319 23.0135 226.402 23.1388L227.958 25.3348ZM232.444 20.3548H230.648V25.3348H229.716V20.3548H227.916V19.5748H232.444V20.3548ZM235.518 24.5788C235.739 24.5788 235.936 24.5415 236.11 24.4668C236.286 24.3922 236.434 24.2882 236.554 24.1548C236.676 24.0215 236.77 23.8615 236.834 23.6748C236.898 23.4855 236.93 23.2762 236.93 23.0468V19.5748H237.862V23.0468C237.862 23.3855 237.807 23.6988 237.698 23.9868C237.591 24.2748 237.436 24.5242 237.234 24.7348C237.031 24.9428 236.784 25.1068 236.494 25.2268C236.206 25.3442 235.88 25.4028 235.518 25.4028C235.155 25.4028 234.828 25.3442 234.538 25.2268C234.25 25.1068 234.004 24.9428 233.802 24.7348C233.599 24.5242 233.443 24.2748 233.334 23.9868C233.227 23.6988 233.174 23.3855 233.174 23.0468V19.5748H234.11V23.0428C234.11 23.2722 234.142 23.4815 234.206 23.6708C234.27 23.8575 234.362 24.0188 234.482 24.1548C234.602 24.2882 234.748 24.3922 234.922 24.4668C235.098 24.5415 235.296 24.5788 235.518 24.5788ZM242.075 23.1748L241.283 21.0708C241.219 20.9082 241.154 20.7015 241.087 20.4508C241.058 20.5762 241.026 20.6922 240.991 20.7988C240.956 20.9028 240.924 20.9948 240.895 21.0748L240.103 23.1748H242.075ZM243.847 25.3348H243.123C243.04 25.3348 242.974 25.3148 242.923 25.2748C242.872 25.2322 242.834 25.1802 242.807 25.1188L242.327 23.8468H239.847L239.367 25.1188C239.346 25.1722 239.308 25.2215 239.255 25.2668C239.202 25.3122 239.135 25.3348 239.055 25.3348H238.331L240.615 19.5748H241.563L243.847 25.3348ZM247.847 24.5508V25.3348H244.519V19.5748H245.455V24.5508H247.847ZM254.402 24.0508C254.453 24.0508 254.497 24.0708 254.534 24.1108L254.906 24.5148C254.671 24.7975 254.383 25.0162 254.042 25.1708C253.701 25.3228 253.293 25.3988 252.818 25.3988C252.397 25.3988 252.015 25.3268 251.674 25.1828C251.335 25.0362 251.046 24.8335 250.806 24.5748C250.566 24.3135 250.381 24.0028 250.25 23.6428C250.122 23.2828 250.058 22.8868 250.058 22.4548C250.058 22.0228 250.126 21.6268 250.262 21.2668C250.401 20.9042 250.594 20.5935 250.842 20.3348C251.093 20.0735 251.391 19.8708 251.738 19.7268C252.087 19.5828 252.471 19.5108 252.89 19.5108C253.306 19.5108 253.673 19.5788 253.99 19.7148C254.31 19.8482 254.587 20.0268 254.822 20.2508L254.514 20.6868C254.493 20.7162 254.467 20.7415 254.438 20.7628C254.409 20.7842 254.369 20.7948 254.318 20.7948C254.265 20.7948 254.203 20.7708 254.134 20.7228C254.067 20.6722 253.981 20.6175 253.874 20.5588C253.77 20.4975 253.638 20.4428 253.478 20.3948C253.321 20.3442 253.123 20.3188 252.886 20.3188C252.611 20.3188 252.359 20.3668 252.13 20.4628C251.901 20.5588 251.703 20.6988 251.538 20.8828C251.373 21.0668 251.243 21.2908 251.15 21.5548C251.059 21.8188 251.014 22.1188 251.014 22.4548C251.014 22.7935 251.062 23.0962 251.158 23.3628C251.254 23.6268 251.386 23.8508 251.554 24.0348C251.722 24.2162 251.919 24.3548 252.146 24.4508C252.373 24.5468 252.617 24.5948 252.878 24.5948C253.038 24.5948 253.181 24.5868 253.306 24.5708C253.434 24.5522 253.551 24.5242 253.658 24.4868C253.765 24.4468 253.865 24.3975 253.958 24.3388C254.054 24.2802 254.149 24.2082 254.242 24.1228C254.295 24.0748 254.349 24.0508 254.402 24.0508ZM258.762 23.1748L257.97 21.0708C257.906 20.9082 257.841 20.7015 257.774 20.4508C257.745 20.5762 257.713 20.6922 257.678 20.7988C257.644 20.9028 257.612 20.9948 257.582 21.0748L256.79 23.1748H258.762ZM260.534 25.3348H259.81C259.728 25.3348 259.661 25.3148 259.61 25.2748C259.56 25.2322 259.521 25.1802 259.494 25.1188L259.014 23.8468H256.534L256.054 25.1188C256.033 25.1722 255.996 25.2215 255.942 25.2668C255.889 25.3122 255.822 25.3348 255.742 25.3348H255.018L257.302 19.5748H258.25L260.534 25.3348ZM262.879 22.3348C263.092 22.3348 263.279 22.3095 263.439 22.2588C263.599 22.2055 263.732 22.1322 263.839 22.0388C263.945 21.9455 264.025 21.8348 264.079 21.7068C264.132 21.5762 264.159 21.4322 264.159 21.2748C264.159 20.9602 264.055 20.7202 263.847 20.5548C263.639 20.3895 263.324 20.3068 262.903 20.3068H262.143V22.3348H262.879ZM265.591 25.3348H264.755C264.589 25.3348 264.469 25.2708 264.395 25.1428L263.051 23.2028C263.005 23.1362 262.956 23.0882 262.903 23.0588C262.849 23.0295 262.769 23.0148 262.663 23.0148H262.143V25.3348H261.207V19.5748H262.903C263.281 19.5748 263.607 19.6135 263.879 19.6908C264.153 19.7682 264.379 19.8788 264.555 20.0228C264.731 20.1642 264.86 20.3348 264.943 20.5348C265.028 20.7348 265.071 20.9575 265.071 21.2028C265.071 21.4028 265.04 21.5895 264.979 21.7628C264.92 21.9362 264.833 22.0935 264.719 22.2348C264.607 22.3762 264.468 22.4988 264.303 22.6028C264.137 22.7068 263.949 22.7882 263.739 22.8468C263.853 22.9162 263.952 23.0135 264.035 23.1388L265.591 25.3348ZM271.341 22.4548C271.341 22.8815 271.271 23.2722 271.133 23.6268C270.994 23.9788 270.798 24.2815 270.545 24.5348C270.294 24.7882 269.991 24.9855 269.637 25.1268C269.285 25.2655 268.893 25.3348 268.461 25.3348H266.285V19.5748H268.461C268.893 19.5748 269.285 19.6455 269.637 19.7868C269.991 19.9255 270.294 20.1215 270.545 20.3748C270.798 20.6282 270.994 20.9322 271.133 21.2868C271.271 21.6388 271.341 22.0282 271.341 22.4548ZM270.385 22.4548C270.385 22.1242 270.339 21.8268 270.249 21.5628C270.161 21.2988 270.033 21.0762 269.865 20.8948C269.699 20.7135 269.498 20.5748 269.261 20.4788C269.023 20.3802 268.757 20.3308 268.461 20.3308H267.225V24.5788H268.461C268.757 24.5788 269.023 24.5308 269.261 24.4348C269.498 24.3388 269.699 24.2002 269.865 24.0188C270.033 23.8348 270.161 23.6122 270.249 23.3508C270.339 23.0868 270.385 22.7882 270.385 22.4548Z" fill="black"/>
<rect x="17" y="120" width="83.7956" height="19.1533" rx="9.57664" fill="white"/>
<path d="M31.4665 131.816C31.5092 131.816 31.5465 131.833 31.5785 131.868L31.8865 132.2C31.6519 132.472 31.3665 132.684 31.0305 132.836C30.6972 132.988 30.2932 133.064 29.8185 133.064C29.4079 133.064 29.0345 132.993 28.6985 132.852C28.3625 132.708 28.0759 132.508 27.8385 132.252C27.6012 131.993 27.4172 131.684 27.2865 131.324C27.1559 130.964 27.0905 130.568 27.0905 130.136C27.0905 129.704 27.1585 129.308 27.2945 128.948C27.4305 128.588 27.6212 128.279 27.8665 128.02C28.1145 127.761 28.4105 127.561 28.7545 127.42C29.0985 127.276 29.4785 127.204 29.8945 127.204C30.3025 127.204 30.6625 127.269 30.9745 127.4C31.2865 127.531 31.5612 127.708 31.7985 127.932L31.5425 128.288C31.5265 128.315 31.5052 128.337 31.4785 128.356C31.4545 128.372 31.4212 128.38 31.3785 128.38C31.3305 128.38 31.2719 128.355 31.2025 128.304C31.1332 128.251 31.0425 128.192 30.9305 128.128C30.8185 128.064 30.6785 128.007 30.5105 127.956C30.3425 127.903 30.1359 127.876 29.8905 127.876C29.5945 127.876 29.3239 127.928 29.0785 128.032C28.8332 128.133 28.6212 128.281 28.4425 128.476C28.2665 128.671 28.1292 128.908 28.0305 129.188C27.9319 129.468 27.8825 129.784 27.8825 130.136C27.8825 130.493 27.9332 130.812 28.0345 131.092C28.1385 131.372 28.2785 131.609 28.4545 131.804C28.6332 131.996 28.8425 132.143 29.0825 132.244C29.3252 132.345 29.5865 132.396 29.8665 132.396C30.0372 132.396 30.1905 132.387 30.3265 132.368C30.4652 132.347 30.5919 132.315 30.7065 132.272C30.8239 132.229 30.9319 132.176 31.0305 132.112C31.1319 132.045 31.2319 131.967 31.3305 131.876C31.3759 131.836 31.4212 131.816 31.4665 131.816ZM33.3543 127.108V133H32.6423V127.108H33.3543ZM35.2609 128.948V133H34.5489V128.948H35.2609ZM35.4129 127.676C35.4129 127.745 35.3982 127.811 35.3689 127.872C35.3422 127.931 35.3049 127.984 35.2569 128.032C35.2116 128.077 35.1569 128.113 35.0929 128.14C35.0316 128.167 34.9662 128.18 34.8969 128.18C34.8276 128.18 34.7622 128.167 34.7009 128.14C34.6422 128.113 34.5902 128.077 34.5449 128.032C34.4996 127.984 34.4636 127.931 34.4369 127.872C34.4102 127.811 34.3969 127.745 34.3969 127.676C34.3969 127.607 34.4102 127.541 34.4369 127.48C34.4636 127.416 34.4996 127.361 34.5449 127.316C34.5902 127.268 34.6422 127.231 34.7009 127.204C34.7622 127.177 34.8276 127.164 34.8969 127.164C34.9662 127.164 35.0316 127.177 35.0929 127.204C35.1569 127.231 35.2116 127.268 35.2569 127.316C35.3049 127.361 35.3422 127.416 35.3689 127.48C35.3982 127.541 35.4129 127.607 35.4129 127.676ZM39.2508 129.668C39.2295 129.697 39.2081 129.72 39.1868 129.736C39.1655 129.752 39.1361 129.76 39.0988 129.76C39.0588 129.76 39.0148 129.744 38.9668 129.712C38.9188 129.677 38.8588 129.64 38.7868 129.6C38.7175 129.56 38.6308 129.524 38.5268 129.492C38.4255 129.457 38.3001 129.44 38.1508 129.44C37.9508 129.44 37.7748 129.476 37.6228 129.548C37.4708 129.617 37.3428 129.719 37.2388 129.852C37.1375 129.985 37.0601 130.147 37.0068 130.336C36.9561 130.525 36.9308 130.737 36.9308 130.972C36.9308 131.217 36.9588 131.436 37.0148 131.628C37.0708 131.817 37.1495 131.977 37.2508 132.108C37.3548 132.236 37.4788 132.335 37.6228 132.404C37.7695 132.471 37.9335 132.504 38.1148 132.504C38.2881 132.504 38.4308 132.484 38.5428 132.444C38.6548 132.401 38.7468 132.355 38.8188 132.304C38.8935 132.253 38.9548 132.208 39.0028 132.168C39.0535 132.125 39.1028 132.104 39.1508 132.104C39.2095 132.104 39.2548 132.127 39.2868 132.172L39.4868 132.432C39.3988 132.541 39.2988 132.635 39.1868 132.712C39.0748 132.789 38.9535 132.855 38.8228 132.908C38.6948 132.959 38.5601 132.996 38.4188 133.02C38.2775 133.044 38.1335 133.056 37.9868 133.056C37.7335 133.056 37.4975 133.009 37.2788 132.916C37.0628 132.823 36.8748 132.688 36.7148 132.512C36.5548 132.333 36.4295 132.115 36.3388 131.856C36.2481 131.597 36.2028 131.303 36.2028 130.972C36.2028 130.671 36.2441 130.392 36.3268 130.136C36.4121 129.88 36.5348 129.66 36.6948 129.476C36.8575 129.289 37.0561 129.144 37.2908 129.04C37.5281 128.936 37.8001 128.884 38.1068 128.884C38.3921 128.884 38.6428 128.931 38.8588 129.024C39.0775 129.115 39.2708 129.244 39.4388 129.412L39.2508 129.668ZM40.9671 127.108V130.576H41.1511C41.2044 130.576 41.2484 130.569 41.2831 130.556C41.3204 130.54 41.3591 130.509 41.3991 130.464L42.6791 129.092C42.7164 129.047 42.7551 129.012 42.7951 128.988C42.8378 128.961 42.8938 128.948 42.9631 128.948H43.6071L42.1151 130.536C42.0431 130.627 41.9658 130.697 41.8831 130.748C41.9311 130.78 41.9738 130.817 42.0111 130.86C42.0511 130.9 42.0884 130.947 42.1231 131L43.7071 133H43.0711C43.0098 133 42.9564 132.991 42.9111 132.972C42.8684 132.951 42.8311 132.913 42.7991 132.86L41.4671 131.2C41.4271 131.144 41.3871 131.108 41.3471 131.092C41.3098 131.073 41.2511 131.064 41.1711 131.064H40.9671V133H40.2511V127.108H40.9671ZM47.6045 133.064C47.2845 133.064 47.0378 132.975 46.8645 132.796C46.6938 132.617 46.6085 132.36 46.6085 132.024V129.544H46.1205C46.0778 129.544 46.0418 129.532 46.0125 129.508C45.9831 129.481 45.9685 129.441 45.9685 129.388V129.104L46.6325 129.02L46.7965 127.768C46.8045 127.728 46.8218 127.696 46.8485 127.672C46.8778 127.645 46.9151 127.632 46.9605 127.632H47.3205V129.028H48.4925V129.544H47.3205V131.976C47.3205 132.147 47.3618 132.273 47.4445 132.356C47.5271 132.439 47.6338 132.48 47.7645 132.48C47.8391 132.48 47.9031 132.471 47.9565 132.452C48.0125 132.431 48.0605 132.408 48.1005 132.384C48.1405 132.36 48.1738 132.339 48.2005 132.32C48.2298 132.299 48.2551 132.288 48.2765 132.288C48.3138 132.288 48.3471 132.311 48.3765 132.356L48.5845 132.696C48.4618 132.811 48.3138 132.901 48.1405 132.968C47.9671 133.032 47.7885 133.064 47.6045 133.064ZM50.9122 128.884C51.2082 128.884 51.4749 128.933 51.7122 129.032C51.9496 129.131 52.1522 129.271 52.3202 129.452C52.4882 129.633 52.6162 129.853 52.7042 130.112C52.7949 130.368 52.8402 130.655 52.8402 130.972C52.8402 131.292 52.7949 131.58 52.7042 131.836C52.6162 132.092 52.4882 132.311 52.3202 132.492C52.1522 132.673 51.9496 132.813 51.7122 132.912C51.4749 133.008 51.2082 133.056 50.9122 133.056C50.6136 133.056 50.3442 133.008 50.1042 132.912C49.8669 132.813 49.6642 132.673 49.4962 132.492C49.3282 132.311 49.1989 132.092 49.1082 131.836C49.0202 131.58 48.9762 131.292 48.9762 130.972C48.9762 130.655 49.0202 130.368 49.1082 130.112C49.1989 129.853 49.3282 129.633 49.4962 129.452C49.6642 129.271 49.8669 129.131 50.1042 129.032C50.3442 128.933 50.6136 128.884 50.9122 128.884ZM50.9122 132.5C51.3122 132.5 51.6109 132.367 51.8082 132.1C52.0056 131.831 52.1042 131.456 52.1042 130.976C52.1042 130.493 52.0056 130.117 51.8082 129.848C51.6109 129.579 51.3122 129.444 50.9122 129.444C50.7096 129.444 50.5322 129.479 50.3802 129.548C50.2309 129.617 50.1056 129.717 50.0042 129.848C49.9056 129.979 49.8309 130.14 49.7802 130.332C49.7322 130.521 49.7082 130.736 49.7082 130.976C49.7082 131.456 49.8069 131.831 50.0042 132.1C50.2042 132.367 50.5069 132.5 50.9122 132.5ZM59.0668 128.948L57.4148 133H56.7748L55.1228 128.948H55.7028C55.7615 128.948 55.8095 128.963 55.8468 128.992C55.8842 129.021 55.9095 129.056 55.9228 129.096L56.9508 131.704C56.9828 131.803 57.0108 131.899 57.0348 131.992C57.0588 132.085 57.0815 132.179 57.1028 132.272C57.1242 132.179 57.1468 132.085 57.1708 131.992C57.1948 131.899 57.2242 131.803 57.2588 131.704L58.2988 129.096C58.3148 129.053 58.3415 129.019 58.3788 128.992C58.4162 128.963 58.4602 128.948 58.5108 128.948H59.0668ZM60.4718 128.948V133H59.7598V128.948H60.4718ZM60.6238 127.676C60.6238 127.745 60.6092 127.811 60.5798 127.872C60.5532 127.931 60.5158 127.984 60.4678 128.032C60.4225 128.077 60.3678 128.113 60.3038 128.14C60.2425 128.167 60.1772 128.18 60.1078 128.18C60.0385 128.18 59.9732 128.167 59.9118 128.14C59.8532 128.113 59.8012 128.077 59.7558 128.032C59.7105 127.984 59.6745 127.931 59.6478 127.872C59.6212 127.811 59.6078 127.745 59.6078 127.676C59.6078 127.607 59.6212 127.541 59.6478 127.48C59.6745 127.416 59.7105 127.361 59.7558 127.316C59.8012 127.268 59.8532 127.231 59.9118 127.204C59.9732 127.177 60.0385 127.164 60.1078 127.164C60.1772 127.164 60.2425 127.177 60.3038 127.204C60.3678 127.231 60.4225 127.268 60.4678 127.316C60.5158 127.361 60.5532 127.416 60.5798 127.48C60.6092 127.541 60.6238 127.607 60.6238 127.676ZM64.3537 130.532C64.3537 130.367 64.3297 130.216 64.2817 130.08C64.2364 129.941 64.1684 129.823 64.0777 129.724C63.9897 129.623 63.8817 129.545 63.7537 129.492C63.6257 129.436 63.4804 129.408 63.3177 129.408C62.9764 129.408 62.7057 129.508 62.5057 129.708C62.3084 129.905 62.1857 130.18 62.1377 130.532H64.3537ZM64.9297 132.432C64.8417 132.539 64.7364 132.632 64.6137 132.712C64.4911 132.789 64.3591 132.853 64.2177 132.904C64.0791 132.955 63.9351 132.992 63.7857 133.016C63.6364 133.043 63.4884 133.056 63.3417 133.056C63.0617 133.056 62.8031 133.009 62.5657 132.916C62.3311 132.82 62.1271 132.681 61.9537 132.5C61.7831 132.316 61.6497 132.089 61.5537 131.82C61.4577 131.551 61.4097 131.241 61.4097 130.892C61.4097 130.609 61.4524 130.345 61.5377 130.1C61.6257 129.855 61.7511 129.643 61.9137 129.464C62.0764 129.283 62.2751 129.141 62.5097 129.04C62.7444 128.936 63.0084 128.884 63.3017 128.884C63.5444 128.884 63.7684 128.925 63.9737 129.008C64.1817 129.088 64.3604 129.205 64.5097 129.36C64.6617 129.512 64.7804 129.701 64.8657 129.928C64.9511 130.152 64.9937 130.408 64.9937 130.696C64.9937 130.808 64.9817 130.883 64.9577 130.92C64.9337 130.957 64.8884 130.976 64.8217 130.976H62.1137C62.1217 131.232 62.1564 131.455 62.2177 131.644C62.2817 131.833 62.3697 131.992 62.4817 132.12C62.5937 132.245 62.7271 132.34 62.8817 132.404C63.0364 132.465 63.2097 132.496 63.4017 132.496C63.5804 132.496 63.7337 132.476 63.8617 132.436C63.9924 132.393 64.1044 132.348 64.1977 132.3C64.2911 132.252 64.3684 132.208 64.4297 132.168C64.4937 132.125 64.5484 132.104 64.5937 132.104C64.6524 132.104 64.6977 132.127 64.7297 132.172L64.9297 132.432ZM71.4172 128.948L70.1052 133H69.5412C69.4719 133 69.4239 132.955 69.3972 132.864L68.5012 130.116C68.4799 130.055 68.4626 129.993 68.4492 129.932C68.4359 129.868 68.4226 129.805 68.4092 129.744C68.3959 129.805 68.3826 129.868 68.3692 129.932C68.3559 129.993 68.3386 130.056 68.3172 130.12L67.4052 132.864C67.3812 132.955 67.3279 133 67.2452 133H66.7092L65.3972 128.948H65.9572C66.0132 128.948 66.0599 128.963 66.0972 128.992C66.1372 129.021 66.1639 129.056 66.1772 129.096L66.9532 131.704C66.9986 131.896 67.0346 132.077 67.0612 132.248C67.0852 132.16 67.1092 132.071 67.1332 131.98C67.1599 131.889 67.1879 131.797 67.2172 131.704L68.0732 129.08C68.0866 129.04 68.1092 129.007 68.1412 128.98C68.1759 128.953 68.2172 128.94 68.2652 128.94H68.5772C68.6306 128.94 68.6746 128.953 68.7092 128.98C68.7439 129.007 68.7679 129.04 68.7812 129.08L69.6172 131.704C69.6466 131.797 69.6732 131.889 69.6972 131.98C69.7212 132.071 69.7439 132.16 69.7652 132.248C69.7786 132.16 69.7946 132.072 69.8132 131.984C69.8346 131.893 69.8572 131.8 69.8812 131.704L70.6732 129.096C70.6866 129.053 70.7119 129.019 70.7492 128.992C70.7866 128.963 70.8306 128.948 70.8812 128.948H71.4172ZM73.9933 133V128.948H74.4213C74.5226 128.948 74.5853 128.997 74.6093 129.096L74.6613 129.512C74.8106 129.328 74.9786 129.177 75.1653 129.06C75.352 128.943 75.568 128.884 75.8133 128.884C76.0853 128.884 76.3053 128.96 76.4733 129.112C76.644 129.264 76.7666 129.469 76.8413 129.728C76.9 129.581 76.9746 129.455 77.0653 129.348C77.1586 129.241 77.2626 129.153 77.3773 129.084C77.492 129.015 77.6133 128.964 77.7413 128.932C77.872 128.9 78.004 128.884 78.1373 128.884C78.3506 128.884 78.54 128.919 78.7053 128.988C78.8733 129.055 79.0146 129.153 79.1293 129.284C79.2466 129.415 79.336 129.576 79.3973 129.768C79.4586 129.957 79.4893 130.175 79.4893 130.42V133H78.7733V130.42C78.7733 130.103 78.704 129.863 78.5653 129.7C78.4266 129.535 78.2266 129.452 77.9653 129.452C77.848 129.452 77.736 129.473 77.6293 129.516C77.5253 129.556 77.4333 129.616 77.3533 129.696C77.2733 129.776 77.2093 129.877 77.1613 130C77.116 130.12 77.0933 130.26 77.0933 130.42V133H76.3773V130.42C76.3773 130.095 76.312 129.852 76.1813 129.692C76.0506 129.532 75.86 129.452 75.6093 129.452C75.4333 129.452 75.2706 129.5 75.1213 129.596C74.972 129.689 74.8346 129.817 74.7093 129.98V133H73.9933ZM82.2794 128.884C82.5754 128.884 82.8421 128.933 83.0794 129.032C83.3167 129.131 83.5194 129.271 83.6874 129.452C83.8554 129.633 83.9834 129.853 84.0714 130.112C84.1621 130.368 84.2074 130.655 84.2074 130.972C84.2074 131.292 84.1621 131.58 84.0714 131.836C83.9834 132.092 83.8554 132.311 83.6874 132.492C83.5194 132.673 83.3167 132.813 83.0794 132.912C82.8421 133.008 82.5754 133.056 82.2794 133.056C81.9807 133.056 81.7114 133.008 81.4714 132.912C81.2341 132.813 81.0314 132.673 80.8634 132.492C80.6954 132.311 80.5661 132.092 80.4754 131.836C80.3874 131.58 80.3434 131.292 80.3434 130.972C80.3434 130.655 80.3874 130.368 80.4754 130.112C80.5661 129.853 80.6954 129.633 80.8634 129.452C81.0314 129.271 81.2341 129.131 81.4714 129.032C81.7114 128.933 81.9807 128.884 82.2794 128.884ZM82.2794 132.5C82.6794 132.5 82.9781 132.367 83.1754 132.1C83.3727 131.831 83.4714 131.456 83.4714 130.976C83.4714 130.493 83.3727 130.117 83.1754 129.848C82.9781 129.579 82.6794 129.444 82.2794 129.444C82.0767 129.444 81.8994 129.479 81.7474 129.548C81.5981 129.617 81.4727 129.717 81.3714 129.848C81.2727 129.979 81.1981 130.14 81.1474 130.332C81.0994 130.521 81.0754 130.736 81.0754 130.976C81.0754 131.456 81.1741 131.831 81.3714 132.1C81.5714 132.367 81.8741 132.5 82.2794 132.5ZM85.7865 129.76C85.9145 129.483 86.0718 129.267 86.2585 129.112C86.4451 128.955 86.6731 128.876 86.9425 128.876C87.0278 128.876 87.1091 128.885 87.1865 128.904C87.2665 128.923 87.3371 128.952 87.3985 128.992L87.3465 129.524C87.3305 129.591 87.2905 129.624 87.2265 129.624C87.1891 129.624 87.1345 129.616 87.0625 129.6C86.9905 129.584 86.9091 129.576 86.8185 129.576C86.6905 129.576 86.5758 129.595 86.4745 129.632C86.3758 129.669 86.2865 129.725 86.2065 129.8C86.1291 129.872 86.0585 129.963 85.9945 130.072C85.9331 130.179 85.8771 130.301 85.8265 130.44V133H85.1105V128.948H85.5185C85.5958 128.948 85.6491 128.963 85.6785 128.992C85.7078 129.021 85.7278 129.072 85.7385 129.144L85.7865 129.76ZM90.5725 130.532C90.5725 130.367 90.5485 130.216 90.5005 130.08C90.4551 129.941 90.3871 129.823 90.2965 129.724C90.2085 129.623 90.1005 129.545 89.9725 129.492C89.8445 129.436 89.6991 129.408 89.5365 129.408C89.1951 129.408 88.9245 129.508 88.7245 129.708C88.5271 129.905 88.4045 130.18 88.3565 130.532H90.5725ZM91.1485 132.432C91.0605 132.539 90.9551 132.632 90.8325 132.712C90.7098 132.789 90.5778 132.853 90.4365 132.904C90.2978 132.955 90.1538 132.992 90.0045 133.016C89.8551 133.043 89.7071 133.056 89.5605 133.056C89.2805 133.056 89.0218 133.009 88.7845 132.916C88.5498 132.82 88.3458 132.681 88.1725 132.5C88.0018 132.316 87.8685 132.089 87.7725 131.82C87.6765 131.551 87.6285 131.241 87.6285 130.892C87.6285 130.609 87.6711 130.345 87.7565 130.1C87.8445 129.855 87.9698 129.643 88.1325 129.464C88.2951 129.283 88.4938 129.141 88.7285 129.04C88.9631 128.936 89.2271 128.884 89.5205 128.884C89.7631 128.884 89.9871 128.925 90.1925 129.008C90.4005 129.088 90.5791 129.205 90.7285 129.36C90.8805 129.512 90.9991 129.701 91.0845 129.928C91.1698 130.152 91.2125 130.408 91.2125 130.696C91.2125 130.808 91.2005 130.883 91.1765 130.92C91.1525 130.957 91.1071 130.976 91.0405 130.976H88.3325C88.3405 131.232 88.3751 131.455 88.4365 131.644C88.5005 131.833 88.5885 131.992 88.7005 132.12C88.8125 132.245 88.9458 132.34 89.1005 132.404C89.2551 132.465 89.4285 132.496 89.6205 132.496C89.7991 132.496 89.9525 132.476 90.0805 132.436C90.2111 132.393 90.3231 132.348 90.4165 132.3C90.5098 132.252 90.5871 132.208 90.6485 132.168C90.7125 132.125 90.7671 132.104 90.8125 132.104C90.8711 132.104 90.9165 132.127 90.9485 132.172L91.1485 132.432Z" fill="black"/>
<defs>
<filter id="filter0_d_493_12022" x="13.4219" y="13.0679" width="23.2461" height="25.424" filterUnits="userSpaceOnUse" color-interpolation-filters="sRGB">
<feFlood flood-opacity="0" result="BackgroundImageFix"/>
<feColorMatrix in="SourceAlpha" type="matrix" values="0 0 0 0 0 0 0 0 0 0 0 0 0 0 0 0 0 0 127 0" result="hardAlpha"/>
<feOffset dy="4"/>
<feGaussianBlur stdDeviation="2"/>
<feComposite in2="hardAlpha" operator="out"/>
<feColorMatrix type="matrix" values="0 0 0 0 0 0 0 0 0 0 0 0 0 0 0 0 0 0 0.25 0"/>
<feBlend mode="normal" in2="BackgroundImageFix" result="effect1_dropShadow_493_12022"/>
<feBlend mode="normal" in="SourceGraphic" in2="effect1_dropShadow_493_12022" result="shape"/>
</filter>
<linearGradient id="paint0_linear_493_12022" x1="149.192" y1="8.71191" x2="149.192" y2="148.103" gradientUnits="userSpaceOnUse">
<stop stop-color="white" stop-opacity="0.2"/>
<stop offset="0.855469" stop-color="white" stop-opacity="0"/>
</linearGradient>
<linearGradient id="paint1_linear_493_12022" x1="149.192" y1="8.71191" x2="149.192" y2="148.103" gradientUnits="userSpaceOnUse">
<stop stop-color="white" stop-opacity="0.2"/>
<stop offset="0.855469" stop-color="white" stop-opacity="0"/>
</linearGradient>
<linearGradient id="paint2_linear_493_12022" x1="149.192" y1="8.71191" x2="149.192" y2="148.103" gradientUnits="userSpaceOnUse">
<stop stop-color="white" stop-opacity="0.2"/>
<stop offset="0.855469" stop-color="white" stop-opacity="0"/>
</linearGradient>
<linearGradient id="paint3_linear_493_12022" x1="149.192" y1="8.71191" x2="149.192" y2="148.103" gradientUnits="userSpaceOnUse">
<stop stop-color="white" stop-opacity="0.2"/>
<stop offset="0.855469" stop-color="white" stop-opacity="0"/>
</linearGradient>
</defs>
</svg>
