<svg width="32" height="37" viewBox="0 0 32 37" fill="none" xmlns="http://www.w3.org/2000/svg">
<g id="Subtract" filter="url(#filter0_d_223_3062)">
<path d="M9.33584 2.87785C11.1771 1.02321 13.167 0.0528931 15.1761 0V4.20819C14.0072 4.05668 12.9336 4.54022 11.9409 5.54011C10.0584 7.43626 10.0204 9.58139 12.5494 12.1287L18.3679 17.9895C19.2081 18.8358 19.2081 20.2078 18.3679 21.054C17.5278 21.9003 16.1657 21.9003 15.3255 21.054L9.39288 15.0783C5.4758 11.1328 5.55186 6.68929 9.33584 2.87785Z" fill="#4B0082"/>
<path d="M18.482 6.15301C18.1193 5.78766 17.7644 5.47589 17.4171 5.21538V0.322704C18.788 0.755671 20.1455 1.62301 21.4484 2.93531L27.362 8.89188C28.2127 9.74869 28.2127 11.1379 27.362 11.9947C26.5114 12.8515 25.1322 12.8515 24.2816 11.9947L18.482 6.15301Z" fill="#4B0082"/>
<path d="M15.1761 28.1874C13.6043 27.835 12.0422 26.916 10.5516 25.4147L4.63798 19.4581C3.78734 18.6013 3.78734 17.2122 4.63798 16.3553C5.48861 15.4985 6.86776 15.4985 7.7184 16.3553L13.518 22.197C14.0898 22.773 14.6421 23.2157 15.1761 23.5345V28.1874Z" fill="#4B0082"/>
<path d="M17.4171 28.3077C19.2237 28.0973 21.0043 27.1441 22.6642 25.4722C26.4481 21.6607 26.5242 17.2172 22.6071 13.2717L16.6744 7.29599C15.8343 6.44975 14.4722 6.44975 13.6321 7.29599C12.7919 8.14222 12.7919 9.51423 13.6321 10.3605L19.4506 16.2213C21.9796 18.7686 21.9416 20.9138 20.0591 22.8099C19.2367 23.6383 18.3587 24.1123 17.4171 24.1643V28.3077Z" fill="#4B0082"/>
</g>
<defs>
<filter id="filter0_d_223_3062" x="0" y="0" width="32" height="36.3076" filterUnits="userSpaceOnUse" color-interpolation-filters="sRGB">
<feFlood flood-opacity="0" result="BackgroundImageFix"/>
<feColorMatrix in="SourceAlpha" type="matrix" values="0 0 0 0 0 0 0 0 0 0 0 0 0 0 0 0 0 0 127 0" result="hardAlpha"/>
<feOffset dy="4"/>
<feGaussianBlur stdDeviation="2"/>
<feComposite in2="hardAlpha" operator="out"/>
<feColorMatrix type="matrix" values="0 0 0 0 0 0 0 0 0 0 0 0 0 0 0 0 0 0 0.25 0"/>
<feBlend mode="normal" in2="BackgroundImageFix" result="effect1_dropShadow_223_3062"/>
<feBlend mode="normal" in="SourceGraphic" in2="effect1_dropShadow_223_3062" result="shape"/>
</filter>
</defs>
</svg>
