<svg width="24" height="24" viewBox="0 0 24 24" fill="none" xmlns="http://www.w3.org/2000/svg">
<path d="M22 15C22 18.87 18.87 22 15 22L16.05 20.25" stroke="white" stroke-width="1.5" stroke-linecap="round" stroke-linejoin="round"/>
<path d="M2 9C2 5.13 5.13 2 9 2L7.95 3.75" stroke="white" stroke-width="1.5" stroke-linecap="round" stroke-linejoin="round"/>
<path d="M19.9068 6.145H18.5618L18.8668 6.695H19.9068V6.145ZM19.9418 8.625C19.9318 8.515 19.9234 8.40667 19.9168 8.3C19.9101 8.19333 19.9068 8.09333 19.9068 8V7.305H19.2068L19.9418 8.625ZM17.8068 6.695L17.5018 6.145H16.4318V6.695H17.8068ZM16.4018 4.17C16.4118 4.27667 16.4184 4.38167 16.4218 4.485C16.4284 4.585 16.4318 4.67833 16.4318 4.765V5.54H17.1618L16.4018 4.17ZM20.8668 6.145V6.695H21.7168V7.02C21.7168 7.09333 21.6868 7.16 21.6268 7.22C21.5701 7.27667 21.4984 7.305 21.4118 7.305H20.8668V10H19.9368C19.8468 10 19.7701 9.985 19.7068 9.955C19.6434 9.92167 19.5834 9.86833 19.5268 9.795L18.1418 7.305H16.4318V10H15.4718V7.305H14.6218V6.695H15.4718V6.145H14.6218V5.825C14.6218 5.75167 14.6501 5.68667 14.7068 5.63C14.7668 5.57 14.8418 5.54 14.9318 5.54H15.4718V2.8H16.4118C16.4618 2.8 16.5051 2.80333 16.5418 2.81C16.5784 2.81333 16.6101 2.82167 16.6368 2.835C16.6668 2.84833 16.6951 2.86833 16.7218 2.895C16.7484 2.92167 16.7768 2.955 16.8068 2.995L18.2218 5.54H19.9068V2.8H20.8668V5.54H21.7168V6.145H20.8668Z" fill="white"/>
<path d="M3.27246 18.8183C3.27246 19.8764 4.09066 20.7273 5.09429 20.7273H7.14518C8.0179 20.7273 8.72701 19.9855 8.72701 19.0583C8.72701 18.0655 8.29065 17.7055 7.64702 17.4764L4.36337 16.331C3.71973 16.1019 3.28338 15.7528 3.28338 14.7492C3.28338 13.8328 3.99245 13.0801 4.86518 13.0801H6.91609C7.91973 13.0801 8.73793 13.931 8.73793 14.9892" stroke="white" stroke-width="1.5" stroke-linecap="round" stroke-linejoin="round"/>
<path d="M6 12V21.8182" stroke="white" stroke-width="1.5" stroke-linecap="round" stroke-linejoin="round"/>
</svg>
