<svg width="300" height="157" viewBox="0 0 300 157" fill="none" xmlns="http://www.w3.org/2000/svg">
<rect x="0.806641" width="298.384" height="156.815" rx="10" fill="#2B468B"/>
<g filter="url(#filter0_d_250_8802)">
<path d="M21.6181 14.8393C22.7877 13.6977 24.0518 13.1005 25.3281 13.0679V15.6581C24.5855 15.5649 23.9035 15.8625 23.2729 16.4779C22.0771 17.6451 22.0529 18.9654 23.6595 20.5334L27.3557 24.1408C27.8894 24.6617 27.8894 25.5062 27.3557 26.027C26.822 26.5479 25.9567 26.5479 25.423 26.027L21.6543 22.3489C19.166 19.9203 19.2143 17.1853 21.6181 14.8393Z" fill="white"/>
<path d="M27.4282 16.8552C27.1978 16.6303 26.9723 16.4384 26.7517 16.2781V13.2665C27.6225 13.533 28.4849 14.0669 29.3125 14.8746L33.0691 18.541C33.6095 19.0684 33.6095 19.9235 33.0691 20.4508C32.5288 20.9782 31.6527 20.9782 31.1123 20.4508L27.4282 16.8552Z" fill="white"/>
<path d="M25.3281 30.4178C24.3296 30.2008 23.3373 29.6352 22.3904 28.7111L18.6338 25.0447C18.0934 24.5173 18.0934 23.6623 18.6338 23.1349C19.1742 22.6075 20.0503 22.6075 20.5906 23.1349L24.2748 26.7306C24.638 27.0851 24.9889 27.3576 25.3281 27.5538V30.4178Z" fill="white"/>
<path d="M26.7517 30.4918C27.8993 30.3623 29.0304 29.7756 30.0848 28.7465C32.4886 26.4005 32.5369 23.6654 30.0486 21.2369L26.2799 17.5587C25.7462 17.0378 24.8809 17.0378 24.3472 17.5587C23.8135 18.0796 23.8135 18.9241 24.3472 19.445L28.0435 23.0524C29.65 24.6203 29.6258 25.9407 28.43 27.1078C27.9076 27.6177 27.3499 27.9094 26.7517 27.9415V30.4918Z" fill="white"/>
</g>
<path d="M117.341 31.5948C126.365 22.4623 136.116 17.6843 145.962 17.4239V38.1456C140.233 37.3995 134.972 39.7806 130.107 44.7042C120.882 54.0411 120.696 64.604 133.089 77.1475L161.603 106.007C165.72 110.174 165.72 116.93 161.603 121.097C157.486 125.264 150.811 125.264 146.694 121.097L117.621 91.6716C98.4255 72.2433 98.7982 50.3629 117.341 31.5948Z" fill="url(#paint0_linear_250_8802)"/>
<path d="M162.162 47.7221C160.385 45.9231 158.645 44.3879 156.943 43.1051V19.0129C163.662 21.1449 170.314 25.4158 176.699 31.8777L205.678 61.2088C209.847 65.4278 209.847 72.2683 205.678 76.4873C201.51 80.7064 194.751 80.7064 190.583 76.4873L162.162 47.7221Z" fill="url(#paint1_linear_250_8802)"/>
<path d="M145.962 156.223C138.259 154.487 130.604 149.962 123.299 142.57L94.3197 113.238C90.1512 109.019 90.1512 102.179 94.3197 97.9599C98.4883 93.7409 105.247 93.7409 109.415 97.9599L137.836 126.725C140.638 129.561 143.345 131.742 145.962 133.311V156.223Z" fill="url(#paint2_linear_250_8802)"/>
<path d="M156.943 156.815C165.797 155.779 174.522 151.085 182.657 142.852C201.2 124.084 201.573 102.204 182.377 82.7757L153.304 53.3503C149.187 49.1834 142.512 49.1834 138.395 53.3503C134.278 57.5173 134.278 64.2733 138.395 68.4403L166.909 97.2998C179.302 109.843 179.116 120.406 169.891 129.743C165.86 133.822 161.558 136.156 156.943 136.413V156.815Z" fill="url(#paint3_linear_250_8802)"/>
<rect x="205.537" y="13.068" width="76.2295" height="17.4239" rx="8.71195" fill="white"/>
<path d="M221.404 19.5749L219.068 25.3349H218.224L215.888 19.5749H216.636C216.718 19.5749 216.785 19.5963 216.836 19.6389C216.886 19.6789 216.925 19.7296 216.952 19.7909L218.436 23.5469C218.516 23.7576 218.589 24.0003 218.656 24.2749C218.685 24.1389 218.716 24.0096 218.748 23.8869C218.782 23.7643 218.82 23.6509 218.86 23.5469L220.34 19.7909C220.361 19.7376 220.398 19.6883 220.452 19.6429C220.505 19.5976 220.572 19.5749 220.652 19.5749H221.404ZM223.016 25.3349H222.076V19.5749H223.016V25.3349ZM226.052 22.3349C226.266 22.3349 226.452 22.3096 226.612 22.2589C226.772 22.2056 226.906 22.1323 227.012 22.0389C227.119 21.9456 227.199 21.8349 227.252 21.7069C227.306 21.5763 227.332 21.4323 227.332 21.2749C227.332 20.9603 227.228 20.7203 227.02 20.5549C226.812 20.3896 226.498 20.3069 226.076 20.3069H225.316V22.3349H226.052ZM228.764 25.3349H227.928C227.763 25.3349 227.643 25.2709 227.568 25.1429L226.224 23.2029C226.179 23.1363 226.13 23.0883 226.076 23.0589C226.023 23.0296 225.943 23.0149 225.836 23.0149H225.316V25.3349H224.38V19.5749H226.076C226.455 19.5749 226.78 19.6136 227.052 19.6909C227.327 19.7683 227.552 19.8789 227.728 20.0229C227.904 20.1643 228.034 20.3349 228.116 20.5349C228.202 20.7349 228.244 20.9576 228.244 21.2029C228.244 21.4029 228.214 21.5896 228.152 21.7629C228.094 21.9363 228.007 22.0936 227.892 22.2349C227.78 22.3763 227.642 22.4989 227.476 22.6029C227.311 22.7069 227.123 22.7883 226.912 22.8469C227.027 22.9163 227.126 23.0136 227.208 23.1389L228.764 25.3349ZM233.251 20.3549H231.455V25.3349H230.523V20.3549H228.723V19.5749H233.251V20.3549ZM236.324 24.5789C236.546 24.5789 236.743 24.5416 236.916 24.4669C237.092 24.3923 237.24 24.2883 237.36 24.1549C237.483 24.0216 237.576 23.8616 237.64 23.6749C237.704 23.4856 237.736 23.2763 237.736 23.0469V19.5749H238.668V23.0469C238.668 23.3856 238.614 23.6989 238.504 23.9869C238.398 24.2749 238.243 24.5243 238.04 24.7349C237.838 24.9429 237.591 25.1069 237.3 25.2269C237.012 25.3443 236.687 25.4029 236.324 25.4029C235.962 25.4029 235.635 25.3443 235.344 25.2269C235.056 25.1069 234.811 24.9429 234.608 24.7349C234.406 24.5243 234.25 24.2749 234.14 23.9869C234.034 23.6989 233.98 23.3856 233.98 23.0469V19.5749H234.916V23.0429C234.916 23.2723 234.948 23.4816 235.012 23.6709C235.076 23.8576 235.168 24.0189 235.288 24.1549C235.408 24.2883 235.555 24.3923 235.728 24.4669C235.904 24.5416 236.103 24.5789 236.324 24.5789ZM242.882 23.1749L242.09 21.0709C242.026 20.9083 241.96 20.7016 241.894 20.4509C241.864 20.5763 241.832 20.6923 241.798 20.7989C241.763 20.9029 241.731 20.9949 241.702 21.0749L240.91 23.1749H242.882ZM244.654 25.3349H243.93C243.847 25.3349 243.78 25.3149 243.73 25.2749C243.679 25.2323 243.64 25.1803 243.614 25.1189L243.134 23.8469H240.654L240.174 25.1189C240.152 25.1723 240.115 25.2216 240.062 25.2669C240.008 25.3123 239.942 25.3349 239.862 25.3349H239.138L241.422 19.5749H242.37L244.654 25.3349ZM248.654 24.5509V25.3349H245.326V19.5749H246.262V24.5509H248.654ZM255.209 24.0509C255.259 24.0509 255.303 24.0709 255.341 24.1109L255.713 24.5149C255.478 24.7976 255.19 25.0163 254.849 25.1709C254.507 25.3229 254.099 25.3989 253.625 25.3989C253.203 25.3989 252.822 25.3269 252.481 25.1829C252.142 25.0363 251.853 24.8336 251.613 24.5749C251.373 24.3136 251.187 24.0029 251.057 23.6429C250.929 23.2829 250.865 22.8869 250.865 22.4549C250.865 22.0229 250.933 21.6269 251.069 21.2669C251.207 20.9043 251.401 20.5936 251.649 20.3349C251.899 20.0736 252.198 19.8709 252.545 19.7269C252.894 19.5829 253.278 19.5109 253.697 19.5109C254.113 19.5109 254.479 19.5789 254.797 19.7149C255.117 19.8483 255.394 20.0269 255.629 20.2509L255.321 20.6869C255.299 20.7163 255.274 20.7416 255.245 20.7629C255.215 20.7843 255.175 20.7949 255.125 20.7949C255.071 20.7949 255.01 20.7709 254.941 20.7229C254.874 20.6723 254.787 20.6176 254.681 20.5589C254.577 20.4976 254.445 20.4429 254.285 20.3949C254.127 20.3443 253.93 20.3189 253.693 20.3189C253.418 20.3189 253.166 20.3669 252.937 20.4629C252.707 20.5589 252.51 20.6989 252.345 20.8829C252.179 21.0669 252.05 21.2909 251.957 21.5549C251.866 21.8189 251.821 22.1189 251.821 22.4549C251.821 22.7936 251.869 23.0963 251.965 23.3629C252.061 23.6269 252.193 23.8509 252.361 24.0349C252.529 24.2163 252.726 24.3549 252.953 24.4509C253.179 24.5469 253.423 24.5949 253.685 24.5949C253.845 24.5949 253.987 24.5869 254.113 24.5709C254.241 24.5523 254.358 24.5243 254.465 24.4869C254.571 24.4469 254.671 24.3976 254.765 24.3389C254.861 24.2803 254.955 24.2083 255.049 24.1229C255.102 24.0749 255.155 24.0509 255.209 24.0509ZM259.569 23.1749L258.777 21.0709C258.713 20.9083 258.648 20.7016 258.581 20.4509C258.552 20.5763 258.52 20.6923 258.485 20.7989C258.45 20.9029 258.418 20.9949 258.389 21.0749L257.597 23.1749H259.569ZM261.341 25.3349H260.617C260.534 25.3349 260.468 25.3149 260.417 25.2749C260.366 25.2323 260.328 25.1803 260.301 25.1189L259.821 23.8469H257.341L256.861 25.1189C256.84 25.1723 256.802 25.2216 256.749 25.2669C256.696 25.3123 256.629 25.3349 256.549 25.3349H255.825L258.109 19.5749H259.057L261.341 25.3349ZM263.685 22.3349C263.899 22.3349 264.085 22.3096 264.245 22.2589C264.405 22.2056 264.539 22.1323 264.645 22.0389C264.752 21.9456 264.832 21.8349 264.885 21.7069C264.939 21.5763 264.965 21.4323 264.965 21.2749C264.965 20.9603 264.861 20.7203 264.653 20.5549C264.445 20.3896 264.131 20.3069 263.709 20.3069H262.949V22.3349H263.685ZM266.397 25.3349H265.561C265.396 25.3349 265.276 25.2709 265.201 25.1429L263.857 23.2029C263.812 23.1363 263.763 23.0883 263.709 23.0589C263.656 23.0296 263.576 23.0149 263.469 23.0149H262.949V25.3349H262.013V19.5749H263.709C264.088 19.5749 264.413 19.6136 264.685 19.6909C264.96 19.7683 265.185 19.8789 265.361 20.0229C265.537 20.1643 265.667 20.3349 265.749 20.5349C265.835 20.7349 265.877 20.9576 265.877 21.2029C265.877 21.4029 265.847 21.5896 265.785 21.7629C265.727 21.9363 265.64 22.0936 265.525 22.2349C265.413 22.3763 265.275 22.4989 265.109 22.6029C264.944 22.7069 264.756 22.7883 264.545 22.8469C264.66 22.9163 264.759 23.0136 264.841 23.1389L266.397 25.3349ZM272.147 22.4549C272.147 22.8816 272.078 23.2723 271.939 23.6269C271.801 23.9789 271.605 24.2816 271.351 24.5349C271.101 24.7883 270.798 24.9856 270.443 25.1269C270.091 25.2656 269.699 25.3349 269.267 25.3349H267.091V19.5749H269.267C269.699 19.5749 270.091 19.6456 270.443 19.7869C270.798 19.9256 271.101 20.1216 271.351 20.3749C271.605 20.6283 271.801 20.9323 271.939 21.2869C272.078 21.6389 272.147 22.0283 272.147 22.4549ZM271.191 22.4549C271.191 22.1243 271.146 21.8269 271.055 21.5629C270.967 21.2989 270.839 21.0763 270.671 20.8949C270.506 20.7136 270.305 20.5749 270.067 20.4789C269.83 20.3803 269.563 20.3309 269.267 20.3309H268.031V24.5789H269.267C269.563 24.5789 269.83 24.5309 270.067 24.4349C270.305 24.3389 270.506 24.2003 270.671 24.0189C270.839 23.8349 270.967 23.6123 271.055 23.3509C271.146 23.0869 271.191 22.7883 271.191 22.4549Z" fill="black"/>
<path d="M245.059 139.039L247.914 122.309H252.479L249.615 139.039H245.059ZM266.096 122.668C265.19 122.326 263.78 121.967 262.01 121.967C257.505 121.967 254.325 124.241 254.299 127.49C254.274 129.892 256.565 131.234 258.3 132.037C260.07 132.858 260.668 133.379 260.659 134.106C260.651 135.226 259.24 135.739 257.933 135.739C256.103 135.739 255.137 135.482 253.641 134.858L253.051 134.593L252.41 138.338C253.479 138.808 255.445 139.209 257.488 139.227C262.284 139.227 265.395 136.987 265.43 133.508C265.447 131.601 264.233 130.157 261.6 128.96C260.01 128.182 259.027 127.669 259.035 126.883C259.035 126.19 259.864 125.446 261.651 125.446C263.139 125.421 264.224 125.746 265.062 126.088L265.472 126.284L266.096 122.668ZM277.833 122.309H274.311C273.217 122.309 272.405 122.608 271.926 123.694L265.147 139.03H269.935C269.935 139.03 270.721 136.97 270.892 136.517C271.413 136.517 276.072 136.525 276.731 136.525C276.867 137.115 277.286 139.03 277.286 139.03H281.518L277.833 122.309ZM272.243 133.114C272.619 132.148 274.063 128.438 274.063 128.438C274.038 128.481 274.44 127.472 274.67 126.84L274.978 128.285C274.978 128.285 275.85 132.277 276.038 133.114H272.243ZM241.186 122.309L236.724 133.721L236.245 131.405C235.416 128.729 232.826 125.831 229.928 124.386L234.014 139.013L238.844 139.004L246.024 122.301L241.186 122.309Z" fill="white"/>
<path d="M232.552 122.309H225.2L225.141 122.66C230.86 124.045 234.647 127.396 236.219 131.413L234.621 123.72C234.347 122.66 233.544 122.343 232.552 122.309Z" fill="#F2AE13"/>
<rect x="18" y="120" width="83.7956" height="19.1533" rx="9.57664" fill="white"/>
<path d="M32.4665 131.816C32.5092 131.816 32.5465 131.833 32.5785 131.868L32.8865 132.2C32.6519 132.472 32.3665 132.684 32.0305 132.836C31.6972 132.988 31.2932 133.064 30.8185 133.064C30.4079 133.064 30.0345 132.993 29.6985 132.852C29.3625 132.708 29.0759 132.508 28.8385 132.252C28.6012 131.993 28.4172 131.684 28.2865 131.324C28.1559 130.964 28.0905 130.568 28.0905 130.136C28.0905 129.704 28.1585 129.308 28.2945 128.948C28.4305 128.588 28.6212 128.279 28.8665 128.02C29.1145 127.761 29.4105 127.561 29.7545 127.42C30.0985 127.276 30.4785 127.204 30.8945 127.204C31.3025 127.204 31.6625 127.269 31.9745 127.4C32.2865 127.531 32.5612 127.708 32.7985 127.932L32.5425 128.288C32.5265 128.315 32.5052 128.337 32.4785 128.356C32.4545 128.372 32.4212 128.38 32.3785 128.38C32.3305 128.38 32.2719 128.355 32.2025 128.304C32.1332 128.251 32.0425 128.192 31.9305 128.128C31.8185 128.064 31.6785 128.007 31.5105 127.956C31.3425 127.903 31.1359 127.876 30.8905 127.876C30.5945 127.876 30.3239 127.928 30.0785 128.032C29.8332 128.133 29.6212 128.281 29.4425 128.476C29.2665 128.671 29.1292 128.908 29.0305 129.188C28.9319 129.468 28.8825 129.784 28.8825 130.136C28.8825 130.493 28.9332 130.812 29.0345 131.092C29.1385 131.372 29.2785 131.609 29.4545 131.804C29.6332 131.996 29.8425 132.143 30.0825 132.244C30.3252 132.345 30.5865 132.396 30.8665 132.396C31.0372 132.396 31.1905 132.387 31.3265 132.368C31.4652 132.347 31.5919 132.315 31.7065 132.272C31.8239 132.229 31.9319 132.176 32.0305 132.112C32.1319 132.045 32.2319 131.967 32.3305 131.876C32.3759 131.836 32.4212 131.816 32.4665 131.816ZM34.3543 127.108V133H33.6423V127.108H34.3543ZM36.2609 128.948V133H35.5489V128.948H36.2609ZM36.4129 127.676C36.4129 127.745 36.3982 127.811 36.3689 127.872C36.3422 127.931 36.3049 127.984 36.2569 128.032C36.2116 128.077 36.1569 128.113 36.0929 128.14C36.0316 128.167 35.9662 128.18 35.8969 128.18C35.8276 128.18 35.7622 128.167 35.7009 128.14C35.6422 128.113 35.5902 128.077 35.5449 128.032C35.4996 127.984 35.4636 127.931 35.4369 127.872C35.4102 127.811 35.3969 127.745 35.3969 127.676C35.3969 127.607 35.4102 127.541 35.4369 127.48C35.4636 127.416 35.4996 127.361 35.5449 127.316C35.5902 127.268 35.6422 127.231 35.7009 127.204C35.7622 127.177 35.8276 127.164 35.8969 127.164C35.9662 127.164 36.0316 127.177 36.0929 127.204C36.1569 127.231 36.2116 127.268 36.2569 127.316C36.3049 127.361 36.3422 127.416 36.3689 127.48C36.3982 127.541 36.4129 127.607 36.4129 127.676ZM40.2508 129.668C40.2295 129.697 40.2081 129.72 40.1868 129.736C40.1655 129.752 40.1361 129.76 40.0988 129.76C40.0588 129.76 40.0148 129.744 39.9668 129.712C39.9188 129.677 39.8588 129.64 39.7868 129.6C39.7175 129.56 39.6308 129.524 39.5268 129.492C39.4255 129.457 39.3001 129.44 39.1508 129.44C38.9508 129.44 38.7748 129.476 38.6228 129.548C38.4708 129.617 38.3428 129.719 38.2388 129.852C38.1375 129.985 38.0601 130.147 38.0068 130.336C37.9561 130.525 37.9308 130.737 37.9308 130.972C37.9308 131.217 37.9588 131.436 38.0148 131.628C38.0708 131.817 38.1495 131.977 38.2508 132.108C38.3548 132.236 38.4788 132.335 38.6228 132.404C38.7695 132.471 38.9335 132.504 39.1148 132.504C39.2881 132.504 39.4308 132.484 39.5428 132.444C39.6548 132.401 39.7468 132.355 39.8188 132.304C39.8935 132.253 39.9548 132.208 40.0028 132.168C40.0535 132.125 40.1028 132.104 40.1508 132.104C40.2095 132.104 40.2548 132.127 40.2868 132.172L40.4868 132.432C40.3988 132.541 40.2988 132.635 40.1868 132.712C40.0748 132.789 39.9535 132.855 39.8228 132.908C39.6948 132.959 39.5601 132.996 39.4188 133.02C39.2775 133.044 39.1335 133.056 38.9868 133.056C38.7335 133.056 38.4975 133.009 38.2788 132.916C38.0628 132.823 37.8748 132.688 37.7148 132.512C37.5548 132.333 37.4295 132.115 37.3388 131.856C37.2481 131.597 37.2028 131.303 37.2028 130.972C37.2028 130.671 37.2441 130.392 37.3268 130.136C37.4121 129.88 37.5348 129.66 37.6948 129.476C37.8575 129.289 38.0561 129.144 38.2908 129.04C38.5281 128.936 38.8001 128.884 39.1068 128.884C39.3921 128.884 39.6428 128.931 39.8588 129.024C40.0775 129.115 40.2708 129.244 40.4388 129.412L40.2508 129.668ZM41.9671 127.108V130.576H42.1511C42.2044 130.576 42.2484 130.569 42.2831 130.556C42.3204 130.54 42.3591 130.509 42.3991 130.464L43.6791 129.092C43.7164 129.047 43.7551 129.012 43.7951 128.988C43.8378 128.961 43.8938 128.948 43.9631 128.948H44.6071L43.1151 130.536C43.0431 130.627 42.9658 130.697 42.8831 130.748C42.9311 130.78 42.9738 130.817 43.0111 130.86C43.0511 130.9 43.0884 130.947 43.1231 131L44.7071 133H44.0711C44.0098 133 43.9564 132.991 43.9111 132.972C43.8684 132.951 43.8311 132.913 43.7991 132.86L42.4671 131.2C42.4271 131.144 42.3871 131.108 42.3471 131.092C42.3098 131.073 42.2511 131.064 42.1711 131.064H41.9671V133H41.2511V127.108H41.9671ZM48.6045 133.064C48.2845 133.064 48.0378 132.975 47.8645 132.796C47.6938 132.617 47.6085 132.36 47.6085 132.024V129.544H47.1205C47.0778 129.544 47.0418 129.532 47.0125 129.508C46.9831 129.481 46.9685 129.441 46.9685 129.388V129.104L47.6325 129.02L47.7965 127.768C47.8045 127.728 47.8218 127.696 47.8485 127.672C47.8778 127.645 47.9151 127.632 47.9605 127.632H48.3205V129.028H49.4925V129.544H48.3205V131.976C48.3205 132.147 48.3618 132.273 48.4445 132.356C48.5271 132.439 48.6338 132.48 48.7645 132.48C48.8391 132.48 48.9031 132.471 48.9565 132.452C49.0125 132.431 49.0605 132.408 49.1005 132.384C49.1405 132.36 49.1738 132.339 49.2005 132.32C49.2298 132.299 49.2551 132.288 49.2765 132.288C49.3138 132.288 49.3471 132.311 49.3765 132.356L49.5845 132.696C49.4618 132.811 49.3138 132.901 49.1405 132.968C48.9671 133.032 48.7885 133.064 48.6045 133.064ZM51.9122 128.884C52.2082 128.884 52.4749 128.933 52.7122 129.032C52.9496 129.131 53.1522 129.271 53.3202 129.452C53.4882 129.633 53.6162 129.853 53.7042 130.112C53.7949 130.368 53.8402 130.655 53.8402 130.972C53.8402 131.292 53.7949 131.58 53.7042 131.836C53.6162 132.092 53.4882 132.311 53.3202 132.492C53.1522 132.673 52.9496 132.813 52.7122 132.912C52.4749 133.008 52.2082 133.056 51.9122 133.056C51.6136 133.056 51.3442 133.008 51.1042 132.912C50.8669 132.813 50.6642 132.673 50.4962 132.492C50.3282 132.311 50.1989 132.092 50.1082 131.836C50.0202 131.58 49.9762 131.292 49.9762 130.972C49.9762 130.655 50.0202 130.368 50.1082 130.112C50.1989 129.853 50.3282 129.633 50.4962 129.452C50.6642 129.271 50.8669 129.131 51.1042 129.032C51.3442 128.933 51.6136 128.884 51.9122 128.884ZM51.9122 132.5C52.3122 132.5 52.6109 132.367 52.8082 132.1C53.0056 131.831 53.1042 131.456 53.1042 130.976C53.1042 130.493 53.0056 130.117 52.8082 129.848C52.6109 129.579 52.3122 129.444 51.9122 129.444C51.7096 129.444 51.5322 129.479 51.3802 129.548C51.2309 129.617 51.1056 129.717 51.0042 129.848C50.9056 129.979 50.8309 130.14 50.7802 130.332C50.7322 130.521 50.7082 130.736 50.7082 130.976C50.7082 131.456 50.8069 131.831 51.0042 132.1C51.2042 132.367 51.5069 132.5 51.9122 132.5ZM60.0668 128.948L58.4148 133H57.7748L56.1228 128.948H56.7028C56.7615 128.948 56.8095 128.963 56.8468 128.992C56.8842 129.021 56.9095 129.056 56.9228 129.096L57.9508 131.704C57.9828 131.803 58.0108 131.899 58.0348 131.992C58.0588 132.085 58.0815 132.179 58.1028 132.272C58.1242 132.179 58.1468 132.085 58.1708 131.992C58.1948 131.899 58.2242 131.803 58.2588 131.704L59.2988 129.096C59.3148 129.053 59.3415 129.019 59.3788 128.992C59.4162 128.963 59.4602 128.948 59.5108 128.948H60.0668ZM61.4718 128.948V133H60.7598V128.948H61.4718ZM61.6238 127.676C61.6238 127.745 61.6092 127.811 61.5798 127.872C61.5532 127.931 61.5158 127.984 61.4678 128.032C61.4225 128.077 61.3678 128.113 61.3038 128.14C61.2425 128.167 61.1772 128.18 61.1078 128.18C61.0385 128.18 60.9732 128.167 60.9118 128.14C60.8532 128.113 60.8012 128.077 60.7558 128.032C60.7105 127.984 60.6745 127.931 60.6478 127.872C60.6212 127.811 60.6078 127.745 60.6078 127.676C60.6078 127.607 60.6212 127.541 60.6478 127.48C60.6745 127.416 60.7105 127.361 60.7558 127.316C60.8012 127.268 60.8532 127.231 60.9118 127.204C60.9732 127.177 61.0385 127.164 61.1078 127.164C61.1772 127.164 61.2425 127.177 61.3038 127.204C61.3678 127.231 61.4225 127.268 61.4678 127.316C61.5158 127.361 61.5532 127.416 61.5798 127.48C61.6092 127.541 61.6238 127.607 61.6238 127.676ZM65.3537 130.532C65.3537 130.367 65.3297 130.216 65.2817 130.08C65.2364 129.941 65.1684 129.823 65.0777 129.724C64.9897 129.623 64.8817 129.545 64.7537 129.492C64.6257 129.436 64.4804 129.408 64.3177 129.408C63.9764 129.408 63.7057 129.508 63.5057 129.708C63.3084 129.905 63.1857 130.18 63.1377 130.532H65.3537ZM65.9297 132.432C65.8417 132.539 65.7364 132.632 65.6137 132.712C65.4911 132.789 65.3591 132.853 65.2177 132.904C65.0791 132.955 64.9351 132.992 64.7857 133.016C64.6364 133.043 64.4884 133.056 64.3417 133.056C64.0617 133.056 63.8031 133.009 63.5657 132.916C63.3311 132.82 63.1271 132.681 62.9537 132.5C62.7831 132.316 62.6497 132.089 62.5537 131.82C62.4577 131.551 62.4097 131.241 62.4097 130.892C62.4097 130.609 62.4524 130.345 62.5377 130.1C62.6257 129.855 62.7511 129.643 62.9137 129.464C63.0764 129.283 63.2751 129.141 63.5097 129.04C63.7444 128.936 64.0084 128.884 64.3017 128.884C64.5444 128.884 64.7684 128.925 64.9737 129.008C65.1817 129.088 65.3604 129.205 65.5097 129.36C65.6617 129.512 65.7804 129.701 65.8657 129.928C65.9511 130.152 65.9937 130.408 65.9937 130.696C65.9937 130.808 65.9817 130.883 65.9577 130.92C65.9337 130.957 65.8884 130.976 65.8217 130.976H63.1137C63.1217 131.232 63.1564 131.455 63.2177 131.644C63.2817 131.833 63.3697 131.992 63.4817 132.12C63.5937 132.245 63.7271 132.34 63.8817 132.404C64.0364 132.465 64.2097 132.496 64.4017 132.496C64.5804 132.496 64.7337 132.476 64.8617 132.436C64.9924 132.393 65.1044 132.348 65.1977 132.3C65.2911 132.252 65.3684 132.208 65.4297 132.168C65.4937 132.125 65.5484 132.104 65.5937 132.104C65.6524 132.104 65.6977 132.127 65.7297 132.172L65.9297 132.432ZM72.4172 128.948L71.1052 133H70.5412C70.4719 133 70.4239 132.955 70.3972 132.864L69.5012 130.116C69.4799 130.055 69.4626 129.993 69.4492 129.932C69.4359 129.868 69.4226 129.805 69.4092 129.744C69.3959 129.805 69.3826 129.868 69.3692 129.932C69.3559 129.993 69.3386 130.056 69.3172 130.12L68.4052 132.864C68.3812 132.955 68.3279 133 68.2452 133H67.7092L66.3972 128.948H66.9572C67.0132 128.948 67.0599 128.963 67.0972 128.992C67.1372 129.021 67.1639 129.056 67.1772 129.096L67.9532 131.704C67.9986 131.896 68.0346 132.077 68.0612 132.248C68.0852 132.16 68.1092 132.071 68.1332 131.98C68.1599 131.889 68.1879 131.797 68.2172 131.704L69.0732 129.08C69.0866 129.04 69.1092 129.007 69.1412 128.98C69.1759 128.953 69.2172 128.94 69.2652 128.94H69.5772C69.6306 128.94 69.6746 128.953 69.7092 128.98C69.7439 129.007 69.7679 129.04 69.7812 129.08L70.6172 131.704C70.6466 131.797 70.6732 131.889 70.6972 131.98C70.7212 132.071 70.7439 132.16 70.7652 132.248C70.7786 132.16 70.7946 132.072 70.8132 131.984C70.8346 131.893 70.8572 131.8 70.8812 131.704L71.6732 129.096C71.6866 129.053 71.7119 129.019 71.7492 128.992C71.7866 128.963 71.8306 128.948 71.8812 128.948H72.4172ZM74.9933 133V128.948H75.4213C75.5226 128.948 75.5853 128.997 75.6093 129.096L75.6613 129.512C75.8106 129.328 75.9786 129.177 76.1653 129.06C76.352 128.943 76.568 128.884 76.8133 128.884C77.0853 128.884 77.3053 128.96 77.4733 129.112C77.644 129.264 77.7666 129.469 77.8413 129.728C77.9 129.581 77.9746 129.455 78.0653 129.348C78.1586 129.241 78.2626 129.153 78.3773 129.084C78.492 129.015 78.6133 128.964 78.7413 128.932C78.872 128.9 79.004 128.884 79.1373 128.884C79.3506 128.884 79.54 128.919 79.7053 128.988C79.8733 129.055 80.0146 129.153 80.1293 129.284C80.2466 129.415 80.336 129.576 80.3973 129.768C80.4586 129.957 80.4893 130.175 80.4893 130.42V133H79.7733V130.42C79.7733 130.103 79.704 129.863 79.5653 129.7C79.4266 129.535 79.2266 129.452 78.9653 129.452C78.848 129.452 78.736 129.473 78.6293 129.516C78.5253 129.556 78.4333 129.616 78.3533 129.696C78.2733 129.776 78.2093 129.877 78.1613 130C78.116 130.12 78.0933 130.26 78.0933 130.42V133H77.3773V130.42C77.3773 130.095 77.312 129.852 77.1813 129.692C77.0506 129.532 76.86 129.452 76.6093 129.452C76.4333 129.452 76.2706 129.5 76.1213 129.596C75.972 129.689 75.8346 129.817 75.7093 129.98V133H74.9933ZM83.2794 128.884C83.5754 128.884 83.8421 128.933 84.0794 129.032C84.3167 129.131 84.5194 129.271 84.6874 129.452C84.8554 129.633 84.9834 129.853 85.0714 130.112C85.1621 130.368 85.2074 130.655 85.2074 130.972C85.2074 131.292 85.1621 131.58 85.0714 131.836C84.9834 132.092 84.8554 132.311 84.6874 132.492C84.5194 132.673 84.3167 132.813 84.0794 132.912C83.8421 133.008 83.5754 133.056 83.2794 133.056C82.9807 133.056 82.7114 133.008 82.4714 132.912C82.2341 132.813 82.0314 132.673 81.8634 132.492C81.6954 132.311 81.5661 132.092 81.4754 131.836C81.3874 131.58 81.3434 131.292 81.3434 130.972C81.3434 130.655 81.3874 130.368 81.4754 130.112C81.5661 129.853 81.6954 129.633 81.8634 129.452C82.0314 129.271 82.2341 129.131 82.4714 129.032C82.7114 128.933 82.9807 128.884 83.2794 128.884ZM83.2794 132.5C83.6794 132.5 83.9781 132.367 84.1754 132.1C84.3727 131.831 84.4714 131.456 84.4714 130.976C84.4714 130.493 84.3727 130.117 84.1754 129.848C83.9781 129.579 83.6794 129.444 83.2794 129.444C83.0767 129.444 82.8994 129.479 82.7474 129.548C82.5981 129.617 82.4727 129.717 82.3714 129.848C82.2727 129.979 82.1981 130.14 82.1474 130.332C82.0994 130.521 82.0754 130.736 82.0754 130.976C82.0754 131.456 82.1741 131.831 82.3714 132.1C82.5714 132.367 82.8741 132.5 83.2794 132.5ZM86.7865 129.76C86.9145 129.483 87.0718 129.267 87.2585 129.112C87.4451 128.955 87.6731 128.876 87.9425 128.876C88.0278 128.876 88.1091 128.885 88.1865 128.904C88.2665 128.923 88.3371 128.952 88.3985 128.992L88.3465 129.524C88.3305 129.591 88.2905 129.624 88.2265 129.624C88.1891 129.624 88.1345 129.616 88.0625 129.6C87.9905 129.584 87.9091 129.576 87.8185 129.576C87.6905 129.576 87.5758 129.595 87.4745 129.632C87.3758 129.669 87.2865 129.725 87.2065 129.8C87.1291 129.872 87.0585 129.963 86.9945 130.072C86.9331 130.179 86.8771 130.301 86.8265 130.44V133H86.1105V128.948H86.5185C86.5958 128.948 86.6491 128.963 86.6785 128.992C86.7078 129.021 86.7278 129.072 86.7385 129.144L86.7865 129.76ZM91.5725 130.532C91.5725 130.367 91.5485 130.216 91.5005 130.08C91.4551 129.941 91.3871 129.823 91.2965 129.724C91.2085 129.623 91.1005 129.545 90.9725 129.492C90.8445 129.436 90.6991 129.408 90.5365 129.408C90.1951 129.408 89.9245 129.508 89.7245 129.708C89.5271 129.905 89.4045 130.18 89.3565 130.532H91.5725ZM92.1485 132.432C92.0605 132.539 91.9551 132.632 91.8325 132.712C91.7098 132.789 91.5778 132.853 91.4365 132.904C91.2978 132.955 91.1538 132.992 91.0045 133.016C90.8551 133.043 90.7071 133.056 90.5605 133.056C90.2805 133.056 90.0218 133.009 89.7845 132.916C89.5498 132.82 89.3458 132.681 89.1725 132.5C89.0018 132.316 88.8685 132.089 88.7725 131.82C88.6765 131.551 88.6285 131.241 88.6285 130.892C88.6285 130.609 88.6711 130.345 88.7565 130.1C88.8445 129.855 88.9698 129.643 89.1325 129.464C89.2951 129.283 89.4938 129.141 89.7285 129.04C89.9631 128.936 90.2271 128.884 90.5205 128.884C90.7631 128.884 90.9871 128.925 91.1925 129.008C91.4005 129.088 91.5791 129.205 91.7285 129.36C91.8805 129.512 91.9991 129.701 92.0845 129.928C92.1698 130.152 92.2125 130.408 92.2125 130.696C92.2125 130.808 92.2005 130.883 92.1765 130.92C92.1525 130.957 92.1071 130.976 92.0405 130.976H89.3325C89.3405 131.232 89.3751 131.455 89.4365 131.644C89.5005 131.833 89.5885 131.992 89.7005 132.12C89.8125 132.245 89.9458 132.34 90.1005 132.404C90.2551 132.465 90.4285 132.496 90.6205 132.496C90.7991 132.496 90.9525 132.476 91.0805 132.436C91.2111 132.393 91.3231 132.348 91.4165 132.3C91.5098 132.252 91.5871 132.208 91.6485 132.168C91.7125 132.125 91.7671 132.104 91.8125 132.104C91.8711 132.104 91.9165 132.127 91.9485 132.172L92.1485 132.432Z" fill="black"/>
<defs>
<filter id="filter0_d_250_8802" x="14.2285" y="13.0679" width="23.2461" height="25.4239" filterUnits="userSpaceOnUse" color-interpolation-filters="sRGB">
<feFlood flood-opacity="0" result="BackgroundImageFix"/>
<feColorMatrix in="SourceAlpha" type="matrix" values="0 0 0 0 0 0 0 0 0 0 0 0 0 0 0 0 0 0 127 0" result="hardAlpha"/>
<feOffset dy="4"/>
<feGaussianBlur stdDeviation="2"/>
<feComposite in2="hardAlpha" operator="out"/>
<feColorMatrix type="matrix" values="0 0 0 0 0 0 0 0 0 0 0 0 0 0 0 0 0 0 0.25 0"/>
<feBlend mode="normal" in2="BackgroundImageFix" result="effect1_dropShadow_250_8802"/>
<feBlend mode="normal" in="SourceGraphic" in2="effect1_dropShadow_250_8802" result="shape"/>
</filter>
<linearGradient id="paint0_linear_250_8802" x1="149.999" y1="17.4239" x2="149.999" y2="156.815" gradientUnits="userSpaceOnUse">
<stop stop-color="white" stop-opacity="0.2"/>
<stop offset="0.855469" stop-color="white" stop-opacity="0"/>
</linearGradient>
<linearGradient id="paint1_linear_250_8802" x1="149.999" y1="17.4239" x2="149.999" y2="156.815" gradientUnits="userSpaceOnUse">
<stop stop-color="white" stop-opacity="0.2"/>
<stop offset="0.855469" stop-color="white" stop-opacity="0"/>
</linearGradient>
<linearGradient id="paint2_linear_250_8802" x1="149.999" y1="17.4239" x2="149.999" y2="156.815" gradientUnits="userSpaceOnUse">
<stop stop-color="white" stop-opacity="0.2"/>
<stop offset="0.855469" stop-color="white" stop-opacity="0"/>
</linearGradient>
<linearGradient id="paint3_linear_250_8802" x1="149.999" y1="17.4239" x2="149.999" y2="156.815" gradientUnits="userSpaceOnUse">
<stop stop-color="white" stop-opacity="0.2"/>
<stop offset="0.855469" stop-color="white" stop-opacity="0"/>
</linearGradient>
</defs>
</svg>
